<mxfile host="app.diagrams.net" agent="Mozilla/5.0 (Windows NT 10.0; Win64; x64) AppleWebKit/537.36 (KHTML, like Gecko) Chrome/137.0.0.0 Safari/537.36 Edg/137.0.0.0" version="27.1.6">
  <diagram name="Page-1" id="jccDCBtac7d86MqWrWbm">
    <mxGraphModel dx="2977" dy="1494" grid="1" gridSize="10" guides="1" tooltips="1" connect="1" arrows="1" fold="1" page="0" pageScale="1" pageWidth="1600" pageHeight="900" math="0" shadow="0">
      <root>
        <mxCell id="0" />
        <mxCell id="1" parent="0" />
        <mxCell id="62-zhVfSsMvh8eSBV18P-1" value="" style="shape=image;verticalLabelPosition=bottom;labelBackgroundColor=default;verticalAlign=top;aspect=fixed;imageAspect=0;image=data:image/png,iVBORw0KGgoAAAANSUhEUgAAAqoAAAKkCAYAAADIjx0aAAAAAXNSR0IArs4c6QAAAARnQU1BAACxjwv8YQUAAAAJcEhZcwAADsMAAA7DAcdvqGQAAP+lSURBVHhe7P17dBTnmej/fqsvkhqpdWl0Q40uIHGRDDIIBDYisgx2wDF4CBmccTwOc7I5w8n4NzuzMYvFdpzlsOJ4e7Gw92TPz8k4y8lv7Ax2jjkhTCDBjjGRsYUNisXVCIMEEqJBakQLqSVK6ludP6pb6i61ultqYUv2+1mrV5x6q6qru1HVU8/7vG9JiqIoCIIgCIIgCMIEI218/kERqAqCMGn8dp9Xu0gYhb9bp9cuEgRBmLB02gWCIAiCIAiCMBGIQFUQBEEQBEGYkESgKgiCIAiCIExIIlAVBEEQBEEQJiQRqAqCIAiCIAgTkghUBUEQBEEQhAlJBKqCIAiCIAjChCQCVUEQBEEQBGFCEoGqIAiCIAiCMCGJQFUQBEEQBEGYkESgKgiCMMGkoJCCeLq1IAiCtPH5B8XZUBCESeO3+7zaRSPa+63D2kXjav3vVmgXjckixc0SxcM8xcNdipsMf5DahcSnkpGzkoHjkoFPJKN201H7u3V67SJBEIQJS2RUBUEQviDLFDfP+Xr5P95e/i/fbWoUF1koGAADkIVCjeLi//Ld5v94e3nO18syxa3djSAIwpeWCFQFQRC+AH+v9POst49v+gZIx6dtHiYdH9/0DfCst4+/V/q1zYIgCF9K8Xf9Z1bwnaUPMcdiwaQDfG7k262cOPsf7PtM1q49SiYWVD7KA8WlZCf6u7y8PdhthzjwlzrOa1cfQfWq51iTa9IuHuJzI/fbaG46yIETTTi07YIgTBhfhq7/f/Ld5p98/UhjrENVkPi5Lomf66Zom6Ka0F3/925h52yrdumQ7lq27duvXRqHCjY/9jjFCdrlQbwyzq7T1J/bz9uX472mCYIwWvFlVPPXsnX14yzItGDyOrB32bD3ezCllLDsnm1snhchOIzKRPWqbXynrJzsRCNyrw17VweylEp2wXq+u24tc7WbRONz43GHeWHENKWIeeWbePL+Cu1WgiAI4+bvlf64glQACYV/8vV/6TKr1akW9T+8Yc7Tbjcet0e7yfgZ4T3RmzBnLmVF1Ra+W6bdSBCEOy2OjGoOG9b9DyrTjMj2vfzyYB02f8vcqi18t8SKwd3E22/8gjHlNMo2saOyFJOvg5Mf/htvBO5kzUvZ/PCjFCeC4/JOXjjSod1ymMGM6oh346msWPU/WJ2bCnRw8t2dvHFNu44gCHdaxw2Fi5cVltytIyFR26qazBnVZYqbZ719TCf2zxDJVfTs0CdzdBSDrMJmVBVw3ILPmn04e9VFKckwt0SHJR2QtBvcCTl891vbmJci0/zJM7xyVtt+JwxlVO1NT7GrTtsOZFax+YH1FCcCzjpe2buXZu06giDcMXFkVEvJTgKPz8bZD4eCVIDzdX+gSQaMhZQuDGoYhXmZFoxekO2HhoJUAOcxXmluAcCSdR/FQy1x6OHwO4dodQPkUDA7R7uCIAh3kgI3biqcPe/D5x3jvfMk8A1lYNyCVIDpePmGMqBdPGodnQqfnFaP6645Ou6ao14aPjntpaPz8/o9SjEnAjhwfC5Baow663jlXBMeAHMpVXnaFQRBuJPiyKhGYuI7659jgXnoLnXFQ8+xOtuE3L6bZ99p0G7AghU/5Dv5Fjw39vP0n2q1zaHmbWLHolJMrkYOvPkqR7TtGtEzqqoN616kMo1hx2iZ8QDr7q6ixJyKIVCH22/js7Ov8UZjj3+tB/jBEw9h1dmo3/sSe5yDm2NZvo3txTnga+HIb/6NA0NNg5/b2fYLfnK4SV1oLmH14oeozC3C7K+d8rg6aG3ay5760Bpa9bNB89lDULSa4hQj+GQcbXt5oXb49ywIE43bDU0tPtr8d7tJiQr3VOi/dBnVRYqb/+PtjWng1GjcQsd/16fEPHWVNqPq8cBfTyvodAoV83QYDOpytxsaTvtQJInF5dLg8jum+HF+tLwCs9zAG2/t5qS2PVj593l+YQmGka4BgX25mzj8xi94W9s+KIaMKgBr2bqxhmxkmuuf4ZVzQy3W0vX87bwKcpJMQ9cHZyP1p97iwGCSRVwfBGGs4sioRpD3AHnJqHfG7eqiw60tyIDJUkG1ZnUooSLTAsjYrkYJUoFqaxEmgN6W4SeocTZ30ff5QfVDzE1LxeDuGKrDnVLEgiVPs7WqyL9mHdecANnkaYpnl2X46650OVhDapxyKM+wAD3YrgROQkv53upNrCgowmyQcXbbsHc7wJBDcdn3+cGqpfj3FsRAYelaiqfIOLpsONxuuhziJCRMDuebFNpskJsDRQWfSx/zoNTs+VQ8/Cse/P5FVv9zGw9+/yIVD/+K1Oz52lXjtkTxRAxSE+aUkPO/fkTRe3uZ8eEBit7bS87/+hEJc0q0q4ZIx8cSZey1m/0D4BrwMdUSGowajZCRLuEa8OGL/d5g7LJzMAMej4X7NjzH80+8yM6NL7Lzief40cPrWZYZtO7pY7S6gIQiSsPUjS4oLFL31XU6QpAaLxPLarbx5JIqrFNM0K9eHxxuI6a0cqqrg8dpiOuDIIzVOAeqqcydv56t99WQrQNP5zH2BYp5ztXRKo9wYileitUEuG00nta0BbHklrNu1Q9ZnWsCn4OzjYe0q4yd+SHyzABuHIE/4ry1rCktwYQbe/MveOG3O9n1h5fYtecZfn22CRkj2SWP870SAJmGWw7AiMWyNGjHS7GmBDIdJjKyg8oKzEvITgFcNpr856HqZWuZO8UIA00cqX2Gn+x7iV37fsrTtbXYvWDK/SZPVGoHqRkxSB2crN3BC394iRd+u4NXInyPgjCRJCZAeZnE/FIdxjudtQuSmj2fpd/aS/bMr6M3JAGgNySRPfPrLP3W3nEPVudFCCYT5pSQ9/OdTPnaUqRENU0mJSYw5WtLyfv5zqjBaqR9R5OSDNX36inW3CR4feDsUzAYJKRxvlKEExhIZTAXYU1y0+MPwmRMmDOrWLd6CxvyA2s30GDvAUzk5WsHwAYlPmwjpkhHxbKkiGwAXwe2QDa17FFWFeZgoIfmEzt4eo96fXjht8+wr7UDD6kUL9jEGjPi+iAIcRi/08+9W9i58Vm+V1FFdgJ4Og/yqz8eCuqGaOTMzfAnlsDdr7OjdoSBV+Vs/rsX2b5qI8tyLRh8Ds4ee4nX/X+88Ull7vy1/OChB7DqAFcTJ+rVlgVzy8nWA911/P7D0C6V85/8gvftMmChZHYNAM1tLTgBU1oJCwIrFpeo34ejBQdgSV8yeMdrKVVPfp7uJjUzbH6IhdkmQKb13C840BbYCdC2n19faAGMWPMfGl6be6uBN4LXF4RJYnaxRG629PmM1wlSUvkvgwGqlt6QREnlv2gXx+WuCBP1Z/zDY4MBqpaUmEDGPzymXRwi0r7HqvOmgqNLISdLza7eaRaDAY8P5Pa9/Ow3alC1a99PeXbfa5x1ukFvpbJy/eC5r77Vf77V9tIFEh/yRY7HG5BlWllx7z/z5By150y21w12za8pLsUEyO37eeV0oAQMQOZo7WucdQL6IuYtUoNPcX0QhLEZt0C1UKd2K9i7Hcg+MGQ+xOZHv8+awTtgqG9pCnNiKfXf/fZga20cWjmECXegW2XADToL8+59lu015WG6OSJIq1G7kkJez/K9ihr1xOZ1cP7M7sFyglkp6t4dnYfCjvI83KaWMxhSC1kG0NyI3QWYiij3F9xbctXuLEdnHV0uYMp0lvi3X5ZjBdzYrvvLHUqKyNEBrhbOhDnBOhptarBsLkKbQ3D2qQPMBEGIzdSC4UVIwaK1j0YKyuBjUcMxLYk86jRae6R9j4WjS+HcBYWMdInC6eN2mYho3x+38/RvnuLZd0IH5+I8zev1Df5zXyn3BaKwpjpsYXrpKotK1MTHzeP4cw4xyS7RXhteZOfDW1g9uwizDjy3G3jvaKDLvBxrshGQuWYL143ewdt2dUYaS6r/jC+uD4IwJuN2Bmqt+8XwO2BTCdWL1g7d3TUfotmpObGULPHf/TbRMGKG9Bi/3hfoVtk+2O1uKXyUDdoygkjCzqMq4+xuobl5P3ve/im/Phsofi/BnAQg03VrhEmeHT3IALoppALQQKNDzbJmF6qrLLNkAw7srQ3Yet1gzKawFKCGQrMRfDZaT/j3N8WEAUCysuSRLWzVvu4vweQDsGDRfG55YMQvTxAEITYKdNjhk9MKyclQXjo0uOoL1daAXUY99+UGFjbxfnuHppeulPlTUwEHtpaREh8jCDePqsuBvbORk2de5eU9uzkyOAgqmyQjQA/O1pC9DHL0OdWZAowm/zVQXB8EYSzGLVAN4TzN66cbcQKkzQq6u+vgWGfoiaXS3+3vsB+KPMozyPlP/oMTDre6H2u5tnlkzjqefmO75vUMP9n3b7zyYS31ndoNYqS4ue3/zyN2Gx7AklEDVKj1RwNXaboGR7scQCoZOTlQVkK2EXC2cFSzO4ypZGdYw7xy1Kd/CYIQt5tXIg/FjNY+Gr1IdEUobpCPB6KR8KK1R9p3rBTg8lU4dc5HdiZUzNOREL4a4Q4xUVxoJfxzqZpwurTLoLlJLcka7KULJD56L/J+uG6wCOyXtdeG7Tz95k/Z9cdXeaOhMTTLOxqKhy7/f4rrgyCM3p37Z93kULONGs0nGrEPnlgCd78dXLkQfeL+ITIOl3/wgO5O3e434ewHMJGRri1O98uZqmZSFbd65wxw4iIdPjCklVBdXKrWH/W0chRwXLfhBCzm+SzIzcEE2G8E1fHeltX9OOt44bWn2DbiK3R6FEEQRq+p/l/xesI/2cnr6aep/l+1i+PyaYTpo7r+402UgTCRGKAMuOj6jze1i0NE2ncsFAUuNCtcbPZRmC9RXvY5Z1LN69m+8Tk21/wDK8POU1qOJQnAjRzICgBcO0hz91Av3WDi48b7Ycu1xo+dfjdAKmZ/dlSrOM2iZkA97qFzvLg+CMKojT1QLX2c7d95gZ3f+T5hZxIsn67Wj/rcoQGr8xBNDrd6Ylniv/t1NnFM8ySodQ+/wPNPvMj26nCT7+cwPVkNHj3u4CL28XWxVz1FWDIfGF6cDqzItaonoj5b0F2vfxqShBxKCv31R93H1KZmGw63v84qw6J2+QQ/zKDpqnpSSrZSbR5aLAjC+Ouxn+HY79Zjv/TnwYDV6+nHfunPHPvdenrsZ7SbxOWsNHLk5/qsiWv/tI3bHxwbDFiVARe3PzjGtX/ahuuzyF23kfYdlQItV6G1TWFWsY45MyWk+BO0o+M8Pdi1n1cS5pxfspDsRMBnwxbyVci8d63F30v30FDio2k0iY+xOI2tL9Crp60IBchhqUUd4+DsDS5BENcHQRitsQeqjS04MYKxhPu0c7fl1/BkWQkGQG4fGiWpkjnSYQNMFJbMwgzYOw4Ou/s943Rg0IGl4PGgKUlAnbtuI/PMgNfG+fORT+DxOHn+NHYvkFbFN5eXhHzGuYu+z33ZJqCH5ubgabIC05BYmGv11x8NnmxqaXW6wViENQWQWzgdHKA7D3H2hgy6IpasXM+CkJORiQXLt/D8xhfZ+dgmVgc3CYIwJj32MzT88b/x7i9m8fa/5fPuL2bR8Mf/Nu5BKsBxycCtCKdc12dNdPzPn9Cycj2Xl6+hZeV6Ov7nT6IGqbfQcTyOQLX3NrRc8WE0Qm+fj08vKHz62dDrwiUFt3t8B2sNF6g3Vc/535kR1IuVWcXmxeWY/deTfUGT5QM4Gpuw+cA0tYoSE9DdyNufwyOwDzQ3qnOD565lc7k6SkEV6Rolrg+CMFr6BSuLf6xdGJs2mpUCFuVlYUq5i+V3VXL3jEqWzfs66+aUk24AT3cdv/vgMO2aHi3ZlkpZ+SzSDUbwtXDq/TrOa9bparWRPqMCqykd64xVLC+Zx+JZX2Ploke425KCjh6aT/2c15uiPz6wsGQFs1OMMNDCu+cvaJtH5ryAw1jM3Ows0i2VLC9dwN0zl7Ks/GGWW3Mw4sbRuoff1HeEZI27XNNYVDwdk6QHVwvHP2ogUG/vzVvKYn8pgbPjj7x1Obgw1kNTex8zi+4iM6WA+XOquWfmApbM/horKx5hcVYqOtzYL7/F6223IOiz9Tn+zFEx/Ygwyd3qhh6nwvRpOvQjxF5nz8ceNH277LJ20bj6/zbO0C4a0XVJz0y8lCrjO3v+QV0Cu3UjlCeFMW9uaLDccRM67Ao+H/T2glPz6u9XmJ478u8xXrpabaQXVmCdkk5u/r3quW/uCtbcVUGmETzdtez+0/sMG0rgaiKrcAWFKYnocGO7/P9Qa4t1XtlpLJ5fjkXP6M+hNy7gyriLkvSpZE6r4f7ZC1hYspTqhetYOFW9RrWe+y3/cUE9VweI64MgjM7It/cxcJx9lZ8dOcj57h48eota0J2SisflwNa8m5f37eWk5u5XdYgznf7Q7lbjsDtkVQt79j3PvuYWnC43phS1WNysdyN3n+bIkZ2auevujPOf/GLoMxpz1M+YZEC+3cLJ48/zQu3pkPlVAbgWGKEaNAeeX3PHVX9QK2O/HmZUqvMYrxz8BUeudiArJsxp/s9tcCN3N1J//Hl21YmpRoQvpxkFEtX3jvz41MnuT1IiVwl9hGk8rqLnT1J8X1b+NPh6jW7E1+f3e7Sw5w/+c77Hf+5Ls2DwBK4n+zmv3cTvQGurWr/ps9F8PNzoiDtB5mjtTl4+XofttgxJ6vXBYhy6Rr38SZhztbg+CMKoSBuffzD29IQgCMIX7Lf7Ys9I7v1W+EeIjJf1vwtboR/R3yv9bPfeRopz7lMFiRf0U/hPKfxDC0byd+vGL1AWBEG40+LKqAqCIAij859SEj/XJaHEMaWUgsTPdUmjDlIFQRAmGxGoCoIgfM5+rpvCC/opYyoDuIqeF/RT+LluirZJEAThS0cEqoIgCF+A/5SS2KFP5ve6xIizAQTcQsfvdYns0CeLTKogCF8Z0c+OgiAIwh1xVDLyjC6F/65P4f/WTaFWSuAGEh7AA9xAolZK4P/WTeG/61N4RpfC0Tgn9xcEQZhMxGAqQRAmldEMphKGE4OpBEGYTERGVRAEQRAEQZiQRKAqCIIgCIIgTEgiUBUEQRAEQRAmJBGoCoIgCIIgCBOSCFQFQRAEQRCECUkEqoIgCIIgCMKEJAJVQRAEQRAEYUISgaogCMIEY/C/BEEQvurEhP+CIEwq4zXhf2JWMaasEhIsBRiSMzGkZALg6e3E09eJy3EF+UYTAzeatZuOuyWKm0WKh1LFwxzFSzo+8D829TNJT6Nk4BPJwPFxeCqVmPBfEITJRASqgiBMKvEGqolZxaQULSGlcAlIkrY5lKLQ23qc3pbjdyRgXaq4+RvfAF9XXJiIfCqWkfizlMB/6RI5FkfAKgJVQRAmE/2ClcU/1i4UBEGYqM6ejxzQRZI66z4y5q8hKXtW9CAVQJJISJ9OUlYJEhIDjlbtGmP2hE/mn3wy9+AmlrDTCMzFS7niQY/C6TEGq/PmioovQRAmj/HLqJpzqJ63liXTi7AkmTAEzoVeN3JvE2eb9vPe2Q4cms2o2sLOEqt26RCfG4/bQWvrIQ581IAtuK1sEzsqSzFho/61l9gT3BZgLmH14gdZkFOIJXHoxO5xOXDYG3j/1EHqO0O2iIm1dD1/O6+CnMBn9bmR+218dvY13mjs0a4uCMI4GWtGNb1sFWllD0EM8WlYCnSfO8itc+9oW0btn3y3edInaxePyss6Ez/XTdEujmpCZ1Tv3cLO2RGuB921bNu3X7s0DhVsfuxxihO0y4N4ZZxdp6k/t5+3L8f3mwmCMHrjklG1lm/kyfvWc3dWFslGIz5XB53Obvr6ZXSJqZhMWVjzqlhUoKf9QhMhcWHBvTxoSQXA43bj8/lCXzojBmMKlqnl3D3dR9vFS3QFts2q4H5rFkacXDv1EeeC9wtY5jzKD1asoyzDgsmgR77dQVdvN31eMCWmY06byV0l9zLb2Er99VuarUc2t2oL/+/5d5FuNOKTO+js7WZAn06qKZ1caxV3pzRxtC32/QmCELuxZFRTZ91H+vy1Yw9SASRIypqF4pbjyqwGMqnxDpYqVzzISKPOrE7kjGr1XQ8zO8UIXjcer+Za4PPhu32Z9y42aTeLwzQWzy/HoleTKuHeU2dIJHHKdGZMX8A0zwecuqHdhyAId1LcGVXLvE38YFEpJsBpP8Tb9cMzlNbSR3li0VIsepCv7ebZdxuGGgMZVVcjB958lSPBGwJgYsHy7/NosRUDMq0nnuHl0/6mCBnVqMdlzqF68UZWF+RgwI296d/ZVdcStMII8taz/cEqLPTQfOJ/88rpQPY06Di9LRz5r3/jgFOzrSAIw7hccOGSwvUOH4oikZIMc0t0WNLV4FBrtBnVxKxiMiu/gyF5qrZpTDx9N+msf2NMNatLFTf/y9dLjqIOlopXh6Tjf+pSRlWzGktG1dGl8MlpHwvu0pGVGeZHuCNy+O63tjEvRab5k2d45ay2/U4Yyqjam55iV522HcisYvMD6ylOBJx1vLJ3L6P/5QVBGKs4b60r2DBfDQbl9rd4+eDwIBXA1vgWvzzZiAyY8h7gO3naNSKROfnhbs46AUxYp9doVwijgg3zohyXs4Mjf9nJ6002PBjJnrmeDTEcV/HsUiwAjuPsGQxSGTzO872A3krx3KAmQRDC8njgdKOPjhs+ZhTpuGuODkmCT0576eiM6x56UErRknELUgEMyVNJKVqiXRyThxXXuAWpADmKj4cVl3ZxXPoHFM5dVFCUzytADSjFnAjgwPG5BKkx6qzjlXNNeADMpVTFcJ0QBGH8xNX1b1nytzySmw7uJj54bx9nIpwvZbuNvOIlpHmddN/+iFN2f0Og69/byYWzDYTvUOsjo6Ca2SlGdJ7rvHv+grp4hK7/4ON6b9++YSUBwTrbrmMtWUp2YiqpiW0cuayNaEMtLV1BvimRW9d/zbtXPJrWPmbPWYU1SU9/95852qZpHsGGdS/y7cJOapuvU73qOZ5cMpOBoO+ietVzPLn8YR5csEp9zUgc+g5CrGXrxs2sC6y3YBXLc9X9hlfB5se2cn9aDMdatokd33icbwTt+8GygpDjDLtOTMcROO5qZroP80lI19oojlGYdGwd0HZVobxMR0GeRKoZcrMkHF3g7IOcLAmd5nZ6NF3/iVnFWO7+ZmwDp0YhIc1Kv70J7+3BQqSo7lY8bPXdjmng1GjMULwck4x0SLHlHSJ1/SsKfNYE3U4FxScxLVsiecr4fncjKq5i9YxpJMpNvP/pGdq17cHKv8/zqx9jlfYcFFD8OD965B9Yc1cx+jN/ZeRigaGu/z5HhHNMxzQWLigiGXA6Qs9R1tL1fO/+x/mbRQ+zauEqHixfwfKZVlIGLnDhVuAa8QA/eOJJvrVwHumXPuJc0LXSsnwbO+5fz4Plc0g8fZzgM/uCFT9kS/U67pl6iSOX/SM8zCWsrnqcx+79NmsWqefX+8sWUGLq4PI1B8FVtOq1YwUzDT4WL/v/8O0lD/FgeTWLLLf4sGWk87EgTCwjn7GiMrEyrwgA+eYx3o7azd3BG3u38+yel3j9jLZtfC3LUYvx5ZsNHNY2DtNC3U31BGDOWsIybbPG2wd38PRvnuKFD8MV1ZdiTgBw444QtIeo2kKlqZH33gkqhwhSveo51uRCc/1TbHvtKba9Vos9rYad69YOW2/nxhpoCqynruvMfZydj22iOmRt1YZ1UQYRBFRtYWdlKc6QfT9FvVzKmo1b2KBZ3a5Zb/A4NMc8qGoW2S4bdpeJ4tnadRp45VQj5pLh7yNMfrf7FNLMYEkfCob0BjAaJRQFlChTNkVjyiqJGKSWZel5+RspnNicTuOTGZzYnM7L30ihLCtK97gkYcou0S6NaJnijjgFVcKcEnL+148oem8vMz48QNF7e8n5Xz8iYU7k9zGhsExxaxePngItV+FWN8ybrUevH/lY74jsHMyAx2Phvg3P8fwTL7Jz44vsfOI5fvTwepap09yqTh+j1QUkFFFaFrTcb0FhkbqvrtO8rW0cNyaW1WzjySVVWKeYoL8De5cNh9uIKa2c6uptbJ5n8q9bxzUnQDZ5mt62ZRkW9T90OVhDPksO5RkWoAfbFX+obV7K91ZvYkVBEWaDjLPbhr3bAYYcisu+zw9WLVV7/EIYKCxdS/EUGUeXDYfbTZcj/PVGECaiOALVciwmADeOO/6PvpSSNPUP3tnTqG3UqMCaouYsnL3HtI1hNds71LvQxKlEGG8a1dzla5lrArw2ms9rW8NZy9YSK/Yr4WpzASootZiQ2/fyymBaeD+7mmyQtpTNgZNa2SZW5prC1FjtZ1d9I3JCKStXVQQtX8vWjS9SmRa0KIINWVborh1Wv7VnXy12rMwL2Xc4/uNIq2FrlbbNv3/5IscdMqTNGh6QnnuVs92xvI8w2cwpkVi6SIfRn2b0eKClTeGmQyFrqoRBP3KQGYsES4F20aCyLD2715tZMcNIkkF9nySDxIoZRnavN0cNViPtO5wFirYHZkjCnBLyfr6TKV9bipSo3j1KiQlM+dpS8n6+M2qwGmnfsep2KrS2+Zg1E0ymzzlIBapT1RDLYC7CmuSmxx+EyZgwZ1axbvUWNuQH1m6gwd4DmMjL154XSqjItAAyNlu4otPRsywpIhvA14EtcC4ue5RVhTkY6KH5xA6e3rOTXX94iRd++wz7WjvwkErxgk2sMQPINNxyAEYslqVBe146eL0CExnZOUNN5iVkpwAuG03+OLV62VrmTjHCQBNHap/hJ/teYte+n/J0bS12L5hyv8kTlYHgOMCIQergZO0OXvjDS7zw2x28EhjnIQiTQByBarY/e+ihv0/bNl5MFM+u4XvrN6oBoM/G+fMjd+KoLCQZAGSc3dq2EZzrQE0IW7CEuTuPhWXeJh4rzgHc2C/vj20gVdUssrHROuK5tIFX3nyKZ7XZ1q6ekO6dDbNLMbkaOR5uP+caONu0O2gfa9m6sYZsVyMH6tW64cgq/Dck4exn12thji+cc69ythuyCzTZ3bJNzEsD+439HGlrQcZKYZhgds8NG6bcmuFBrPClcaZR4fCHPpouKRTmSxROjy9IBTAkB6fhQj1ZaRoMULWSDBJPDrvgh4q0by0DUKSMPAgs4x8eGwxQtaTEBDL+4THt4hCR9h0Llxs+/UwhN1si53MbPBXKYjDg8YHcvpef/UYNqnbt+ynP7nuNs0436K1UVq6n2L9+fWsLTsBkqQg9pxQvxWpCvfmNNyDLtLLi3n/myTn+3kN7HQf8TWuKA+Mg9gcNqgWQOVr7mjquQl/EvEVq8Nnc5j/etBIWBFYtLiE7ATyOFhyAJX3JYEbUUqoGx57uJjWRYX6IhdkmQKb13C84EFym0LafX19oAYxY8x8a/I4G3WrgjZHKGgRhgosjUI2ibBM7Nvq7bjSvHeEyYwmlrBm27nNsvnctc81G9e74s73suabdUMuEMfCpxm/MQkSWeY/z5ILASev3/DqW2QMGM5UXw8//GkF1fhEmHDjOMRhIyo6GEbKyDeypCw4k1eByW9gZFsJpoNEhQ1oNO8N0849GhyxDQipBOQP/Z/EH6+cauOaC7Cxt9z9QdxH7CEGsMPn5fBI5WRLzSyWys9Ss6rkLCkqcib3AY1HDWZYfeYKoaO2R9q0loTCdkYNJ05KF2kUhorVH2nc0igIXLykkJEBJkRR2poXPw74/bufp3zzFs+/Uhc6X7TzN6/UN6hzc5lLuC0RhTXXY5OHd/5VFJZgB583j1A8tjiq7RHv9eZGdD29h9ewizDrw3G7gvaOBc2k51mT1unTNFu5GvYO37R0AWFL9A++aG7G7AFMR5f4BWZZctdzB0VlHlwuYMp3AMD21hM2N7XqtuqCkiBwd4GrhTJgA3NFo839HRWivsM6+2K5JgjARxRGoOpHdAAYMido2QJGR3W48wa8ogWPIuv6X3Guj9epBDrzzU352PJY/NhtOF4AJc4a2bQSlFsygjjaNNPIqjLmLvs8PFlVg1quZgF++c2z4Qw3CWkthGshyyCk5BmtZkmsKCnCt/sz2nXPknWc40C4DViqj3XBEcKRX+82opQ1DnyUQFAeVNQxSf1dzyujeU5gcdDqF7EyYliOxoEzHzEIJ23WFm11xRqpCVNc7FOw3YNYMCUPk2PyL09aAXUbt9coNLGzi/fYOTfd/KfOnpgIObC3RysQ0vMOvPx6XA3tnIyfPvMrLe3ZzZLCnLJskI0APzmEjuVSOPqc6U4DR5M9w+s9vWMguVNdZZskGHNhbG7D1usGYTWEpQA2FZiP4bLSe8O9wikmde1eysuSRLWzVvu4vweQjbM+gPBCtJ1IQJq44AtVj2G/jr7kp1TZC425eeGM7Twe93lbPNOG5Gnlbs/7Tb2zn2d+9xMvvHeJIe4RtQ/j/4Ik9qLFYpmICcPWg3gPHQi2k/+68Eky4cba9xc+0mYBIytQ7aWdvuLvxkVSw+bEasrFRP65PZ4nuyDvP+AdG7abZP1DMlPu4mvUeFlTGqKyCvAS12z/gyDvHsIetO2vAIYPJFE8VsTApSJCVKaHXgbNX2zg6nt6RZ/E42ha5rjNae6R9aylIXGXkmlf5eCAaCS9ae6R9R+LxKtjaFdwehWMNCn+u9fHnWh8ff6Lg9UqcOKvw3gdeepyfxw2DieJC6wjjBJr8CYhQzU1NOIK7/0uWqN3+vRd5f5STndovD7/+PP3mT9n1x1d5o6Ex9nO7luIZfEjNEbsND2DJqBkaTzFwlaZrcLTLAaSSkZMDZSVkGwFnC0c1u8OYSnaGNcwrB1McV3RBmKji+Gct0+BQwzpzdlXYUeVflKMd6inFNHUpq9VUaQRFrMlVT41Oe12M3eEmqh/cxrrCHAzI2Br/nZ8cjjWTOlaBiam1DzcIZJA/L2rd7LbXnmJbfSMy4Ubqh1edEjoedcNstVwitMuthuxwdWcBppzwy4VJx+uFk5/6aDjtw6vpbVF84PNFHLAfE0/fyMHky/Uy/Z7wAVi/R+Hl+sg3x5H2reUBWqSRg8mu/3gTZSD8H7Iy4KLrP97ULg4Rad+R6HUSJUU67r4r9DVrpoQEFOVDeZkOkynOHyIa83q2b3yOzTX/wMqw85SWY0kCcCPfDlp87SDN3UPd/5X+0f6OG+/f4Un57fS7AVIx+7OjWsVpFjUD6nEPXRtOXKTDB4a0EqqLS9X61J5WjgKO6zacgMU8nwW5OZgA+41DQ9veltUMrbOOF0JmVdG+ngkafCsIk18cgSo0HzmkZtcSSlkZdlqML4bj+CHOy4CxhHuXRT6uuVXrmZviH6jVGEtXkYnqVdtYk5cKvh6aT+yMsSQhHiMFqQxlGkcK7PzztI40RVVc/AOkYg0ec0zB3fz+0of23cNPtE22YXVng+SOGG8mhIlOr4fERPUpSM6gsSiKArZ2BUlSyEiLL0ByOa5oFw06d8PL43udHL7sHgxY+z0Khy+7eXyvk3M3Itd9Rtp3OCelkfvVXZ81ce2ftnH7g2ODAasy4OL2B8e49k/bcH0Wues20r4jkSTISIecrNDX1AzQ6dXvP2uqhHFsu4+d8/Rg135eSXAVu1/JQrIT1fO0LeSrkHnvWou/+/8hf7d/B1eaYu8bG5vT2Prc6vtatb0/ADkstahXHmdv8HXFP01VQg4lhf761G7/7DTNNhxufx1uhkUtCbgcdLPUdFUNWpOtVEdNwAjCl0dcgSo0sOeM/4lTuY/yg0c0c90FZFpZsXwLK7Mjj6IdP438+mwDTq//uNaupXLYcaWy7P5tfLfEqj5C9VIsA7XUgVMrc1MBNUgNHe05Cv6ZBqKXJ0QKUlV7LqhTUC0JN9DIP6p+5MFWUfgHxYWbVmpQLMFj0Oh+CMx4IHOtLUzpQ91F7MMytf5BY6Ou6RUmshn5EkkmiYazPppbFa53qI/utF1XKJ6pJy3OC7J8o0mNfEdw7oaXJ//Uy8JXblH6chcLX7nFk3/qjRqkoijqvkfhqGREjjBSyfVZEx3/8ye0rFzP5eVraFm5no7/+ZOoQaqMxNFRPEJ1YgrUm4Kl4HG+MyPoWpFZxebF5ZgBub2OfZoZVRyNTdh8YJpaRYkJ6G7k7RjO5fE60By49q1lc3lqUIuJZTUbmWdWpyoMnakmME2VhblWf33qYDBaS6vTDcYirCmA3MLp4M/hPMTZGzLoiliycj0LQv42TCxYvoXnN6pJidXBTYIwycX1ZCoA2d7A6f4UZmcXkJ5SwNzZq7i/dAELZy5l2ZyvsbJiLWtKl1NiScUogdx1jPfPHOJyIL6L6clUIxjhyVQA3DjD2YF0yqZNJzW5iLtKVrB8TgWLS5aybN7XWbN4FWXpKeh8Mrbzv+R/fxxLVjSHby5fR34iQCKpWV9j5fwHwr7mJR/i2FXt9sEuYJ2xikKjI+QpU4UlK5htujX4XWxYt5V5ySMHqQDcaMCXW83Cgoe5OyX46Spr2fqNStJdjbyz74/Dv1v/9+eK9ESWGw1kzVjF7LwwT40q28S3Z6Zw5cy/q8tH3J//OLpr2fHuBTX4Xl6FxdvE0b+E+83V78aaZiR98HddzP2LinC1vzbysQqTjsGgTock9ytcvabQcQN0OiidJTE9Twrb9T+aJ1N5b3dhSLaQkD5d2xSX3tbjOC9GvT0L0SHpmI6PsnGY8zTYH3RJ/FaXpF08okhPpgoYcMG1doWcrM/vyVRdrTbSCyuwTkknN/9e7pm5gCVzV7DmrgoyjeDprmX3n95nWMGFq4mswhUUpiSiw43t8v9DrS3W7zjGJ1OFc+MCroy7KEmfSua0Gu6fvYCFJUupXriOhVNT0NFD67nf8h8XboVs1uWaxqLi6ZgkPbhaOP7R0DnQm7eUxelqkO7s+CNvhTwp0UNTex8zi+4iM6WA+XOq1e9o9tdYWfEIi7NS0eHGfvktXm9T37OwZAWzU4yj/2yCMIHEHagCyDcbOXr2Y27pTaQkp5KaOBXzlFSSTSkkSj48rk7a2j/gw49e47VPTg0FqdzBQBWQb37Kh5dPMaC3kG62kJKYqh5XQiI+t4PrtkO8U/dr9l4MPZGMbAWrlqiP0QPQ6fUjvvpvRT8xnJs6jwfzpgYFY5pAtWwT356ZhZFUrGEeSxoclLY2H+ZddwGr5gc/wrQIXftufhguSCVSYBnq3Pk/827KAr49/29DjyGrk3f+cxd7A8Grf3/pFu2x+o/jj++r65U9zCMFWXhu/JnXRnis6rmp83jQYsUY+IxVa1hncXJu//DfWZjcDAb1UanFRTqKiyQKrBIpyWqNZDijCVQBfG6ZpKwSdAlTtE1j4um7ya1zb4/q8akBt5G4BzcpEZ5QNRodko5f6EzYRlGjGkugmpgoMbNQ97kFqapbnPvsOH3mIqzmLMzJqSQnmdC5Hdha9vLan9/nsnYTvwtJs7h/mgWdr42TB+tCHkMaWRyBKh7aWuo470ohPyOLlKR0zFNSMencyD2f8tHxX7L73LCwGpwDzJ5TqQbfjo/59cWhJEmXaSbLrTkYkbn62Vuax0mrk/9/cuUSieYCslPSSTYFrrNu5J4LnDz977zaMFT2IAJV4ctA2vj8g+NzxhTGQJ18n2FPlBK0Nqx7kXly8IMLhK+q3+6L0i0fRuqs+8i4+5vxzxGqQNep39Nz0X/TNQZP+GT+xXeb2HOg4fUD/6qbwm90oyup+rt1sQe1giAIX7Tot9bCHaQ+DnXY05qEUGWbmJdm46wIUoUx6rn4Pt3nDhJXIlOB7nMH4wpSAX6jM/GrUQaX4fxKZxp1kCoIgjDZiED1i1b3EvVyKStHOXn+V0cFm+8uxdkUoUZXEGJw69w7dJ36PZ6+m9qmqDx9N+k69XtunXtH2zQmP9dN4QXdFC6PYf7Ty+h5QTeFn+vGp5RBEARhIhNd/4IgTCpj6foPlphVTErRElIKl0SfqFVR6G09Tm/LcQZujP/MnEsVN3/jG+DrigtTlHSvjMSfpQT+S5fIsThG+Yuuf0EQJhMRqAqCMKnEG6gGJGYVY8oqIcFSgCE5E0OKOoedp7cTT18nLscVZHsTA53jH6BqLVHcLFI8lCoe5ihe0lGfgHALHZ9JeholA59IBo7HEaAGiEBVEITJRASqgiBMKuMVqH5ViUBVEITJRNSoCoIgCIIgCBOSCFQFQRAEQRCECUkEqoIgCIIgCMKEJAJVQRAEQRAEYUISgaogCIIgCIIwIYlAVRAEQRAEQZiQRKAqCIIgCIIgTEgiUBUE4StP0ulDXl84RVFfgiAIX3Fiwn9BECaV8ZrwP2FqEVNy5pAwdQZGczaGZAsAnj4Hbqcd183LyB2fMXCzRbvpuPN5vSg+Lz6vD8XnRfEHqZIkIen06PQ6///GH0SLCf8FQZhMRKAqCMKkEm+gmpQ9i+SCRUzJr0BnSNA2h/B5XNxua6Dvyif02y9qm+Pm83rxed14Pd7oGVRJQm/Qo9Mb4wpYRaAqCMJkIrr+BUH4ykgtqSZzyd+TMuOeqEEqgM6QQMqMe8hc8vekllRrm+Pi9bjxDAzgdXuiB6mo5QBet0fdxuPWtgqCIHwpjV9G1ZxD9by1LJlehCXJhCEQAnvdyL1NnG3az3tnO3BoNqNqCztLrNqlQ3xuPG4Hra2HOPBRA7bgtrJN7KgsxYSN+tdeYk9wW4C5hNWLH2RBTiGWROPgYo/LgcPewPunDlLfGbJFDEwsqHyUB4pLyQ7s09uD3XaIA3+p47x2dUEQxs1YM6rpZatInfsAkn7oPDAaitdNz/lD3Dr3jrZp1LwuFx63Gxjr6VfCYDSiT4gebGtNjoxqInnTSpiekYXZkIAucD1RfHjcThxdzVy63olTs9WXyzQWz59Pht5Dl+0wf72hbReErwb9gpXFP9YuHC1r+UaevG89d2dlkWw04nN10Onspq9fRpeYismUhTWvikUFetovNBESFxbcy4OWVAA8bjc+ny/0pTNiMKZgmVrO3dN9tF28RFdg26wK7rdmYcTJtVMfcS54v4BlzqP8YMU6yjIsmAx65NsddPV20+cFU2I65rSZ3FVyL7ONrdRfv6XZeiQmqldt41szCkg26JF7bXT1yeiSppKeXsr8GYnYzl8I/YyCIIybs+dHH9ylllSTXv5IXAOlJJ2epOxZKK7bDDhatc0x83rceFzxBKkqn8+HpJPQjfIzzZs7sTvSTOklVM5ayHRzKkl6PYpP5vZAP26PB3RGjEYTySnTyLMk4+vpoHts9y2TgJm8nBxMOh/9zstcu61tF4SvhrgzqpZ5m/jBolJMgNN+iLfrh2coraWP8sSipVj0IF/bzbPvNgw1BjKqrkYOvPkqR4I3BDV7ufz7PFpsxYBM64lnePm0vylCRjXqcZlzqF68kdUFORhwY2/6d3bVxTBoIvCevg5OfvhvvHFZVpebl7L54UcpTgTH5Z28cKRDu6UgCGG0tClcaB5+GkpKVLinQk9CYujy0WZUk7JnYanYgNGcrW0aE7fTjqNhz5hqVn1eL56BARTFp20aE0nSYUhMHFXN6kgZVZcLLl72ca1drURITFCYU6IjJ1tC0q58p6TNYVlhIck68A3YaGq7QGtvaJmDKX0m86eXkGYAn9zKic8+G95T96UgMqqCQPw1qhVsmK8Gg3L7W7x8cHiQCmBrfItfnmxEBkx5D/CdPO0akcic/HA3Z50AJqzTa7QrhFHBhnlRjsvZwZG/7OT1JhsejGTPXM+GGI5rXqYFoxdk+6GhIBXAeYxXmtVA15J1H8VDLYIgRODsBaMR8nIlrNOGXrk5OiTd8AB2tFIKK8ctSAUwmrNJKazULo6Jz+setyAVQFF8+Lzx16v2DygcP+mj4wbMLJKYXyoxZYrE6XMKV69p175TkrlrWr4apPa3cqrx02FBKoB86xLH29roV0BnslKSo11DEIQvk7i6/i1L/pZHctPB3cQH7+3jjEu7xhDZbiOveAlpXifdtz/ilN3fEOj693Zy4WwD4TvU+sgoqGZ2ihGd5zrvnr+gLh6h6z/4uN7bt29YSUCwzrbrWEuWkp2YSmpiG0cuayPaUPbWOt47/Wdqm69rm8BSzvI89XjaR/wsw21Y9yLfLuyktvk61aue48klMxkI2r561XM8ufxhHlywSn3NSBz6DkKsZevGzawLrLdgFctz1f2GV8Hmx7Zyf9qfOdqmbdMo28SObzzON4L2/WBZQchxBht2zAvmkR5SnqG+97dLRvos/n3MTx6xXZj8PF6FNptCmhnmz9WRnSkNvqZmSOj1w3N5o+n6T8qeRdq8h+Pq8g/HkJKFy9GCpy/2XJ7P6/XXpY4vRVHQ6fRIg4WckYXr+m+9qtB1CxaVS0zLkTCnSORmS/Q4FW71QG6WNFQneqdYyiibakaPzI22Bi4PaFcIMtCJPrWQdN0A/Z4ervX4V86q4P7Z85mR4iHBUs6CgrmU5BZTmJGEt/MGPQCJFmYXVlCeX8qsacUU5xYzIyuP3CQ33d29BF/G7pr7dRZMLybX2ExbT1ADQP69PDizjOJ0A5c6b6rLBt//Njd1+SyeuYC5eSUU5xZTnJVHTtIAN7v78Gh2Zc4sDVl3hiUNo6uXxDTR9S8IcZx6TKzMKwJAvnmMt6NWtXfwxt7tPLvnJV4/o20bX8ty1MFZ8s0GDmsbh2mh7qZ6sTFnLWGZtnkUqq1FmAB6W8KUMIygaguVpkbeeyeoHCJI9arnWJMLzfVPse21p9j2Wi32tBp2rls7bL2dG2ugKbCeuq4z93F2PraJcOOVN6x7nOJYxmJUbWFnZSnOkH0/Rb1cypqNW9gQsvJatm58kTWWFg4ErXug3ULlxhfZWhWyckRH3tlLs6lmVNsIk4vXIyHLkJIscSf6l5MyZ0Yc3V+Wpeflb6RwYnM6jU9mcGJzOi9/I4WyrMiBrc6QQFLmTO3iiBRf5CmoKubO5Pe7ttP74Zt4639H74dv8vtd26mYG+V9FEXd9xi53dBxA/KnQVrq0I+g18Gich33VEgYDCGb3BGFlqkkAPTbudCtbR3u8sXDvHe2jr+2DV/ZMGUWhSkmfC4nfS4XuHtoA0grZMmsxRSmJmOQXPTLTvr6ZdCZSLHMZ8ncOWRqdzYWCTNZPD2fZN0AfbKTPpcH9CZSLHezZEboO2Tm38uS6fkkG3T4XH30yX34jJkUFs7BfAf+JgRhsokjUC3HYgJw43CED7LGTyklaSYAnD2N2kaNCqwp6qheZ+8xbWNYzfYOZIDEqUSYf2BEltxy1q36IatzTeBzcLbxkHaVEaxla4kV+5VwtbkAFZRaTMjte3llMBW5n11NNkhbyuYy/6KyTazMNWFveopddUNbw3521TciJ5SyclVF0HI1mKxMC1oUwYYsK3TXavYNe/bVYsfKvKB9b1hXQ3aYeuMj7zxDfTdkl2gD20gaeOWKjeyC8IG2MPn1u8DjU0CCYw0Kf6718Zc6H5fbFLzj0ENuzMjXLhpUlqVn93ozK2YYSTKoEUGSQWLFDCO715ujBquR9h2OL8IHqpg7kyOv/pRH7qvElKgG1qbEBB65r5Ijr/40arAaad/RyP0Kcr+C2Sxxxabwl6M+/lzr42i9D0dX3GO+YmQk1ahGw66BG+r5OB466Hcc4y/nPuLouVr+0tSmlhbkzlJrW/vbOHO+lg8++4ij5z/gvZbP6PaALqmQuzSB5FgYEpKht5GPT3/A0c8+4ui5w5xw9AGQkFJAYWBF8xxmW8zo8NBrP8Z75+o4+lkdfzn/V9pdhqHZcwThKyyOP4NszAkAHvrVv787wETx7Bq+t34jc02Az8b5803alTQsJBkAZJzDb7TDO9fhn+bEgiUQ/MWknM1/9yLbV21kWa4Fg8/B2WMv8Xq0QwyomkU2Nlo1AeCQBl558yme1WZbu3pCTuQbZpdicjVyPNx+zjVwtml30D7WsnWjP5isV+uGI6vw35CEs59drwUdX9km5qUxYuC950btsEFvUdVdxJ5QyhKRVf1Sun1bweuRuNyqkDkV5pdKmFPgYrPC+YtKpARkTBLSRi48f7LSNBigaiUZJJ6sHPEfPkTZdziRsp4/2vToYICqZUpM4EebHtUuDhFp39G43OD1SjReVLjc6mNmAZTOkfAq8MlpLzcccf4IMckk0Z+1dXtiL6cYkeKk44rmApBRTKZJB4qTdlsj7cGlBd2tHL/hwAckmIsoCWoaGyf2traQ6bM6r3TSB6BPJMW/zDI1m2QJuH2Fk9eCjnfAwRmbjf6hJYLwlRVHoBpF2SZ2bHyRnWFeO0Kye34JpawZtu5zbL53LXPNRkDG9tle9kQt7DdhDHyqsScZYmTC3d+BvcuGY8ANOgvz7n2W7TXlqA9jjEzNVF4cXeAGVOcXYcKB4xyDgaTsaAgbHEIDe+qCA101uNwWdoaFcBpodMiQVsPOYd38GhmpmCIF3nX7R/1ZYT+t3ZCdFVrqIHw59LsgIUGtjSwuVOsjF92tY0aBhO26ws2usQdJkk6PLmGKdvGgZfmR+7OjtUfa9zCKMvhY1HAevOdu7aIQ0doj7TuawNguvR6WVOgonK4jf5rE0gU6kqdINLeCR1tU+bmbw7IFX+fBcK+5c7Qrg0dW61GDpSSrpQWuW1wKV6rWcV2d6kqXQnq8SVXPbQJls0N6cGnuJ6YlqjdD/f2tw5MGzg7CjCUThK+cOAJVJ7IbwIBBM30MAIqM7HbjCX5FCRxD1vW/5F4brVcPcuCdn/Kz4zFMH4UNpwvAhDlD2zaCUgtmgMHgL1bH+PW+nez6w0u88Nvt/PpsEzJGLIWPsiFqZnYthWkgyyGPMIjBWpbkmoICXKs/s33nHHnnGQ60y4CVygg3HNUpsYTno9chy2DKEd3/X0Iz8iVqlulCaiMlICcL9HqFW7fGHoAJo5M5FUxJQ79DQgLk5Ejc7lOQ73hqrwe3P4jT65O1jYAXRTvHdqTriXeAds2iXH+hrccd2iM15Jb/GAzoxvZMiCGefrUmNhoJwMdA2EF2jmGBrSB8FcURqB7DfhvAiMVSqm2Ext288MZ2ng56vW0Pf3oAwNXI25r1n35jO8/+7iVefu8QR9ojbBuiAZv/NtScEiZzG4bFMlUdBOXqIZ7ZT89/8h+ccLgBE3nWcm1zqLIczICzdzT1vRVsfqyGbGzU79uvbbyjjrzzjH9g1G6a/cNiTbmPq1nvqEF5fI70OiAhFTELzZeTL0wsmpggYdBLyAPhu+Zjofi8+FwjD5U+2hY5TRitPdK+h5EkJGnkz/Lux6e0i0JEa4+072iMRnWe1KSE4fvQAQqRs8Hjo49bLvX7TkqYpp6PQzTx0elDvBf86gqXFh0PPuKopBAEYZzFEajKNDjUsM6cXTWhsl1HO9QspWnqUlarqdIIiliTqw6hctrrYuwOH4mMw3+yRRe523D0Ktj82OMUJ2gfbhDIIH9e1LrZba89xbb6RmRMFM9Wu+WP9I5DbdmIRls/LEx0Hq9C/Ukf9Q0+3J7QQEjuVyegNweK+cbI1T1yrdDL9TL9mvcN6PcovFwf+eY40r7DiTRF1k9efQt5IPwfsjzg4ievvqVdHCLSvqNJTARjAvTdHj5wyutR0OsljMbhQex4a3X2qNVapixmRj1vj167v37BYEwNEwgTVCfr+xzKxvwUAB2JxnApXCO6O/+1C8KEF0egCs1HDqnZtYRSVq5aGlNd5ufBcfwQ52XAWMK9yyIf19yq9cxN8Q/Uaow2owCse/gFnn/iRbZXh8vv5TA9WT0FetzDKqTiMFKQCtCAQwaTpWLEm4UN614ccYqquJx7lbPdDHXLd/UgY6VwpIFP/rrlsU03NdqyDGGiM+glLOnQ06uoo8v9FAWuXlcwGCHTEt+V2t01cgfsuRteHt/r5PBl92DA2u9ROHzZzeN7nZy7ETmtFmnf4ej0I59uG85fonrTD/nD+/WDAas84OIP79dTvemHNJy/pN0kRKR9R5OUCJZ0uHFTods5FKnK/QrXb6g3Cwl3uLwIgI5G2vt9IJnJtY7TNFHBevvUOVIT0sMHwjlZmHVq2VqPfzrtXn9wazQMv4qUJIUrURid6/6RyEnJJcOvU4mFpHwe37sgTHBjP7uBOlDnjP+JU7mP8oNH1rMs3Nkl08qK5VtYmR3+Pnb8NfLrsw04vf7jWruWymHHlcqy+7fx3RKr+gjVS7EM1IIzTgcGHVgKHmdDyOw0JpbVbGSeGfDGMDuBf6aB6OUJkYJU1Z4L6hRUYUfG+0fijzzYKopYgku5Q923P3AdaTqpDbPVx92OONhqBNUplrjLMoSJyTpNwmRSn4DUdMnH9Q6Fv57yca1doahAR8ooxiuF0995CZ8nfKYSf7D65J96WfjKLUpf7mLhK7d48k+9UYNUn8dFf2fk4FFL0ukhQhd9w/lLfHPrC6Qsfwx95bdIWf4Y39z6QtQgFUmKK6MqSVA4XT2uT04rNLcqtF1X+OtpBY8HSook4oiDR6GPT6+30edTp4m6u6yC2elhMo2JyeRNr+BrGeGizQi6mumUA4FwKbnBYyvSClmSZUEHeHqvEHjEiNOtjohKSC6iMGh9c04F+cnxfymO9uv0+oBEK3MLLEGZ3jTumlFEysj/XAThKyOuJ1MByPYGTvenMDu7gPSUAubOXsX9pQtYOHMpy+Z8jZUVa1lTupwSSypGCeSuY7x/5hCXAwnHmJ5MNYIRnkwFwI0znB1Ip2zadFKTi7irZAXL51SwuGQpy+Z9nTWLV1GWnoLOJ2M7/0v+98exDNSCrlYb6TMqsJrSsc5YxfKSeSye9TVWLnqEuy0p6Oih+dTPeb1p2JBPjQtYZ6yi0OgIefJSYckKZptuDX4XG9ZtZV7yyEEqADca8OVWs7DgYe5OCX7K1Fq2fqOSdFcj7+z74/Dv1v/9uRwRnkx1o4GsGauYnVfNTPdhPgl+3nTZJr49M4UrZ/59cPm584ncvaiShZqnVlWveo77M43Ym3bwahv+51iXY/G0RH3y1JL5D2P1fMqrUdYTJh+DQSInU6J/QOHqdYWOG+pE82WzJabnhn8IwGieTOXpc5BgziIhfSwzJI/s9pVP6Ln4vnZxRJJOB4oPJeIooNHTGw3ojbGn3sI9mSopUf0devvgWruPG52QbJIov0si7fOcdX7gJm39HizJFqYkJJOePoPirDxyM6zkZ+ZTNG0us7ILyUmegkECn8vBVft5NQAFSJ7GjNQp6DzdQ0+LGuTmhsdLpjkTU0IaOZn5WNOnMT1rBrMzczHpwTdg42LrJXr89ylyv5GcqRYS9FOYGlg/ZzYz01Og34nbkIg++L0ivr+ZvJwcTDoXzvar3ADwdnFTSSPPnEySKY+CzFxyMwqYaZ1BulHB55OQJPFkKuGrTdr4/IOxn/UjSqWyYjVLZpRiNaViCNzg+9x43A5sNxo482nd8EFRVVvYWWKFMJPER1W2iR2VapZuxEDOnEP1vLUsKSzBYjQOTqDscTnoaK/j6Jla6iM/NTWMVJYt38jKfCvmBP8dv8+N7Gyk/tRbHLgcubZtUNUWdpYQcuzVq55Tn+r05qscGfx84Q2b4D/M+nJ78ByqGv71ndr9hBP4nYJF+M02rNM+UED7GwUyxcHrDBn6bOq8r8RyjMJXwm/3Rc52aiVlz8JSsQGjOVvbNCZupx1Hwx767Re1TVH5vF48AwMogTmh4iRJOgyJiej0sWdU/25d7Ot+cYxYsmcyMyMbc6JpaOJ7xYfPN4Asd2J3XKLJoUkIZFVwvzUTQ38r757/LLQtINHCbGsp1pTkwf36vDK3u5s4e+V6yNynoGZbF06bgSUxQa0Z9bno673MhUtJzF5QSHLwe0V8/2ksnj+fDL2Tayc/4tOgFtPUEubnFJCW4B/b4JXp7b5A75S7yU3y0GU7zF+DkwSC8BUyjoGqMHoiCIuqags7C3pGDIiFr57RBqoAqSXVZCxcr108Jl0n9tLTNPZ/jV6PG8+Aa/jIpVGTMCQmoDeE6R6PYHIEqoIgCKrhfUDC50h9HOpINZ1CBZsLIj1iVhBi09N0hO5PD6J4w81XGRvF66b704NxBakAeoMRg9EYmERzjCQMRuOog1RBEITJRgSqX7S6l6iXS1kZ7mldX3HVq9ZTLNeKbLMwLm6de4dbp/fjlWN9tvIQr9zNrdP7uXXuHW3TmOgTEjAkJiBJoz8Fq939Ceg/l6H4giAIXyzR9S8IwqQylq7/YEnZs0guWMSU/Ap0hsjBns/j4nZbA31XPhlTTWo0Pq8Xn9eN1+NV5+WKRJLQG/To9MZR1aRqia5/QRAmExGoCoIwqcQbqAYkTi3ClDOHhKkzMJqzMSSrM1l6+hy4nXZcNy9zu+MzXDdjmxEkHj6vV32SlteH4vMOPglK8k89pdPr/P8bf5ApAlVBECYTEagKgjCpjFeg+lUlAlVBECaT0RdICYIgCIIgCMLnQASqgiAIgiAIwoQkAlVBEARBEARhQhKBqiAIgiAIgjAhiUBVEARBEARBmJBEoCoIgiAIgiBMSCJQFQRBEARBECYkEagKgiBMMDpJj04S850KgiCICf8FQZhUxmvC/4LcWxRNu0VeZg+W1NtkpMoAdPWYcPRM4VpnKi3X07nSnq7ddNzlpc0gN7WQqSl5TJ2SQ6JxCgAD7tvcvN3Bzd5rtPe0cq37snbTURMT/guCMJmIQFUQhEkl3kC1IPcWC2Zd5+5Z7UhS5NOfokicupjLyYvT7kjAmpc2k9nZCyiaehdGvVHbHMLtddNy81Mu2E9yrfuStjlmIlAVBGEy0S9YWfxj7UJBEISJ6uz5yMFlJEvvamNl5SVm5HUhSdrW4SQJcqf2UjjtFhJgu5GmXWXM5k27h4qC+7Gmz0Svix486nV6pibnkm2ejg4Je+9V7SoxmTdXVHwJgjB5jF9G1ZxD9by1LJlehCXJhCFwLvS6kXubONu0n/fOduDQbEbVFnaWWLVLh/jceNwOWlsPceCjBmzBbWWb2FFZigkb9a+9xJ7gtgBzCasXP8iCnEIsiUMZC4/LgcPewPunDlLfGbLFGJioXvVD1uSasDc9xa46bbsgCONlrBnV+xZepnphS9Qs6kgUReLIiSLePzFD2zRqFfk1LCpYoV08Kp9cOUxDW612cVSTI6OaSmXFapbMKMVqSsUQOGSfG7nfRnPzId5raAy9HgCwlq0ba8jWLg7icffguNnA0U/2czTk3B/YVqa5/hleORfcFmBiwcK1VM0sxTolNeg6J+PsuciZc79nX1OPZptRMi9l85pHKZZr2bZvv7Y1vMA2CRGuhYIwSY1LRtVavpEn71vP3VlZJBuN+FwddDq76euX0SWmYjJlYc2rYlGBnvYLTYScGwru5UFLKgAetxufzxf60hkxGFOwTC3n7uk+2i5eoiuwbVYF91uzMOLk2qmP0J5XLHMe5Qcr1lGWYcFk0CPf7qCrt5s+L5gS0zGnzeSuknuZbWyl/votzdaxK773v/NooQUd0Of4M0fbtGsIgjBexpJRXXpXGysWXxpzkIo/u1qY282AyxBXZjWQSY13sFS2eToer2vUmdWJnlG1zHiIf3zoe9yTN530hER8HgedPQ76+mV8BhPJSVPJzqlg8ews3G1naHUFbz2HZQuKSEZNkni8musJegyGRJJTiphbNIdEx3EuOLXbeui6dphPbgTvFzCX8901/8zKggLSExLRuR3Y/celS0wneUoO+QU13JPnwt7UEnqdi1kRG77xBPOS9TDQwrvnL2hXCCOHDav/X8xL0cMI10JBmMzizqha5m3iB4tKMQFO+yHerh+eobSWPsoTi5Zi0YN8bTfPvtsw1BjIqLoaOfDmqxwJ3hDUO9jl3+fRYisGZFpPPMPLp/1NETKqUY/LnEP14o2sLsjBgBt707+zq64laIUY5a9l6301ZPuvOSKjKgix8XgVTpxR6IpwjzhrpsSMgtA++tFmVAtyb/E31Y1kmNXBUvHqcpr4ryOlY6pZzUubSc3s9SQnqDfn8epz9VB7Ye+oalZHyqh23VJovKjQ26f+//R0KJulIyVZu+YdFHQ+9TiP8fbR/RxpD/3dLDMe4LGlD1GYCJ6uWn71h/00D7ZGz4paZqzne1VV6nvY9/L0wcAJO8K25qVsfvhRihMBuYmjDbs1mVMTxfPWsmGBep3zdNfy+r79nA9aIypzOd998DvMM/t7/rpjy6jOrdrCd0usGADCXAsFYbKL89a6gg3z1WBQbn+Llw8OD1IBbI1v8cuTjciAKe8BvpOnXSMSmZMf7uasE8CEdXqNdoUwKtgwL8pxOTs48pedvN5kw4OR7Jnr2TCq4wIo4juVVWTre7B3j89FUBC+KnQ6icypEtZp2hckJSpIkjIuQdKCWdfHLUgFyDDLLJh1Xbs4JiVZ5eMWpAIkJ6RSklWuXTxqji6Fv57y4fEozCmBOSXQLyvUn/TR0xtXLmMUctiwyB9Adtfy+t63hgWpAI7Lh3i5rg6HDwwZS1k9yo/vuLyX31/pAMCQUc5q7QphVN+zWg1SBxo5cPAXYbr3ZZrPvsUL79di94IhrYo1VTmadUZiYkHlJrb/zUY1SPW6tSuMLH8962ZaMQzYsIdklgXhyyOurn/Lkr/lkdx0cDfxwXv7OBPhD0W228grXkKa10n37Y84Zfc3BLr+vZ1cONtAq2Y7VR8ZBdXMTjGi81wf6g4Zoes/+Lje27cvYjdIZ9t1rCVLyU5MJTWxjSOXtRHtyCpXPMnKrBQcrb/kY6WC2SnGMXX9b1j3It8u7KS2OfjiV8Hmx7by7UWreHBB4FXNTHdol9SGdS/yD0uD1xl6Lc/V7lNVveo5nlz+cNC680gP6S7yv3dJ4shdT1Vb2Lni4WHHQ/AxzRjaPvQ9Qz9H9arneHJ+8sjvJXwpSRJkpElkZ4a+khLh6jUonqHHmiOBZtDTaLr+C3JvseqeppgGTo1GjqWPlusZdPcmaZtGlG3OZ0nRqpgGTo1GmimTa92X6XNpg6fwwnX9N7cqDLgkKhfqyJqqIz1VYqpFx7V2BQXIsozzFxhOyd/yrVl5JOLg3NFXeS/Sx+lpJMFaTZGhh64+G59cDaTlo3Tf+3Ull7LcmoVRL9M5eO4bYVvzQ6xbXEqqJNN6Zhf/v0jn954LOCyVLExPIdlk5tanp7imXUer7B/4/oJSUnUgdx5iz2ceSvKyMEbt+i/le6vXkZ/g4OyRQ/gKyrHox9L1v5atG7/LfPdhPsnaxI5vPM7ilPDXsQ3rXuQfFhYwMOxavZatGzezLsw1CgLXi78ddo3SXg8iXc9GvK5F3Lf/VVaA1bqe7yx/ePj2MHT8ZepnKxTXpAll+BkrZiZW5hUBIN88xtuDdT4j6eCNvdt5ds9LvH5G2za+luWog7Pkmw0c1jYO00LdTXWIlzlrCcu0zSOwzNvEmnwLOOvYVzuGkoGAqi1Umhp57x1NOcTGx8lz7Gbba08Nvg60Q3Hli+xYVRG8B7VsImi9ba89xbb6Rsh9XLPuWrZufJE1lpaQ9Q+0W6jc+CJbq4JWHaPqVc9RmQZy++7BbqvqVc+xJtdBfcjn2MIG/zZH3tlLs6lmXN5fmNzcbmi8oJBihvxpDAtSR6to2q2Idak5lvl8q+ZXbH3sItufaGPrYxf5Vs2vyLHM164aQpIUiqZFqFkIY3p6ccQpqKbnJbDp77PZ9eMCfvbTQnb9uIBNf5/N9LwE7aohjHoj09OLtYtHRVEkTIlgDDq8BAPodQoed5w/Qoyqi2dhBug+zYEwQZLW4YPP8PRvd/LKx3Gcf2MxtwSrDnC1cCZQdhbB+QsX1UHDpiIqSrWt4biR5RZOHt/Bs388yEmftj0cE9WrHmWuyY2jeTevx/B9jWTDuhrM7XvDlknErGoW2S4bdpeJ4tlrta1+Ms31muvUa09R320avB7s2Rfctptml78EImj9Z4OvlQB1L4W0H2iX/SUQQft681X+451nqO8GU+56NpeF7mLDuhqysVHvLz8U16SJJY5AtRyLCcCNw6H5hzPuSilJMwHg7GnUNmpUYE1Rz7bO3mPaxrCa7R3IAIlTiTD/wBDzUrW0wGujvn7v6OqQQqxla4kV+5Wg2tyyTewosWJvGv4HeeSdZzjQLmPKrRkM8kZ07lXea5cxWSqo9i/asK6G7DC1wEf8f8DZJUPB41ioAakJuX130LGvZUmuCbm9drBu6sg7e2l2WZk3GEQ38MoVG9kFmwaPVfhqunpdoadXoaRQwqAW3cUlL3PktFyOZT5PrNrLrPyvYzComVGDIYlZ+V/niVV7owarkfYdTra5QLto0PS8BP7lH3OZX2rCaFQDQ6NRYn6piX/5x9yowWqkfcci0wLdTrhyVcHrA68XrlxTGBiQyI00hH7cmJiePHSOHzY7zDirnGbFBCB3cFHbqFFt8Xfhyx1hxlCEca2JLhdAKmaLtjGMc6/xwlv/xhuNsf97ssx7nJW5qXi669j3YRyBetUWKtNsnNUGf6O0IcsK8kWOO2RImzWq68iefbXYCb4e3Dnqe5kovjvoWlO1hco0sDcF1/aKa9JEEkegmo05AcBDv7/4fvyZKJ5dw/fWb2SuCfDZOH++SbuShoUkA4CMs1vbNoJzHagJYQsWzZ3WcCbW1HyT4kQ39ubd7InjTpaqWWRjozVo8FV1fhEmVyPHRxiQdaStBbm7h46ox+mXkEoOagA8L43QoDjInhu1cRXhhw9SgbIczMhcaws+ETbQ6AgNoqm7iD2hlCXiDvYrS+5XA6XsLImM9PHJ4llSb2sXDVpe/i+DAaqWwZDE8vJ/0S4OEWnfWjpJT7ppqnbxoNUr0gcDVC2jUWL1isgDtyLtOxbTsiXuvkvicqvCe0d8vPeBj5YrPhbMlz6fbn9KMSeq/yUPRDvHj50lt5zVK7fxzempgBu77RAntStppCaod0yyHKhXi6YBh7+01pxyB4Iv8wM8sUBNlJw4PsoBWxobsqzQfXHM530Iurbc2K9en7BSOKrzuA2nC0ymmNJEcdrPriYbJJSyclXFYGJIbt89fBC0uCZNGHEEqlGUbWLHxhfZGeY1rOsaIKGUNcPWfY7N965lrtkIyNg+28ueqAU/JoyBTxVTF8rozK36PsssRjw33ubXH6kF+WM1/CRRQanFhOxoCBtMgpopfXbfqxyJoZsmx2QCVw8dABmpmDRBcYi6/WM/WVVtCR+kEnhfB45wxxsIogHYT2s3ZGeN1G0kfNnduKngcivkT5PGraY08FjUcGZMi5wridYead/DKZiTMrQLB80tCR8wB0Rrj7TvWHR0Kpw+p5CcLHHXHB1zSiAhQa0HvhXrDf8dpZYtaa8lOze+yM514c4ZJoorh6+7fdVGVkzPwQDIjvc5UBf9HG6SAvUQoxjkdMcUsWHlA1j1Mq2f/iKG62Ekayn0B5jxqM4vGrq2nGvgmmu053Er5gSQ5eGz4t4RdS/5eyYfZ2dlKSaXpvRukLgmTRRxBKpOZDeAAYP/TjiEIiO73XiCX1ECx5B1/S+510br1YMceOen/Ox4LF0c6t0ZmDDHeu4utai1USMFVAH5a1kzw4rB1cjbH9TG2T2lniRC/zjVP9hx4e/OCAS91Smx9EGNQX7ggQ3arOnodcgymHJEV8tXkMcD1zrAbNaRah6nKFWIicsNTS0KGelQuUCHdRoUTtexrFJPcjI0XvThvuMxmg3ZPxjXYAw3Wt6DW3t9iDZLmXf49cQz0IHdfpqjn+zkZ/sPxpSN7BhQb0hiz/iVY/HfVzh74zsnas2tWs/CNCNy+37ePDGaG6UwqmaRjYxzcGLysVCTK0MJF7W3jLSlw+pARxKoD423/GA01PIz1LrZU+F7GRHXpAkjjkD1GPbbAEYsljAV4427eeGN7Twd9HrbHuEPy9XI25r1n35jO8/+7iVefu9Q2GlKwmvA1queVWPtdrFYpqr1SoHs40gKZqnzpSaUsmZ96J36mly1viq7RP3/YbPGwcpyMMd6IqvaMiwzELL/cNnoEepcx5eJ4lwrcnstza6hgvixOtLr0GRZha+KvtvQ6/SRk8m41KYGdPWof5fhXL4+0uVJFa090r6Hk3D2jxwRnG/q1y4KEa090r6juX0bbveBNTe0LthggGk5Om73K8j9Iw9IGx8dtPSq53iLuYLht9UH+Zn2+nA5UgZOprlh+PXk6d/uZNfB19gX7imJIzji8F8VYg1YzIX+MoZ4g8Dh5mep86Wach9le8g5/3GKEwCsVG58Ue2NjBIoqsmLKMmZaMoqyEsIzcoeeecYdkzk5WuvgeGz3JVpX8Dcr1U1/u8r3HEOEdekiSGOQFWmwf8HbM6uiu0P+HNytEM9gZmmLmW1miqNoIg1ueqdstNeN+KdFahzr9q7bGFfjgE1OPbc9i/rib0wfkggG6wRMqqxlmGVUuFG/b8W+uCBI72xnpZHR+3u388rpxqRsVIZthtuNGKpExa+bLq6FSQdTI21FyRGjp4p2kWDPjz9r3g84QNAj6efD0//q3ZxiEj71vIpXm7JN7WLB719+BZud/hg0O1WePtw5BkGIu17sjhy3YYHIL2UlaOe0/oOOt+EzQckFDF/YfSbk7mLytVHuMoXaYgnCAzjZvfwa4/66kD24Q+Obdi7WnAMaLceJ0GDyjbMVucrDyRo1Jf6CNuQMQjqhiGj/tXR+dpBTJ8HdRAzrkbq2+WwswCEEtekL1ocgSo0Hzmkps8TSlm5ammYu+AvhuP4Ic7LgLGEe5dFPq65VeuZm+IfqNUYZUaB07vZ9YeXwr6OdnkAcFxT///LH41lQIBahD/8D3wcdPVELnL31xSPbjqOoO5+/ywDpNWEZnu7epBH+kMPm8GO8w5fmHwUcPYqmJIkTEnj2+1/rXPkyfU7HGf4zTvrudj258GA1ePp52Lbn/nNO+vpcESeRy/SvsOxO69oFw26es3Fv/6ynTON8mDA6nYrnGmU+ddftnP1Wrg72CGR9h3NlCkwJRnarit41NMY+Msxrnf4SEqSSBrn3yWs03s50e0GnZWFS9YyV9v+RXEe5KjNAZgonPM41ZGSH/lrWTPd4h+o9Tb12vY4Hf7L8GuP+jrENQ+Ag/N/eIldf3iVPUOP64rd4MDicCr8M/0E+MvX2kOnUdz22lNsa7JBQhGl4c77fkOzzUTP/o4ntdRA7fLf885etTcweBaAYcQ16YsWV6AKDew543/iVO6j/OCR9SzL1K4DZFpZsXwLK7Oj342Oj0Z+fbYBp9d/XGvXUjnsuFJZdv82/6Pn3NgvxTJQaxz5Twja8oQ9FxqR78RIw3OvcrabEafbUO+MIwy2ikHgxBNyh3quA+ew7pXwg8aqUywjBK/Cl5nHpyD3Q1KihH4cu/0BWq6noygjB1kdjjP8rva/sevNWbzwm3x2vTmL39X+t6hBqqJItFyPPBJf6+qtZtwRnjp09ZqLV//TztYfX+EHP2xl64+v8Op/2qMGqW6vm6u3xhKVqBKMMKNAortb4fgJH1dsCrbrUH/SR3e3QkmRRMLI07+Oow72fFLnf7JTDd/91ibWzAhzzTDnULlkE9tnxFozGr/6wwc5e9sNiaWsWfPPbCgZfpNiLX2U7YHHv3bXxTRQ64uk9rJpkwhqr572uqRSx1AMdvP7a1zDjk2ou6hOAzXinKqqsNNF3UmDU1EFHpHboPYGBmYB0BDXpIkhzkAVHGdf5Wcf12F3gSmjinUPv8jzf7eNrY9sYesj2/jRYy+w8+EtrC62YtKB3HWM98+F+Yc93s7t5uX6Yzi8YLLUsOGhF9ixwX9c33qW5594lnUFORh8MrbGf2dXXSwDtcaTOqJwWIH+uVd5tsmmdqVou9Grtvi7VcZWeL5nXy32hFLWPBZ6UghM0j8eXTCDJ57BetX9HNd0r1SvWk9xwvDPkGMyxT5XofCl4fNI9PcrGI2gGzmmHJMr7emcupirXRy3UxdzudI+ukDV7mzjUmfkAHgsLnWewe6MZ548yMuWWFSuPjHr/EWFTz/zodNJLL5bR07mOP8okbTtZ9f7+2nudWNIKaW6+jl2PvZD//VkC9v/7gWeX7eNDaWlWPTg6W3iaOMh7V7ugAZef/sNzjrdkFBEZdWzPD94XNvY8fcv8oMlS7Ho1adLvb4vvmmjPhf+YDJ00LE6f6gp93FN71oFmx9T5+FWp06sYHOBFVwtNIbNNqrXt+hzqmqmi7qT/FNR0V0bOhVVYM7xYZ9ZXJMmirgDVQDHZ3vZ9eYO9pw5RmtvDxhyyM6wkp2Rg9kAnoEO/8j9Z3j2D29xOL5zaswcn73FC/+1kwMXGrG7wZjkP66UVPA4sF3Zz56Dz8Q4m8D423PDFv4Pue4l9akcppqwA6S2jbnwfD+7XnuKejl08FXgqVHD5pFL07y//6X9Yw61n131/nrVjWqwqj6oQH2qlvp+0Fyv/QzjM1WKMPkkJEL1vXrml96ZgOjkxWl0OcNk5saoy2ni5MVp2sUxabpxOuZHncaiz9VD040YHpcUjQSWDFhWqePrNepraYV/Pts787OMrK2WV363g1c+qaW5y4Gst/ivJ1YsRsDjwN5ex+G6HTz9u1+w77NYB9rGyXma1/f6j6u7BwaPKwcTMs7OYxyuU58uNeGDVBh5+qW6l9hW34g5pO70cYrlWrYFHhbjH0Sl7RULtueGDSKVmwXUveTviRseKI6ftWytVHsN6/1PTAwWmAUgtAxBXJMmCmnj8w+Gr+AXPgdr2bqxBprCBIlfNVVb2FnQM+ypWYKg9dt90eYlGm7pXW18fWlTxMepxkJRJP58rIRjn+Zrm2I2b9o9VBY9iEEXX3+6x+emvuVdzl7/WNsU0d+tUzOngkDVFnaW8PmPup8MxDVpwhiXjKowVmq3x0h1o18dajfSSE/NEoR4Hfs0nyMniiLWq0ajKBJHThTFFaQCnL3+MaeufqBdPGqnrn4w6iBVEELUvUR99+fz+NLJRVyTJhIRqH7R6l6iXv4c6nMmsOpV6ymWNXVDgjDO3j8xgz8fKxlTGUCX08Sfj5Xw/okZ2qYxaWir5aNLf+KW3KltiuqW3MlHl/5EQ1uttkkQRm3PvlqcUado+moR16SJRXT9C4IwqYyl6z9YQe4tFsy6zt2z2qOWAiiKxKmLuZy8OG3Ug6dikZc2k9nZCyiaehdGfeRSALfXTcvNT7lgP8m17kva5piJrn9BECYTEagKgjCpxBuoBhTk3qJo2i3yMnuwpN4mI1UdlNPVY8LRM4Vrnam0XE+/IwGqVl7aDHJTC5maksfUKTkkGtWHCQy4b3Pzdgc3e6/R3tPKte7L2k1HTQSqgiBMJiJQFQRhUhmvQPWrSgSqgiBMJqJGVRAEQRAEQZiQRKAqCIIgCIIgTEgiUBUEQRAEQRAmJBGoCoIgCIIgCBOSCFQFQRAEQRCECUkEqoIgCIIgCMKEJAJVQRAEQRAEYUISgaogCAIAiv/1xUvQJ5KgT9QuFgRB+MoRE/4LgjCpjNeE/z6fF8Xrxef1ofh8KIoPAEnSIel06PQ6JL0ene7OT5Cfm1pIXtoMslKmk5mSS5IxGYB+dx+dve3c6L3Kte7LtPe0ajcdNTHhvyAIk4kIVAVBmFTiDVR9Xi8+jwevxxNDBlVCbzCgMxjQ6cc/wLOmF1OSNZ8CSylJBpO2OUS/R+aKo5GmG2ew3WrWNsdMBKqCIEwmoutfEISvDK/bhWegH6/HHUOQCqDg9bjVbdwubWNc5uXdw9eKH2F2dkXUIBUgyWBidnYFXyt+hHl592ibBUEQvpTGL6OamExh9hys5nRMRgM6yb/c58PjcmB3fMYlex+yZrMvlzksW1BIMk6unfyIT7XNgiDEbawZVa/LhSfOYNNgTECfkKBdPGoV+TVU5K9ACpwnR0lRoKHtMA1ttdqmqCZHRjWVyorVLJlRitWUiiFwyD43cr+N5uZDvNfQiE2zFaxl68YasrWLg3jcPThuNnD0k/0c7QxuCWwr01z/DK+cC24LMLFg4VqqZpZinZKKIZDq8co4ey5y5tzv2dfUo9lmlMxL2bzmUYrlWrbt269tVd27hZ2zrdqlQ7ojbCsIk8y4ZFTNOXfztTlVzJ6aSXKCAbx99MlO+uQ+POgwJGWSl1fFPbNLyNRuLAiCcId53fEHqQAetyvuzOq8vHviClIBJAkq8ld8KTOrlhkP8YPHnmXD/KUUpqSC14G9y4a9qwOnB0xTipg3fxNPbnicarN26yBeNx635uUFgzGV7Nwa1j34z6zJ024Ugbmc765/lu+Uq8dl8Awdl4wJc0Y5y6qe5UcP1TBXu23Mitiw8psUR7kXqk61qP8R7jO63XjcHu0mgjBpxZ1RNWVXcE9eJgbA1XeJi1ebuKZJm5oz72JBnpUkHXicZ/hL8/XQFb40REZVEEbr9m0436Rws8uHokikpUrMngkZaRKECeZGm1H1eb14BgYGB0vFS5J0GBITx1Szak0v5mvFj2BOytA2jYmzv4sPmv8wqprVaBlVRYFzFxR8PphfOvwH6Lql0HhRobdPDZit02DWTB1Gg3bNMchfy9b7asjWg8d5jLeP7udIe+gFxTLjAR5b+hCFieDpquVXf9jP0KePnhW1zFjP96qq1Pew7+Xpg3X+lgjbmpey+eFHKU4E5CaONuzWZE5NFM9by4YFS7HowdNdy+v79nM+aI2ozOV898HvMM9sVP//iFnRHL77rW3MS5Fp/uQZXjmrbReEL5c4M6rTuCtHDVI9vZ9y/OLwIBXA2fkpf23vxAMYzDOZH+kuWBCErwxnLxw74eNml8J0q8T8Ugm9XuGvJxU6OuO6hx7k83jGLUgFUBQfPs/YMlYlWfPHLUgFMCdlUJI1X7t4zLw+uNCsYLse/rt3dCn89ZQPSYK75uiYbgXbdTj1qQ+PN/w2scthwyJ/ANldy+t73xoWpAI4Lh/i5bo6HD4wZCxldbl2jcgcl/fy+ysdABgyylmtXSGM6ntWq0HqQCMHDv4iTPe+TPPZt3jh/VrsXjCkVbGmKkezzkhMLKjcxPa/2agGqV63dgWNUsyJAA4cIkgVvgLiyqiapi9leWYa+Bxc/uyvNA1o1wiWzPzSe8mU+nDc/IhT6nmCwpIVzE6BLnszpM8iI0EHiof+7kY+aFEzr6b0mczNLcCSmKDWvio+PG4nnfaTnOkMftNpLJ4/nwy9hy7bYf56I6hp8L0MeHrP8Jcmdd+D72+ro8NUQUm6ebDuyOPqprOjgTM3tScOI7nW+cyyZJLkT0545DaaWnzkl4qMqiDERIHGJh/X2hUqF+hINavZu0BG71aPujzBn2AKGE1G1ef14u7vj3Hg1GhIGJOSRpVVzU0t5MHS78Q0cGo0+j0y7za+EfPUVWEzqgo4b8O58z66neqiaTnqjUOA1wcnz/rwuKGiXIfR/7u0dyicOe9jfqmO3OzhGdiYlWzkR1XlmHFw9vBPeb1Nu0KoFQ89xwNpPbS2vMUrH7f4l0bIigYr28SOylJM2Kh/7SX2wMjbmh/iB+sewKqTaT3xDC+fDtnTMHNrfsj3Ci0gn2bPW69Rr11Ba/BYQO48xO9brXxzUSmmkTKqxY/zo+UVmOUG3nhrNye17aO2lq0bl+Ksf4ZXUI/F2fQUuwKJ5iAb1r1IpamRA2++ypGQlhG+u4CqLewsGammdmibDetepDJN2x5Kbt/Ns+80hC4M+g7DsQd9nupVz7Em1xR+P4HP4VI/I6ueY43pWPjfQfjcxJFRNTIzRf0X5bltixKkAvRxpvEQfzk3FKQO0ZGWOYcMo4d+2Um/14csq4FkZt5i7ikqITMpAV2g9tXtw5CQRu70r7EsP8q/6hiZsqqYazGj8/TRJ/fh8qG+R/49LPSXA6mMFJZUMT9LDVI9Lid9/TK6pHzmzpqGmKJbEGLj8andxxlpOlJShgIcSQJrroR8W6HHGV+Aqfi8EYPUirkz+f2u7fR++Cbe+t/R++Gb/H7XdirmztSuqqH49x27vLQZEYPU6XkJbPr7bHb9uICf/bSQXT8uYNPfZzM9L3LBYpLBRF7aDO3iUXG54MRpLz29UDJTIj1duwb090NPD2RnSYNBKsBUi0TyFIlOR8SvOqrq4lmYAbpPcyBKkApw+OAzPP3bnUFB6h0ytwSrDnC1cCZKkApw/sJFHACmIipKta3huJHlFk4e38GzfzzIyWjJ/+wczIDHY+G+Dc/x/BMvsnPji+x84jl+9PB6lo1yIMiGdTWY2/cODy5Ho2oW2S4bdpeJ4tlrta1+Ms31T7HttdBXfbeJ4sotbAD27Atu202zy18CEbT+8OByiL1p+P4PtMtklzzH5jJ1nSPvPEN9N5hy1w8uC9iwroZsbNT7A/Ej7+yl2VTD1qrQ9YTPVxyBajYmI4CPfn9QOXY6dFIf7S21fPDZR3xwtpa/dgDmOczOtGDAR5/jr3x4to6jn33E0XOHOWF34EFH8tRyTSA5FgaSEnx0XX+f987VcfSzOt4/fYz2AR9gIt0ybWjVrPnMTEkARcbe9hf+cu4jjp7/gPcuNNJFAuNRpiUIXyV6XdhSVBRFwtmrXTo6Pt/IV/2KuTM58upPeeS+SkyJajBoSkzgkfsqOfLqT6MGq5H2HU5WynTtokHT8xL4l3/MZX6pCaNR/TaMRon5pSb+5R9zowarkfYdEx2kp0ncu1hHgTX87yH3K7g9kDIldLnBAMkmiduygsc31kjVxPRkNYh39jSqgd4dVDnNqmbf5A4uahs1qi3+Lny5Q5NFHMG1JrpcAKmYY7k2nXuNF976N95o1JYThBcYSGUwF2FNctPTbcPe7VAHdGVWsW71Fjbka7caQdUWKtNsnI0Q/MViQ5YV5Iscd8iQNosN2hUi2LOvFjtW5q2q0DaNiyPv7KVZE0Cr72mi+O5NVAcWVm2hMg3sTYEMO0ADr1yxkV0QtJ7wuYsjUE0hQQ/gI85BsCr5Ome6QxflZmaTrAP62zh/xREytVXntb/S0ucBTFimFga1jFH/dT7tCE4Ld3Omtw8AgyF1cGlJukUdOOZs5FRwSYDcxl9vOBjdpUsQvrr0OonEBHB0q5nVQQp0OpR4knODFO/If5E/2vToYICqZUpM4EebHtUuDhFp3+FkpuRqFw1avSJ9MEDVMholVq8Ik+IMEmnfsUgwQnmZjhT1gVhhKT71piIhMfQ4JQl0eujvV/B5wn+G6AJ1lyAPNGkbx40lt5zVK7fxzempgBu77VDUrvPUBDX9IMt2bdMIGnD4L1bmlPEPviwGAx4fyO17+dlvdvDCH15i176f8uy+1zjrdIPeSmXleoq1G4axIcsK3ReDArMxKNvEvDSw39jPkbYWZKwUjioDacPpApNppNKAePl/D1NOULC5n11NNkgoZeWqCrV0oMSK3L57eMlD3UXsCaUsGdVnEsZTHIFqFFkV3L/g6zwY5nV/SVCG0s/lvqVdxNQE9Q67//alsHfYl7tv4QF0ienEegM5Eo/71vA5XvsHCB0ykUN6og7w0NcbMgGfqsPB7fG4ugrCV4AkQeF0NbCpP+mjuVXheofCX0/7aL+hoNfH/8cUKdx98J67tYtCRGuPtG+tBH3i4GNRw5lbkqRdFCJae6R9jxevD5AUpFF87vGzlq0b/V3c2te6cF3NJoorh6+7fdVGVkzPwQDIjvc5UDesDm0YkxSoc9COVfhi7Pvjdp7+zVM8+05d6DyyztO8Xt+gXivNpdwXNVJdS6E/wIxHdX4RJmy01gHnGrjmguyscL/JSKyYE0CWh8+KOz4qsJjCZMTrXuJAu4wp93F2VpZicjXyXtjM8n5au0f7mYTxFEeg2o/Hh9ptH66/W/Hg8fnwBb8inN/cHm0oakG9kfUg949wgpD9gaTOGHdt6IAr+gkLAn2UbtzDoloAGffokiyC8JWWlipRuUBHSgo0X1Y4e14hJVmivExCrx9rdk64E/Q6QJFQwhYGxMuG7O+ZMxjDjZb34NbOFRqtRDjcHKMDHdjtpzn6yU5+tv9gTNNHdQyoJ/vYM37lWPz3Fc7ecIHPHdTWgF0GsGCJlmSvmkU2Ms4ubcNoVFBqMQVlZRtodMiQtnRY/edIAnWh8ZYfjKR61XqKE2SaLwwPyNWyANT62VPaAWJDOmRZk5EVPk9xBKrX6HMB6DCZwlRvd57mg9OHeC/o1dQ3tildolJ8E+ReVxCE0UpJhiULdHy9RseD9+mYWyLh80q4XZAU5x2oFCGoevfjU9pFIaK1R9q3lss7QL87uL4h1Pmmfu2iENHaI+17vEg6NavqGgjNOCgK+LyQlCShM0TIRkTUQUuvGhBazBUML+08yM/e2M7Twa/LkTJwMs0NmvXf2M7Tv93JroOvse9sR9heunCOOPxJjFgDFXOhv4wh3iBwJCaKC62ED5ubcMZYiledYlGnuIpnEFVZBXkJoVnZI+8cw46JvHxt2UP4LHdlWvDMC/HJLhm+/zW5hJ+JAKCqxv9whXDHO+RIrwMSUgl3CyXceXEEqm6uy+rJMSG5gHGoEtVw4PIAGDAlaeanCUgxkQCgeD+n2lCff1SrEWPYwbtxfJ2C8BX0WbPCR/U+3Jo7za5uBZ1eIVkzcGe0JP3If5M/efUt5IHwV3V5wMVPXn1LuzhEpH2H09nbrl006O3Dt3C7wwd5brfC24eHl0YFi7Tv8WJKkjAaoPd26HKPB/pkBVMSGAafnT16R67b1B6y9FJWjuaJUXfa+SZsPiChiPkLw574Q8xdVK4+wlW+SEO44Cge5vVs3/gcm2v+YYTvKJDNdSNrfqdxE9SFvmG2OiVUaICoPsLWZKnQBPaho/4P+OfIDR28FJ+QUf9N6o2MPOKMBmvZWmIFVyP17XLYWQBCWbBEbBfulNGdaTUcrZfo8gL6TGaW+EdRjqObLvUfctKUmWHusGFGSqr6AVxO1NlMriO7AXQYh42RSCbdXxQ/dh3cHPAABtLSwlTFWjJJDjNFoSAI4aWmgLMPuoOmoeofULC1K6SnSSQnjz3wAdDpRj7FNZy/RPWmH/KH9+sHA1Z5wMUf3q+netMPaTh/SbtJiEj7DudG71XtokFXr7n411+2c6ZRHgxY3W6FM40y//rLdq5eCx9QB0Ta93hJSoLUVLDfUEJuLG46FPpuK2RNDf8ksZid3suJbjforCxcsjaOx5COM+dBjtocgInCOVEe25q/ljXTLf6BWm9Hn0N1tJynB7v280rC5PdKFpKdCPhs2MYyJu1cB/5pdMPw13oOUmtc5fbdw6aE2tZkg4QiSiMEdoFpooKnjhpXQTWo4aaXUksO1C7/PYGZAYJnARgmzuyzMGajO9MOc51PO/xPnEq5i3vmlJIfLlo1mZlRcC8zk0cXKLZ32unzAUn5zC2whATCmXmLKUo2AC66uoYuKLe9HkDHFPMchgoSjOQWlJM5LHgdvcs3O3EBuuRiFucE9UsmWlmcl6NmeAVBiMlUi0RKMpw+p9DSptB61cfxBjXDWlIkqXWRcZB0eiJFTw3nL/HNrS+Qsvwx9JXfImX5Y3xz6wtRg1SQ/PuO3bXuy/R7wha3gz9YffU/7Wz98RV+8MNWtv74Cq/+pz1qkNrvkbnWfVm7eNzpdVBglejpVag/6cN2XX1gw5nzChnpEpmWkb/n2HSw55M6/5OdavjutzaxZkaYC4o5h8olm9g+I3zn951Qf/ggZ2+7IbGUNWv+mQ0lQzPBBFhLH2V74PGv3XUxDdQavSbeb1f3ayl4nO8Efz+ZVWxeXI4ZkNvr2DdyxAmB7uxhWUJ1BH742QrUQU+D3fz+GtdrbWFqS+suqtM/jTinqirsNFHjKFCDml2iztM6aHAqqkBJQAOvnGpEDswCoFGdYgFXD3fiFxWi0y9YWfxj7cLR8PRdp8OdwNSUNJIS0sjMLGZGZi7TMqaTn1nIzLw5zM4qwGJKRCeBR7bRYr/ELf9MUOmWGUxN0OGWm2nTTiPnuomszyAreQpJpjwKMnPJzZhOfs5sClKT0eGj/9annLrWNzg6/xZm8tNSMBjSmZadR266laJpc7AmJ+Lt78NnSACXnRaHOkFjxPdPnsaM1CnoPN1c6rypLpM76DNmkzNlClPMRcyw5DLNUkBJrpVkvQ+fIiFJLpztV9E8GEsQBA29HrIzJW73K1y5CjcdkGKWWHDX0JOqtM6eD99FHo6k04GioIxyztNo9AYj+uBZ72PQO9BNxpRMpiYPn/UkHpc6z/Dp9WPaxSOaNzdy9O9ToN0OBoNETlbob5BskshI09HpUB+z6nSCdRqUzdFhHF0eIryeCxztcjEzayaZKTkUFq7gwbJK7p5ZybI591K98G/4xl3VzM/OwqQDT28TH5/by/mbgSvAHJYtKCIZD13XDvPJqE7Ckba9zqk2O9Om30X2lKlYC2q4v6yShTMrWTbna6yqXM/y/OmYdOrTpXbv/2NMA7XCyqrgfmsWxoEW3j1/QdtKV6uN9MIKrFPSyc2/l3tmLmDJ3BWsuauCTKP6+Nndf3qfMPPShGrL5O4Fs0iU/8zRwQcsXOeTtHl8o6CKu1OCl1ew+bFHyPc28pc/NdBKBZuXV2HxNnH0Lw0MfybaBawzVmFNM5J+6iPOFdzLgxZTmO/1AkdT5vFg1kzyczupbQ6ek30ai+eXY/GE/x5C+L8zlyP4mFE/j6+A5daZFM5IVPdTtokd82di7K5lx7tB+73RgC+3mrtyKzSfHZbMfxir51NejXYcwh0R+YwVI/lmI0fPvM+nHTa6XS7QJZNsMpNsSiZBBz5PH909TVxo+gt/+exTLmvmS42k89pf+bilic5+Fz69f79GHR5XN+1XP+CDlo7QaaUcpzne1kavywM6E8kmM0mSTK/jFB/fHDmbMRqdbR9x6rqNPo8PXUIyyaZkdN4+Ou0X6R7f66EgfOklJsLdZepgqq/X6FiyIPJ8nqOlMxiQpHE51QEgSTp0hrFFZU03zuDsH78RNs7+LppunNEujotBr87EEPz41EESWDJgWeXQ4Ley2eMUpAa01fLK73bwyie1NHc5kPUWsjOsZGdYsRgBjwN7ex2H63bw9O9+wb7Pxue8HpXzNK/v9R9Xdw8MHlcOJmScncc4XKc+XWrMQWpMWtjzh+fZ19yC02PCnGYlO82CwePA1rybl/ftj/H9R5h2qe4lttU3Yg6pO32cYrmWbYFHp/oHUcmOhhFHyu+5YYNY5lSte8n/pKjwXfRxO/cq77XLkFbDjlWb2Bp4dG6Yx6IOZWCDyxHGZxovYeykjc8/GHt6QhAE4Qv2233R5iUazut24XFF7kKPlSEhAf3wIviYzcu7h3uKvoEUJg4cDUWBj1v+xNlrH2ubIvq7daMrWRC+xKq2sLOEcRt1/6VUtYWdBT0cCATpwudu/NIMgiAIE5TemIAhjuAywGCML0gFOHvtYxraDqPEkSJQFGhoOzzqIFUQQtS9RH33nXt86eRXweYCK/YrIkj9IolAVRCErwR9QgKGhASkMaQyJUlSM6kJ8QWpAQ1ttXzc8qcxlQE4+7v4uOVPNLTVapsEYdT27KvFGXVqpq+m6lXrKZZrhz9WVfhcia5/QRAmlbF0/Qfzeb34PB68Hg/+iZEjkNAbDOgMBnT68e8yt6YXU5I1nwJLKUmGMCPcg/R7ZK44Gmm6cQbbrWZtc8xE178gCJOJCFQFQZhU4g1UA3w+L4rXi8/rQ/H5UBR1JKQk6ZB0OnR6HZJej26U01CNRW5qIXlpM8hKmU5mSi5JRnU0Wb+7j87edm70XuVa92Xae4aPrx4tEagKgjCZiEBVEIRJZbwC1a8qEagKgjCZiBpVQRAEQRAEYUISgaogCIIgCIIwIYlAVRAEQRAEQZiQRKAqCIIgCIIgTEgiUBUEQRAEQRAmJBGoCoIgCIIgCBOSCFQFQRAEQRCECUkEqoIgCBOMpFMfOiAIgvBVJyb8FwRhUhmvCf8Lcm9RNO0WeZk9WFJvk5EqA9DVY8LRM4Vrnam0XE/nSnu6dtNxZ7JmY8rLJCHLQuLUNHRJiQD4+gcYuNmN64YD+Vonss2u3XTUxIT/giBMJiJQFQRhUok3UC3IvcWCWde5e1Y7khT59KcoEqcu5nLy4rQ7ErCapmdjnlNEcnE+OmPkANLn9tLX3Ibzsxbkq2MPWEWgKgjCZKJfsLL4x9qFgiAIE9XZ85GDy0iW3tXGyspLzMjrQpK0rcNJEuRO7aVw2i0kwHYjTbvKmKWVz8JSOQ9Tfg6SPno3v6TXkZiZTlLOVJAkBjoc2lViMm9u9PcSBEGYKMYvo2rOoXreWpZML8KSZMIQOBd63ci9TZxt2s97ZzsYdmqt2sLOEqt26RCfG4/bQWvrIQ581IAtuK1sEzsqSzFho/61l9gT3BZgLmH14gdZkFOIJdE4uNjjcuCwN/D+qYPUd4ZsMXr569leU4XJvptn32kIbRs8xmgifAZBEAaNNaN638LLVC9siZpFHYmiSBw5UcT7J2Zom0bNUllGxpJ52sWj0nX8LI76c9rFUU2OjGoqlRWrWTKjFKspFUPgkH1u5H4bzc2HeK+hMfR6AMBatm6sIVu7OIjH3YPjZgNHP9nP0ZBzf2Bbmeb6Z3gl7FdrYsHCtVTNLMU6JTXoOifj7LnImXO/Z19Tj2abUTIvZfOaRymWa9m2b7+21S+VZcs3sjK/CHOCf5G3B/v1Og4dP8RJp2Z1QZjExiWjai3fyJP3refurCySjUZ8rg46nd309cvoElMxmbKw5lWxqEBP+4UmQs4NBffyoCUVAI/bjc/nC33pjBiMKVimlnP3dB9tFy/RFdg2q4L7rVkYcXLt1EdozyuWOY/ygxXrKMuwYDLokW930NXbTZ8XTInpmNNmclfJvcw2tlJ//ZZm6xiZl7J55UNYjeDpPUNt8/XQ9sxS7snOxKj9XIGXpEcnAV4HzaePcyF0a0EQNMaSUV16VxsrFl8ac5CKP7tamNvNgMsQV2Y1rXwWliXz4h4slZQzFZ/bM+rM6kTPqFpmPMQ/PvQ97smbTnpCIj6Pg84eB339Mj6DieSkqWTnVLB4dhbutjO0uoK3nsOyBUUkoyZJPF7N+RY9BkMiySlFzC2aQ6LjOBcGg7rAth66rh3mkxvB+wXM5Xx3zT+zsqCA9IREdG4Hdv9x6RLTSZ6SQ35BDffkubA3tYRe52JWxIZvPMG8ZD0MtPDu+XBXhCI2rPsfrJw2lURJxtljp3vAQ2JiOua0WZQWZuE+d4ZW7WaCMEnFnVG1zNvEDxapGUOn/RBv1w/PUFpLH+WJRUux6EG+tptn3w3KOgYyqq5GDrz5KkeCNwT1Dnb593m02IoBmdYTz/DyaX9ThIxq1OMy51C9eCOrC3Iw4Mbe9O/sqmsJWiEG+TU8ee9aCv3pUrk9TEY1kvy1bL2vhmy9TOvpn/LyCXUwhyB8GXX3KJxuVLi7TCLVHL7fveOGwsXLCkvu1pGgjicaZrQZ1YLcW/xNdSMZ5vH5++pymvivI6Vjqlk1Tc8m54Gl6JOj97HEwtsn03Ho2KhqVqNlVBUFzl1Q8Plgfmno76QAHXaFC5cU+vvVZenpUDZLR0pyyKpjM3hOBI/zGG8f3c+R9tDfzTLjAR5b+hCFieDpquVXf9hP82Br9KyoZcZ6vldVpb6HfS9PH6zzt0TY1ryUzQ8/SnEiIDdxtGG3JnNqonjeWjYsUK9znu5aXt+3n/NBa0RlLue7D36HeWZ/z1/3CBnV8u/z/MISDF4b9e+/xJ42//LMKjY/sJ7iRHBc3skLRzo0GwrC5BTnrXUFG+arwaDc/hYvHxwepALYGt/ilycbkQFT3gN8J0+7RiQyJz/czVkngAnr9BrtCmFUsGFelONydnDkLzt5vcmGByPZM9ezIebjSmXZ8i3sqFGDVI/XrV0hBkV8p1I9Wcrt+3lTBKnCl1i3E0596sPlGuG+WIEbNxXOnvfh846wzhgtmHV93IJUgAyzzIJZmp6TGJlnFY5bkAqgTzZhnlWoXTxmXh9caFawXQ/zGyjQ0ganzylMMalB7JwSuH0b6k/66O4Js82o5LBhkT+A7K7l9b1vDQtSARyXD/FyXR0OHxgylrK6XLtGZI7Le/n9FTWIM2SUs1q7QhjV96xWg9SBRg4c/EWY7n2Z5rNv8cL7tdi9YEirYk1VjmadkZhYULmJ7X+zUQ1So1xPluVkYwDkG3VDQSpAZx2H2tXsuiV9SVCDIExucQWqliVVFCcA7iY+OnpseP1pEMfZ/XzmdCPf9mCYqm2NpoOrfeoJy5Bg1jYOY1lSpZ5U3E28/07k4zpft5fzvYDOytzSUm1zeFWbWFdsxaRz47i6l5cvx57NCCi+d716UorhuxOEycrrhUtXFI43+OgfCJ9FdbuhscnHiTMKXm/4dcaqIPcWd89q1y6O292z2inIHV25UGLuVJJnFWgXxy15VgGJuaM+qYZSwNkHfz3ho/Vq+IBTHoArbT7yciUWleuYliNROF3HkoUSkgStVxWU8JvGpmQ1c9OMgIPzn0TJRrbt5XinjGegB8+UIm1rVM2dDmQAo4moVxTzQyzMTQVkWs+9ypFI9Z9t+zlw1QEYybauplLbHk7Z43yzrFTtcew8xBsnm9RjG0GH2wOAKcGCRdNm0RsA8HgiHaTWWrZufI7NZf5eyo0vsjPsawsbtJuCf/vQdXesqghZo3rVc+zc+CJbq0IWh6raEn0dv8D+Rjw2/+eIuK+qLewMfG6NDev8+123Vl3vsU1Ua1cSPjdxBKomVuapJwj55jHejvp30cEbe7fz7J6XeP2Mtm18LctRB2fJNxs4rG0cpoW6m2qYaM5awjJt8wjk7tMcObKDF96rC1PQH4W5htUzrGrJQeveGL47QZicrtgUmi4ppKbC3Fnhg9DzTQptNsjNgaKC8OuMVdG0WxHrUnMs8/lWza/Y+thFtj/RxtbHLvKtml+RY5mvXTWEJCkUTRtdoJqcnxNxCqqyjDT+T9Vi6tev5syGh6lfv5r/U7WYsozI9bA6o57k/Fizd+G5XHDitJeeXiiZKZEepqqhvx/cboUsddKBQaYkifRUGHCB1zfydx1NdfEsNWjsPs2B4EzhCA4ffIanf7uTVz4eZcnWaM0twaoDXC2cCZSdRXD+wkU18WAqoiKm3IcbWW7h5PEdPPvHg5z0adtDNX9yDJsXsNzHP96/lGIz6uCzJd9nzfRUwEHThVrtZiPasK4Gc/vekFIHe9NTbHst9FXfbaVSExCqAWMNhKxfizP38TDBnYy5YKTgcS1bIw2qHqQGxWssLRwIOrYD7RYqowWmMape9RyVaWop37Z9+6HuJerlUlZqgm/h8xNHoFqOxQTgxuEYRV3mmJRSkqZ2lzl7GrWNGhVYU9QaH2fvMW1jWM32DvUONnEqsfypUPcSz+57jQOXI933jmzuoioKjYB8hvfrRB2R8OVlMMCsYonFd+swjVBzmpgA5WUS80t1GNWE0LjJy9R20Q7JsczniVV7mZX/dQyGJAAMhiRm5X+dJ1btjRqsRtp3OIk5mdpFg8oy0njt/nu5Py+HJL0azCbp9dyfl8Nr998bNViNtO+Y6CA9TeLexToKrBDudiEjHR64T09OVmir2wN9Muh1EjpduC1jYWK6vyTC2dN4x3uYKqdZ1ZlY5A4uahs1qi3+mwC5I8wYijCuNdHlAkjFrE15hnPuNV546994ozHGf0/OQ/zs/b2cdYKl4FE2r3+RnRufZUNpCSa5haMfv8Svm7QbjaBqC5VpNs7GMLZiz75a7FgpDASDZZtYmWvC3vQUuwJlvgDsZ1d9I3KCNrhz4JQhO2tt0DJV9aqlmLttETPJ+IPq7DDjWY688wz13ZBdMlLWNzbVq55jTa5p2HiTPRcaIbcmrn0LYxdHoJrtnxbDQ3+ftm28mCieXcP31m/8/7P378FRnPei9/vtuUhqpNFlQNdBF5AAiYsAgSAgB2NjG7wD2Q7Z+F22j816E/byTuXkdTahXBwnqxzXcnxclO21UjmuxNnEe9lZtnPMG8IK5GAcTIBYOIARN4EESCAhBjRCjJBGoiXNTPf5o0fSqGc0M9LIDsLPp2riSj/dPT0zqPvXv+f3PE2pDKhO6uuj/QXaSbIAKHg6jW0jOO9CT2rasYfpBhhfVazKswNenE07OW5sFoR7SH6exLR8iUjThM4slsjJksIGR/Gyp94xLhp0X/kPBwNUI4slifvKf2hcPEykfRtJJhMJGSN3Mv+P2TMGA1SjJLOZ/zF7hnHxMJH2HYsEK5TPHsOAKA2crdDTA3k56DOYjEkZtsCNjNIX7Rw/dvacctasep5vTU0FvLQ593PKuJJBaoJ+96QosZZ41eAORFy2lC8iC1fEY+WP6qVjqoKn00lbpxtF1bO4S+asY3mM/xw2ZDqg89KopkUc+EwbZpYh99dxbFiQGnC+htqG0MHFzTedkDbDEPBVUGaH6zejBOqzNzE3Ddquhht0DTtuHgwZVD0aIwWpoH+e6/0O5oqs6t9FhMtHnCLUuhjrVwBIKGNtyLov8+yydZTarICC88JOdlw3bmgkYx34VFG6UP4e7Esq9Gyqt5mzx6LdPwqCEI+Bx6KGMy03ctVZtPZI+w6lYUkdOQpcFiUjGq090r6/MBo4XRoNl/04cqWQTOv4Cq2DHHw9FpqhA5niytB1t67eyINTs/XBSO5D7ImhR0uWBubfjjzI6cuy4uGNLJ8iQ18dH+39Cf+y6w1e2/UzXtz1DrUeLxbbUtaufCikfjXUOgrToO1mmJkFwpmdjQ3wdNcAFdhlUNw1YYNGqGFHdZgsbfUl2owJodkV5NFE3eC8kyPISEXGSXO4wBigeveYg1SqNo8cpAJQQ51bQbZXiFrVv4M4AlUPihfAgiVcl56moHi9+IJfUQLHYesGXkq3k+Zre9mz72f8/FgstUhOPP0AMrYMY9sIyuyBgno37jDTmYwfmRWB+lmP62AM9bOCIAh3Hw24cg3O1WvkZJsoLdEHVI2dEyUwH6rFGq7e1ofXeH2INkuZP/R64utz0dZ2hiMntvHz3XsjD9gKcPXpNySyHFNhmF4WF0jU60HdeHooMLCri/rPt3MgeDYbzxne/dsx3IDFXsGaaLPYVM0gCwVPtAARgAqena9PBakHio6hBw2Mym6aO2Xy8oeSVSvyi2DEgHfIipToofeY5A88dEjhesvIv9fhbjckpBLuX6fwxYojUD1K2x0AK3Z7mIrxuvd49f2tvBD0+qgtQgaiv46PDOu/8P5WXvz9G7z5yf6w05SEV4OzW7/zjbXbxW6frNcr9XcR/f46HlUUpuujWp1N0WptBUGIV0fXyFNBXbkR+dIYrT3SvkNJ+LpGrpH6zGWcP2+4aO2R9j3e/CrUXVS51KhSmC8xd5bECFULo+CiqVs/x9ttFWGygXv5ufH6cCXSMFaFxprQ68kLv9vGa3vfYVe4pySO4LA7cFWQs2PLptkKA2UMsQaBo1CcTaoJ8LZxPVyFxPVqrncD2MmIElHpgV/45ExWiTEb/RTF1LEnjq71AS4lODO5jiU5RAwQv1gyxTkOlNaDNPbLFFdGqHHt6EIxZoOFL0UcgapCTeAP2JZVFdsf8JfkiEs/gcmTl7Imaq1OEWtzAlnOtuqod3VxWTiDbBPQ76JhaIZqQRC+IO6uScZFgz4982/4fIFZ6w18vl4+PfNvxsXDRNq3kaaq9HeMPL3Hr85fotcfPkXY6/fzq/ORh/xE2vd48vmgtk7FeUOjdIbErOnxZlKHHL7hxAeQXsaqaNnAL1N9A04VSChi3sLoNyeli8r1R7gql6gJEwROBOFG/T8/bADTQM/l6B1uaUJJKKJsdiCr299EXQzf0+HuWG8tRkfv7t/NW6frUHBQGbaUZMAoemqFcRNHoAqNh/fT2K/Xl65avTTMXfDfh/vYfuoVwFrCsuWRj6u0aj2lKYGBWnVfbJZz+RR9omZfZ8MXGxALggDA9Xb98czhuNxn+e2+9Vxq+XgwYPX5ernU8jG/3bcelzvyPHqR9h1OX4Ss6PmOTjb+5TP+ct01GLD2+v385bqLjX/5jPMdkUeGRtr3eNE0uNCo0dauUT7bRIFDCj89wFid2cnJTi+YHCxcso5SY/vfi2cvR5xuQKZw1lOsiJT8yF/H2qn6YNk250fjP1i20YnbC1gdFId70IGtgoxJAB48X2j3oD5gLFLN5obHXg8zRdXAwCS9+39DpiNCnatBRxdK8KwDRrHMnRoiqLv//HY+aVUgbWX4cTTwxWTJhajiClShhh1nA0+cynmc5765nuXhav6nOHjwvs2syop+Nzo+6ni7tgaPP3Bc69ZRGXJcqSx/4HmeKQnMZ3o5loFa8XEk6xe2rq7Yps0SBCE+TTfS0bSRoymX+yy/P/hdXvtgBq/+Np/XPpjB7w9+N2qQqmkSTTfCTDYaQU+LC9UbPmtKIFj9v6o/p3LnR8zb8Scqd37E/1X9edQgVfX66Wn5QqMSADpua1xvVUlMgHa3xrkLw19XWjTimEYVcLHjRHXgyU4reebbm1g7Lcw1w5ZN5ZJNbJ0Wa81o/I4f2EvtHS8klrF27Q/YUBJ6k+Ioe5ytA49/7ayOaaDW6B3kWGsgaJ69iQeDr2u2Ep5cdT8OE/jcR9kT5XqmZyjH3pW946I+BdWScIFhYIR++CB0YGDSeuamRa4LHeb8dmo7IasgTPA7MAtBpMFWMRiY5krOWR/6IICMVOQRSiWEL1acgSq4a7fz879V09YPckYVj33jdV75h+fZ8s3NbPnm8/zzE6+y7RubWVPsQDaB0nGUQ+dj/IcZj/Pv8ebxo7j9INtXsuHRV3lpQ+C4vv0irzz9Io8VZGNRFZx1v+K16lgGasVDHyUJCh23Y623FQQhHldb0zl9Kce4OG6nL+VwtXV0gWpf6y16Ll01Lo5bz6Wr9LXeMi4ed65bGpom0dsn4bwBzhv6o1YHXu23NNT4IlVo2c1rh3bT2O3FklLGihUvs+2JHweuJ5vZ+g+v8spjz7OhTH+Sk6+7gSN1+417+QLU8O5H71Pr8UJCEZVVL/LK4HE9z0v/j9d5bsnSwadLvbsrypO14nD8wHsc79SD5jWPvspL3w4cw2PfY0GaVZ8N4OD+6DW41Zdoi6crO5CBzCoxZjHXsaVSn7rqk7Aj6AcGJsnIMXb7D9ix6yBtCWWsNWRqBybpb2uIv4ZWny82tF51RYr9SxjHIoRjXrCq+KfGhaOl3KrjSO3fuG2WSUlOJTVxMrZJqSTLKSRKKr7+dlpa/8qnn73DOydOcyV4urSCZTxsTwV/Oxdra2gOaooqs4IHHJlY8XD99GcY/70rt87x6ZXT9JntpNvspCSm6seVkIjqdXPDuZ991W+z89LonjATIvAZfN1nOdg40jPAc1k8rxy7WaHj2iFOfPE9dYJwV0meJDG90ERi4sgZzow0icJ8E4EnQYZVWz+6YEjpt1KYexs5UX/0ZLw6PDKHTk6jszv8HKyRqD4fk/KzMSUMTHkUH3+Pgvvzc6MaTDW3NHJ+wmSScOSETjeVaZcoLhr55ciJZ8L/IF1NnKir5rLfRIaciizbSZ+USrKcimxSUX2dtN+s4ejp/81b1dXU3wr+XWexfEERyfjouH6AEzeDmqKKsm2/i9MDx5VsJz0pffA6Z9UUPO4aqk/+hu1HzxHX6X3gutbXxJ/rLxpbgducrz9Gj60Ihy2VZDldPwa1i7brB/jPg/83R2MqWb6IY9pqZiYnDr1P4L373R9zJIangzU3HuDP3gJWz3uK/7JgNQ8vWM3DC4owtb7Hj3f9afB6XljyIDNTlKHrdMsU5i8ownTzY94ZuGbG9N4XOXL6Y9JLnuKBpQPvt5qZKW0cf+cltg9sF9hXun1onaHXXNJPf8b5gmU8bJfD/NYXOeIt4D7HdAoH1qWCNUsqkN1Bxyt8aaSNrzw8urO+IAjC39Hvdo3cfT6SpXNaeGRpQ8THqcZC0yQ+PlrC0XP5xqaYpZXPYPKyciRLfEPlNZ+fW5+dofNM5IFWRv/wWHzvK9xDqjazrYS4Jsr/Spi9iZcqU6kV39PfReRba0EQhHvA0XP5HD5ZFLFeNRpNkzh8siiuIBWg88wlbtfEP3Dzdk3dqINUQRim+g2Od4onLkWzYWYZtB4UQerfiQhUBUH4Sjh0chofHy2hwxNmgE4UHR6Zj4+WcOjkNGPTmLiPn6f9ryfxjmFaKW+Hh/a/nsR93FjsJAijt2PXQTzhBg8JuqrNVMoj19sKXzzR9S8IwoQylq7/YAU5t1kw4wbzZ7RGLQXQNInTl3I4dSl31IOnYiFPzcI2q4jk4nxM1shd8qrXT09jC54LTSjXYn3ufCjR9S8IwkQiAlVBECaUeAPVAQU5tynKvU3elC7sqXfISNVn4+joknF3TeJ6eypNN9K/kADVSHZkIedNISHTTuLkNExJ+nOp1d4++m510n/TjXK9HcU59gB1gAhUBUGYSESgKgjChDJegepXlQhUBUGYSESNqiAIgiAIgnBXEoGqIAiCIAiCcFcSgaogCIIgCIJwVxKBqiAIgiAIgnBXEoGqIAiCIAiCcFcSgaogCIIgCIJwVxKBqiAIgiAIgnBXEoGqIAhfeSaThtmkYjapmEx3wdTSmqa/BEEQvuLEhP+CIEwo4zXh/9SsTqY7Opia1cmUtDuk2/QnU932yLR3TuJaWxqXnRlca0szbjruVL8fTfWj+lU01Y8WCFIlSUIymTGZTYH/xj9Zv5jwXxCEiUQEqoIgTCjxBqpFuR3MK3Yxp9hFgiXyvvp9Zs41ZnO2MZumGxnG5ripfj+q34vf54+eQZUkzBYzJrM1roBVBKqCIEwkoutfEISvjKVzWvjWyvMsnHU9apAKkGDxs3DWdb618jxL57QYm+Pi93nx9fXh9/qiB6no5QB+r0/fxuc1tgqCINyTxi+jastmxdx1LJlahD1JxjIQAvu9KN0N1Dbs5pNaF27DZlRtZluJw7h0iOrF53XT3LyfPZ/V4Axum72JlyrLkHFy/J032BHcNsBWwprFD7MguxB7onVwsa/fjbuthkOn93K8fdgWMXGUree/za0ge+Czql6UXicXat/h/bquoRUHjzGaCJ9BEIRBY82o3r/wCsvnN2M1q8ammHj9Jo6cLuTQyWnGplHz9/fj83qBsZ5+JSxWK+aEBGNDVBMjo5pIXm4JUzMysVkSMA1cTzQVn9eDu6ORyzfa8Ri2urfksnjePDLMPjqcB/j8prFdEL4azAtWFf/UuHC0HOUb+f7965mfmUmy1Yra76Ld00lPr4IpMRVZzsSRV8WiAjOtFxsYFhcWLONheyoAPq8XVVWHv0xWLNYU7JPLmT9VpeXSZToGts2s4AFHJlY8XD/9GeeD9wvYZz3Ocw8+xuwMO7LFjHLHRUd3Jz1+kBPTsaVNZ07JMmZamzl+47Zh65GVVm3mv8+bQ7rViqq4aO/upM+cTqqcTo6jivkpDRxpCexvShlfy5qC1fi5Bl6SGZME+N00njnGReObCYIwTG396IO7pXNaWFXZiDmOgVJmk0ZR7m16+y04b469btXv8+LrjydI1amqimSSMJlGF3jOLb27O9Lk9BIqZyxkqi2VJLMZTVW409eL1+cDkxWrVSY5JZc8ezJql4vOsd23TAA28rKzkU0qvZ4rXL9jbBeEr4a4M6r2uZt4bpGeMfS07eej46EZSkfZ4zy9aCl2MyjX3+PFP9cMNQ5kVPvr2PPBdg4HbwiAzIL7vsfjxQ4sKDSf/Alvngk0RcioRj0uWzYrFm9kTUE2Fry0NfyK16qbglYYQd56tj5chZ0uGk/+K2+dGcieBh2nv4nD//kL9kS73c9fx5b7V5JlVmg+8zPePKkP5hCEe43rpsalKxpL5ptISBze1t8PFy9r3HCpaJpESjKUlpiwpwPS8HUZQ0a1KLeDb1RdYHLa+Fzpb3VO4k/Vs8ZUs6r6/fj6+tC0sWV1jSTJhCUxcVQ1q9EyqpoG5y9qqCrMKwvzAwRpuQ6XGlUWL5BItUVeNyZps1heWEiyCdQ+Jw0tF2nuHl7mIKdPZ97UEtIsoCrNnLxwIbSn7p4gMqqCQPw1qhVsmKcHg0rrh7y5NzRIBXDWfcivT9WhAHLeQzyZZ1wjEoVTn75HrQdAxjF1pXGFMCrYMDfKcXlcHP7LNt5tcOLDStb09WyI4biKZ5ZhB3AfY8dgkMrgcdZ3A2YHxaVBTWEV8WRlFVlmUFp384EIUoV7kQY3b2nU1quo/tB7Yp8PztSpuG6qTCsyMWeWCUmCE2f8uNpD1x+L+TNaxy1IBZicdof5M1qNi2Oi+r3jFqQCaJqK6h+/elW/ChcbNZw3on/3nV0aDVdUtDgzw0OSmZObrwepvc2crjsXEqQCKLcvc6ylhV4NTLKDkmzjGoIg3EviClTtS6ooTgC8DXx25GjEu1p37W4ueLwod3xYJhtbo3FxrUcP5CwJNmNjCPuSKooT9eM6tC/ycdVX79SDS5OD0rIyY3OIGbIFnwrujoNh9utC8QNYsUYpHStetp65NmtM350gTEReL9Q1qJw8q+H3h8+23bgJ7g69O7qkUMKRC4vnm0hNkWi5ruEfXfI0RFFuB2XT2oyL41Y2rY2i3MEipJiofr8+un+c+X1+1Hi/KA08PfD5SZXma9EDT58PLlzW4q1eGM5ewpQkE6DQfuPC8BIxo846rt3xofr6UBOCyjAyK3hgwSM8UFLIzJKvs2rBIzy84BEeKJtD/sA6iXZmTq/igXK97eEFj7Bq3tdZVpCL8eoyp1RvXz64cZD8Zfr2pbOGlg2+fy62KWUsn/vQ4Hs8PO/rLCvIDjtewbjuqtkVzBx7dYkg3FPiCFRlVuUVAaDcOspH0bq5cfH+zq28uOMN3j1rbBtfy7P1wVnKrRoOGBtDNFF9Sw8TbZlLWG5sNvho70u88Nsf8eqn4TKgZdgSALx4+41tQWwrWTPNoZccNO+M4bsThImnvkGjxQk52VBUED5QvdOjkWYDe/pQu9kCVqukz3kfZyRUkNMZcXR/tn0e3175G7Y8cYmtT7ew5YlLfHvlb8i2zzOuOkyCxU9BTqdxcUSaGnkKqorS6fzhta10f/oB/uO/p/vTD/jDa1upKJ1uXHU4TdP3HYf+fjh5xk9XN5RMl0hPN64xRNPgQqP+OWbNCP+7jkWhfTIJAL1tXIzhq71y6QCf1FbzeUvoypZJMyhMkVH7PfT094O3ixaAtEKWzFhMYWoyFqmfXsVDT68CJpkU+zyWlM5iinFnY5EwncVT80k29dGjeOjp94FZJsU+nyXThr/DlPxlLJmaT7LFhNrfQ4/Sg2qdQmHhLMajmkIQJro4AtVy7DKAF7c7qOb0C1FGSZp+H+rpqjM2GlTgSNFH93u6jxobw2psc6EAJE4mwvwDUZXet45SGfA7aaw3tg4pXVRFoRVQznKo2mVsFoR7QmIClM+WmFdmwmoxtupmlUgsXWTCGpiQw+eDphaNW26NzMkSFnN8V+rcySPfBWbb5/H06p3MyH8EiyUJAIsliRn5j/D06p1Rg9VI+w5H9Y/c5V9ROp3D23/GN++vRE7Uu2PkxAS+eX8lh7f/LGqwGmnfMTFBeprEssUmChxhS4MHtbVr3LylMWu6hDVyuesoWEkN/CPp77upn4/jYYJe91H+cv4zjpw/yF8aWvTSgpwZem1rbwtn6w/y1wufcaT+r3zSdIFOH5iSCpljCCTHwpKQDN11/O3MXzly4TOOnD/ASXcPAAkpBRQOrGibxUy7DRM+utuO8sn5ao5cqOYv9Z/T2m8Zmj1HEL7C4vgzyApkD3306n9/XwCZ4pkr+c76jXoAqDqpr28wrmRgJ8kCoOAJvdEO77wrMM2JHftsY2Ns7HM38URxNuCl7cruCAOpqliVZwe8OJt2ctzYLAj3iJnFEjlZUsSgJ9jZOo0Dn6o0XNYozJconBrrliPLtncbFw26r/yHgwGqkcWSxH3lPzQuHibSvsOJlPX8502PDwaoRnJiAv+86XHj4mEi7TsWCVYon20iJdnYMlx3D9Rd1CguMpGWGv/vM2QKiYGbGa9vHAqhNA+uq4YLQEYxU2QTaB5anXW09gW1dTZz7KYbFUiwFVES1DQ2HtpaWoZNn9V+tZ0eAHMiKYFl9slZJEvAnaucuh50vH1uzjqd9A4tEYSvrDgC1Shmb+Klja+zLczrpdUVxrUhoYy1Ieu+zLPL1lFqswIKzgs72XHduKGRjHXgU8WZZIiVfe5TfH/BwOCtP/B2hNkD7Esq9Gyqt5mzx+LOGwjCPUFVJbIzJeaVSWRl6lnV8xe1SD3lUZlNGnJi6GCcAdNyVxgXDROtPdK+Q2ja4GNRw3n4a/ONi4aJ1h5p3+PF54P6BpXMKRJTc42tX7RZLB+o9TS+gmtEB/gUgoe6ApCSrJcW9N/mcrhEguuGPtWVKYX0eJOqvjt0BQfCAHTRb7ifyE3Uewp7e5tDs8geF2HGkgnCV04cgaoHxQtgwWKYbgYATUHxevEFv6IEjsPWDbyUbifN1/ayZ9/P+PmxkQPAIU48/QAytlhnjymzB4ro3biNk7FGUbroezy3qAKbGZTWnfw64uAtmRWB+lmP62AM9bOC8NVgMmlkTYHcbIkFs01ML5Rw3tC41fHFB2BCDDT95qG3D4qLQBrPZCoAXXgDQZzZHC6t60czzkEd6Xri78M4L0OORU/Z+rxdoUEhALcDx2DBNPRsmLHx9eo1sdFIACp93nARqTsksBWEr6I4AtWjtN0BsGK3hxktX/cer76/lReCXh+1hT89ANBfx0eG9V94fysv/v4N3vxkP4dbI2w7TA3OwG2oLSVM5jYMu32yPhKzv4vYK0Zllq98nmfmliDjxdPyIT/fVz38yVkhqihMtwJunE3Ram0F4StKgswpEmYTeEbXuz6MX5VQ+kaOOK7cCJ21OVi09kj7DiFJSBGiuz//7bRx0TDR2iPtezz098P1VpU7d+DwZxofH1T5+KDKyVp9Roe/ndA4/Jmf/pAsYqx6uN3vAyApITfMyPgGPjuzn0+CXx3h0qLjQSXOSgpBEMZRHIGqQo1bD+tsWVVE7iT7ch1x6eGiPHkpa4zzjYQoYm1OIMvZVh3mgQPhyKx4+HkeK8zGgoKz7lf8y4FImdSAhTPINgH9LhoajY2C8NXi98Opcyo1Z1SMY4E0FVQ1/sydyz1QDRjq0zP/hs8XvgrQ5+vl0zP/Zlw8TKR9hyNFeILUv2z/EKUv/FQhSl8//7L9Q+PiYSLtezyYrTB7lon5c4a/ivL1pOCM6RKzZ5kwjyJ2N2r2dOnVWnIm06Oet0ev1acHwhZraphAmKA6WfVLKxvTJ7UwkTgwmnAYq/7UQkH4iosjUIXGw/tp7NfrS1etXqpPhH8XcB/bT70CWEtYtjzycZVWrac0JTBQqy6WLKfMitXPszYvFdQuGk9ui7EkAZZPycIC+DobYgyIBeHeZTZDYiK4OzQ8QQWFmgbOVg1J0shIi+9KfePWyBGPy32W3+5bz6WWjwcDVp+vl0stH/PbfetxuSPPoxdp3+GYzCOfbmvqL7Ni04/546HjgwGr0tfPHw8dZ8WmH1NTf9m4yTCR9j0ezCaYYpfIzmTYKyNNwmTWmJyht8d1GK46WntVkGzkOMZpmqhg3T30AySkhw+EszOxmfSyta7AJK7dgeDWagm9ipQkhStRGJ0bgZHIScklodepxEJSwo+vE4SvlHhOK0ANO84GnjiV8zjPfXM9y8OdXaY4ePC+zazKCn8fO/7qeLu2Bo8/cFzr1lEZclypLH/geZ4pCcxnejmWgVr6wKlVOamAHqQOPUI1OkdyKgBdXbFNmyUI97pp+RJJskRNrUpjs8YNl8aJMyrOGxrF082khQsoRuFqaxr9vpGzjS73WX5/8Lu89sEMXv1tPq99MIPfH/xu1CC132fmauvoZmSXTOaIKeKa+st8a8urpNz3BObKb5Ny3xN8a8urUYNUJOkLz6h+OXo4d6OFHlWfJmr+7ApmpofJNCYmkze1gq9njPIfR0cj7cpAIFxGTvDYirRClmTaMQG+7qtcDCz2ePVahoTkIgqD1rdlV5CfHOflE3C33qBbBRIdlBbYgzK9acyZVkTKyP9cBOErQ9r4ysNxj1awz1rPdyqqyArc/fn6XLjv+AALcrIdW8LQyUbpOMqhkx9yYKDSvGoz20oc0F/Hng+2jy7TOHsTL1WWIePk+DtvsMPQbJ/1OP9UuRS7GVC9KL1uPH0+sNqwT0rV56hTFZwXtseYFc3myfXPsyBwfvSFLYDXuS5v5ed/C15SwbNPPEVxgkLjiZ/wVm1wmyDc265c1WhxqnytwkyCYfBlXx9caFRx3dTQNInkSVBcJJE9wtRWv9s1ugLC/7qijvkzbhgXx+X0pVz+83CY2vwofP29+L16lm68mK0WLAnhp9kK5x8eixzU+vwaJ89qJCXqszBEcrNd40ydSuUCE6njNTt9WiGLHTPISAgEgn5FnzAfMFuTSTCbBrvE1X43Ttdp6m8FzsWZFTzgmIKlt5k/118Y2OOQtEKW5M8izQJo/fT29uGXLMiJMiYJ1D4nFy+fo2Wg1jZxOstmlZBiClrfLJOcYEHt9eBLspEQ/F4R3z+XxfPmkWH2cP3UZ5wLLJWzKvha3hQsAL4eerxgTUwmwaSiqiZMJh8dzgN8fnP43gThqyL+W0LAfWEnr33wEjvOHqW5uwss2WRlOMjKyMZm0QNXfeT+T3jxj0FB6hfMfeFDXv3Pbey5WEebF6xJgeNKSQWfG+fV3ezY+5MYg1SAJeQF3cRbrNYRXyNPhO2F0V1nBWHCm1YgsWJZaJAKevd/+WwTD99v5pGVJqqWmEY1/2o0py/lcKtzknHxmN3qnMTpSznGxTExma1I0ricdgGQJBOmeApDw7CYJSoXmKIGqaAPelv1dfP4Banoc5p+fv4QJ64306Eo+CSZZNlGsmwjyawnF3q6W7hy9RCfnP98KEiNRWczxy59TnNXDz4tgSTZRnKSDKpCt/ssx+qCglSAvst81nyB9t5+VALrW1R6ui5wut7NKN55REpbDX9ruUxnvw8sySTLySRo+vG0hS9bFoSvlHHJqAqCIHxZRptRBVg6p4XVX7tkXDwm+/42g6Pnwj38PTZ+nxdfX//ASJo4SFgSEzBbRheoRsuoCoIg3E3G79ZeEAThLnX0XD6Haqbh9Y/9lOf1mzhUMy2uIBXAbNF7XSI/qDQaCYvVOuogVRAEYaIZ+1lbEARhAjl0choHjhfjuROm/iAKz51EDhwv5tDJacamMTEnJGBJTBhTGYAkmfRMaoIYEi4Iwr1v9GdJQRCECerouXz+cHA2Jy/kRZwNYEC/z8zJC3n84eDsuDOpRmaLFUtiImarJeJsAIMkSR84lZgoMqmCIHxliBpVQRAmlLHUqIYzNauT6Y4OpmZ1MiXtDuk2/el3tz0y7Z2TuNaWxmVnBtfaRjcN1Viofj+a6kf1q2iqH03TT8tSYOopk9kU+G/04DoaUaMqCMJEIgJVQRAmlPEKVL+qRKAqCMJEIrr+BUEQBEEQhLuSCFQFQRAEQRCEu5IIVAVBEARBEIS7kghUBUEQBEEQhLuSCFQFQRAEQRCEu5IIVAVBEARBEIS7kghUBUEQBEEQhLuSCFQFQRDuMmaThtkkprgWBEEQE/4LgjChjNeE/wU5tynKvU3elC7sqXfISNWfTNXRJePumsT19lSabqRztTXduOm4K8rtoCCnk9zJHrLt3ciJXgCUPisudwo3btm42ppG040M46ajJib8FwRhIhGBqiAIE0q8gWpBzm0WzLjB/BmtSFLk05+mSZy+lMOpS7lfSMBalNvB/BmtlE1rI8ES+XP1+8zUXcni9KWcuAJWEagKgjCRmBesKv6pcaEgCMLdqrY+cnAZydI5LayqvMy0vA4kydgaSpIgZ3I3hbm3kQDnzTTjKmO2dE4LKyuuMC2vI6ZufrNJI2dyN1OzujBJ2piPZW6pqPgSBGHiGL+Mqi2bFXPXsWRqEfYkGcvAudDvReluoLZhN5/UunAbNqNqM9tKHMalQ1QvPq+b5ub97PmsBmdw2+xNvFRZhoyT4++8wY7gtgG2EtYsfpgF2YXYE62Di339btxtNRw6vZfj7cO2iImjbD3/bW4F2QOfVfWi9Dq5UPsO79d1GVcHWwlrl6ynMjcbeSCh4e+i7UY1+4/t55THsL4gCGGNNaN6/8IrrFjYFDWLOhJNkzh8sohDJ6cZm0bt/oVXuL/iinHxqByqmTamY5kYGdVUKivWsGRaGQ45FcvAIQfOs42N+/mkpm749QCAdWzZuJIs4+IgPm8X7ls1HDmxmyPDzv0D2yo0Hv8Jb50Pbhsgs2DhOqqml+GYlBp0nVPwdF3i7Pk/sKshzPk/Cvu0h3hsfhUltqF9+vpcNDTuZNfxhtDrZpjria/PSf35nbx7psm4tiBMaOOSUXWUb+T7969nfmYmyVYrar+Ldk8nPb0KpsRUZDkTR14ViwrMtF5sYNi5oWAZD9tTAfB5vaiqOvxlsmKxpmCfXM78qSotly7TMbBtZgUPODKx4uH66c8wnlfssx7nuQcfY3aGHdliRrnjoqO7kx4/yInp2NKmM6dkGTOtzRy/cduw9chKqzbz3+fNId1qRVVctHd30mdOJ1VOJ8dRxfyUBo60BO3PtpRnv/GPLLSnYKUL9+12PP0+EhPTsaXNYF5RLn1XT9PcH/wugiCEM5aM6tI5LTy4+PKYg1QC2dXCnE76+i1jzmYSOJYVFVdiyqJG4sjqwus1j/pY7vaMqn3ao/zTo9/ha3lTSU9IRPW5ae9y09OroFpkkpMmk5VdweKZmXhbzhrOm7NYvqCIZPQkic9vuJ5gxmJJJDmliNKiWSS6j3FxMEkwsK2PjusHOHEzeL+ArZxn1v6AVQUFpCckYvK6aQsclykxneRJ2eQXrORref20NTQNv85FYJ+7ieeWLSM3KRFTv4s2Tyc9mhWbnM6UzErmZ3VSe9mJXkE9wvXED7ZJmWTlVoRefwRhgos7o2qfu4nnFpUhA562/Xx0PDRD6Sh7nKcXLcVuBuX6e7z455qhxoGMan8dez7YzuHgDUG/g73vezxe7MCCQvPJn/DmmUBThIxq1OOyZbNi8UbWFGRjwUtbw694rTqGO9G89Wx9uAo7XTSe/FfeOjNw9xx0nP4mDv/nL9gTOAE++OjLrMmS8XVW8+EnO4eyp1OqePah9RQngqdlO/9yoG7gXQThnuK6qXHpisaS+SYSEoe3NbVoXGwMPQ0lJWp8rcIcsv5oM6oFObf5ryvqyLANXurj0uGR+c/DZWOqWS3K7eBbK89jm9RnbBoTz51E/nBw9qhqVqNlVDUNzl/UUFWYVxZaH3HnDtQ3aNzqUNE0iZRkKC0xYU8HQlcfnfx1bLl/JVlm8HmO8tGR3RxuHf672ac9xBNLH6UwEXwdB/nNH3fTONgaPStqn7ae71RV6e/RtpMX9lYHWiJsa1vKs994nOJEQGngSM17hsypTPHcdWxYoF/nfJ0HeXfXbuqD1giviu8/uZ5Cq5e2xu28/elQ9tRRvol/WliGjJv66p/xdoO+fMXql1mbI4Onmvf/PHQ9GbrmuTj15228f33wTQRhQovz1rqCDfP0YFBp/ZA394YGqQDOug/59ak6FEDOe4gn84xrRKJw6tP3qPUAyDimrjSuEEYFG+ZGOS6Pi8N/2ca7DU58WMmavp4NMRxX8cwy7ADuY+wYDFIZPM76bsDsoLh0YPlKyjJkoIuG2qAgFaC9mrcuNOADbFMqWBDUJAj3BA1u3tKorVdR/aHBKICnG6xWyMuRcOQOvXKyTUhxZh0BFsy4MW5BKkCGTWHBjBvGxTGZV+watyAVwDapj3nFLuPiMfOrcLFRw3kj/Pfe2aVx9KRKd4/KzGKJObP0S8iJM37ct8NvE7tsNiwKBJCdB3l354chQSqA+8p+3qyuxq2CJWMpa8qNa0TmvrKTP1zVvzNLRjlrjCuEseJra/Qgta+OPXt/GaZ7X6Gx9kNePXSQNj9Y0qpYW5VtWCeMheU4rIBSx6GgIBXAeWY7n930AnYcBSWBpUVMlS341C4a64dfT9y12znu9gLZFMyM4b0FYYKIK1C1L6miOAHwNvDZkaOhdTRB3LW7ueDxotzxYZlsbI3GxbUe/YRlSbAZG0PYl1TpJxVvA4f2RT6u+uqdenBpclBaVmZsDjFDtuBTwd1xMMx+XSh+ACvWhMCigixkvNDvpCFwRzxMnxcvgFlGL4AQhHuD1wt1DSonz2r4/eFTbT6/htKrMcUOc2dJzAl6zZwuYbWG3y5WBTm3mT+j1bg4bvNntFKQM7ru1alZncwZx6BywJxiF1OzOo2LR0cDTw98flKl+Vr4gFPToPmahtUKSypMFE414ciFxQtMTJokce2GRvgtY1SyhtI0K+Cm/kSUbGTLTo61K/j6uvBNKjK2RtXY7ta70q0yUa8otkdZmJMKKDSf387hSOMJWnaz55obsJLlWEOlsd1grs0GflA66zlubATu+H0AWKwDV4cm3t+1lRd++1LYbHFXv76+nBhh3IcgTDBxBKoyq/L0E4Ry6ygfRfrjBcDF+zu38uKON3j3rLFtfC3P1v9IlVs1HDA2hmii+pYectoyl7Dc2Gzw0d6XeOG3P+LVT0Pv9KEMWwKAF+9A3dTVD3nt/a08H7asAewpMjJ6Mb7xHl0QJrL6Bo0WJ+RkQ1FB+IDT75NQFEhJluLvNg6jKPd2xLrUbPs8vr3yN2x54hJbn25hyxOX+PbK35Btn2dcdRhJ0ijKHV2gOt3REXEKqrEeS4LFz3THYOX+mPT3w8kzfrq6oWS6RHqYqoY7CtxyQ3GhRFLi0I+VYIWqShPls01x/YQrimfoQWPnGfa0GFtDHdj7E1743Tbe+lsMJVvxKC3BYQL6mzg7UHYWQf3FS3oSQy6iIkruo/bwNl74jx/x4r6jxiZAxp5ggcAAsOgqKLPLgBe3O6i8ThAmuDgC1XLsMl/SH0UZJWkyAJ6uaHWcFThS9NH9nu5wf/yhGttc+t114mTiuQ8tvW8dpTLgd9IYMR0QYFvKhmI92Pe013DK2C4IE1hiApTPlphXZsKqX29D9PaDT9VAgqM1Gh8fVPlLtcqVFg2/alx79PKmjHyBz7bP4+nVO5mR/wgWSxIAFksSM/If4enVO6MGiJH2HU6krGe8xxJp3zExQXqaxLLFJgoc4e8Z7tzRUDWNpES4eFnjk8MqHx9UOXZKpbvHuPZoyUxNHjrHh/ZWja/KXIeeIFBcXDI2GqywB7rRFVfYZEOI6w109AOkYrMbG2Nnn/sUC+16htl5NVx33ACZ4pmP8uyGx/UezjtnORIuPSsIE1QcgWpWIHvoozfuk9RIZIpnruQ76zfqAaDqpL4+0h8sgJ0kC4CCJ9Zz93kXekLYjn22sTE29rmbeKI4G/DSdmX34ECqkRWxYdW39BNLXx2HjkcLwAVhYplZLJGTJYUNegbcuaPh90lcadaYMlkfvGNLgUuNGvWXNLSRk6ExsafeMS4adF/5DweDQiOLJYn7yn9oXDxMpH0bmUwaU9JGXj/eY4m071gkWKF8tomUZGPLkB4F/H6JU7Ua7bc0SmeYmFks0d0Nx0+pdHXH82OVYQsMmlP6op3jx86eU86aVc/zramp+rnauT9qgiA1kNVUlDZj0whqcAc63GwpFcbG2OSv4zsLBsZZ7GfXSF9J2UZe2vgyzy57iOJJVuiuYcdH74UtIxCEiSqOQDWK2Zt4aePrbAvzeml1mD/ehDLWhqz7Ms8uW0epzQooOC/sZEfUkYwy1oFPNQ4ZmVjY5z7F9wdPKn/g7aizBxTx2LpNVKZZwe/keHWUuidBuEf19kNCAiwqlygulMjNllg038S0AgnnDY1bHfEEPww+FjWcabkrjIuGidYead9GEhrpEQZ0RXuvaO2R9j1eBm4aklNgyUK9PrUoX6JygX7Cbboa/43FyNaxJeT6EHg9ts64sp7kqAxdd+vqjTw4NRsLoLgPsac6es2wLA3Mv60/1vYLl/8oz90XmPmg8yAfRBpnYfHh6XTS1hEYH5FSwYb/+jzPzNKz04JwL4gjUPWgeAEsWAzTxwCgKSheL77gV5TAcdi6gZfS7aT52l727PsZPz8WLQAEcOLpB5CxxTpjS5k9UFDvxh2mQD2S0kXf47lFFdjMoLTu5NeRTioE5uJb/z9YbpfB7+RU9S/ZEUM9liDci6blS6xcbiItdSjvKgHZmWA2a9yOeyS5MN5ys01Ygko5bMkwxQ6dHvDqY3nGwIkSqOu3WMONWPfhNV4fRi731flDrye+PhdtbWc4cmIbP9+9N/KArQBXn34TIMuxFoaVYw8kxz3doyuLs896nK33P4QjgcB0hlEGlZ19j9d2vcFrf9zGi//xCw7f7AJzNnMrniLyrY0gTBxxBKpHabsDYMVuD1MxXvcer76/lReCXh+1Rbjr76/jI8P6L7y/lRd//wZvfrI/7DQl4dXg7NbvfGPtdrHbJ+v1Sv1dRL+/HiCzfOXzPDO3BBkvnpYP+fm+6jBPSgmSv5LvP7qRuTYr9Ddx5NAbvH8l1s8lCPcmNUwsmpggYTFLKH2RCgei6+gaObN05UbkisNo7ZH2baQhcdsz8vrR3itae6R9j5ekQEIiyWr4wST9fzRVi6MXy0VTt34utNsq9CkAh9nLz43XhyuRzrYKjTWh15MXfreN1/a+w65wT0kcwWF34KogZ8cW/NkKA2UMCp5RjHErXfQ9vr8kMN+4ez/v7jJMZxhVE3v+egynCiQ4iGESG0GYEOIIVBVqAn/Atqyq2P6AvyRHXPoJTJ68lDVR5x4pYm2OfqfsaauOrVgemRUPP89jhdlYUHDW/Yp/ORAlk5q/ji33r6NQBt+dGvbs+QW7RCZV+Arz+TWOn1I5XqPi9Q0PfpRefSS6LWXY4lFzd00yLhr06Zl/w+frNS4GwOfr5dMz/2ZcPEykfRupqkR758jrx3sskfY9XuQkvd6421AOq2mg+vWbC8kc5q4jRodvOPEBpJexKoY5rb809Q2B4K+IeQuj3xCULirXH+GqXKImxh660qrNPDO3BJspkPSIMdsbwuOi1wdgDT8iThAmoDgCVWg8vJ/Gfr2+dNXqpWHugv8+3Mf2U68A1hKWLY98XKVV6ylNCQzUqotlQJPMitXPszYvFdQuGk9ui16SEPy0lY5qPvzoPVGTKnzlWcwS9nTo6tZwB2WeNA2u3dCwWGGKPb6r7fX2kWcndrnP8tt967nU8vFgkOjz9XKp5WN+u289LnfkefQi7Tuca20jP+o03mOJtO/xkpIMtlQJZ6tGb99QQOrp1mjvUElNBas5jt/rzE5OdnrB5GDhknUMPjPl782zlyNONyBTOOspVkRKfuSvY+1Ue2Cg1kcxDWoqrdrMMyUO/QmJjdt5M2LS41Gee/JVtj39fPgH5+QVkZEAoOAdv+dKCMLfVVyBKtSw42zgiVM5j/PcN9ezfIpxHWCKgwfv28yqrOh3o+Ojjrdra/D4A8e1bh2VIceVyvIHnh86QVyOZaCWPnBqVU4qoAepQ49QHUkRT1YGPW3lj6PtzhGEe5cjV0KWJc6c12i4rHLDpfH5aZXrrRpFBSZS4kwUNt1IR9NGDp5c7rP8/uB3ee2DGbz623xe+2AGvz/43aiBoaZJNN0IM9loBJedGfT7Rn586ViPpd9n5rIz1oL8sbNYYFo+KIrGsRqV5msqTS0an5/WSEyUmFYQ71y4LnacqA482Wklz3x7E2unhblm2LKpXLKJrdNirRmN3/EDe6m944XEMtau/QEbSkJvUhxlj7N1ICHRWR3TQC3y1/PY9MA1qOFXvGZ4OlWoGm72WsGUzVxjMG8r55mvLcEO+DrOcGjoubKCMKFJG195eOx9NQH2Wev5TkUVWYGnMfn6XLjv+AALcrIdW8LAqElQOo5y6OSHHBjo9q7azLYSB/TXsWeESfFHNHsTL1WWIePk+DtvsMPQbJ/1OP9Uqdf8oHpRet14+nxgtWGflIrFBKgKzgvbo2dFAcjmyfXPsyBwR+3zjjwK1HV5Kz//G1D+PV5ZWIKFQHH/SDVcfWfZ8/v3OGJcLgj3gCtXNVqcKl+rMJNgGHzZ1wcXGlVcNzU0TSJ5EpRMk8ieEj7w+d2uaKNohvvm1+tYMHNsjzwdyamLufzxr6MvAlx3Xz0LZ8VwRzwKJy/ksfvT2POP//DYyMEygZKMk2c1khIl5pWF/gC3OzUuNOqPU5UkjSl2E6Uz9NKAcZG/kmeXrKE4MB82/W7aBp5MOCmLVKtVP3cDvu4GjtX+O7suDNT6r2PLxpVkodB4/Cdhn940sijb2sp55uEn9TEGgK/fjbtHASzYUrORA1+r0r6fD/4UW9f9g4++zJpAAifS9aSr9X1ePRB42kBQDx1qF+5ODz6TjN1m17+Xvjo+2r+dA8bHhgvCBGVesKr4p8aFo6XcquNI7d+4bZZJSU4lNXEytkmpJMspJEoqvv52Wlr/yqefvcM7J05zJTgJWbCMh+2p4G/nYm0NzUFNUWVW8IAjEyserp/+DON5Rbl1jk+vnKbPbCfdZiclMVU/roREVK+bG8797Kt+m52XYn3CzIOsXlLEwFSDJrN5xFfv7Y850gLLy7/B7IEJAk2h6w2+uE3DaD+/IEwQGWkShfkmzGEm/rdYIDtTorjIRHGRRIFDivikqtr60d1bK/1WCnNvIyeOeUj6MB0emUMnp9HZHX7e00j6vWamOzpItI4u2B6J504ih05O43Z3mMzjCOaWRu5IM5kkHDkS2Znhf4CkJImpuRLFRfpvlpstYbWEX3dMupo4UVfNZb+JDDkVWbaTPimVZDkV2aSi+jppv1nD0dP/m7eqq6m/Ffy7zmL5giKS8dFx/QAnbgY1RRVl234XpweOK9lOelL64HXOqil43DVUn/wN24+eI7YYsZxHFi/GHvibCLkmBL1QznGwMXCz1XWRI9fbybRPJS0pndRJqSQnyZjULtquH+A/D/7ffBbrJU0QJoBxyagKgiB8WUabUQVYOqeFR5Y2RHycaiw0TeLjoyUcPZdvbIrZ0jktPFjZiNU8UvdKbLx+EweOF4/6WKJlVAVBEO4mkW+tBUEQ7gFHz+Vz+GRRxHrVaDRN4vDJolEHhkZHz+Vz5HShcfGoHTldGPexCIIg3O3GpetfEAThyzLarv8Bza0Z9PVbmJymjLoMoMMjc/hkEdVn4g8wCRxLb7+FDFsvk5JGrk0M51bnJP56auzHEq3rXxAE4W4iAlVBECaUsQaqAM6babTe0kdDZtt7kKIkWDVN4vSlXA6dnMb5K+GemDR2zptp3OxIBiTsaQpmU+TP1e8zU9uYw19PFXHu8tiPRQSqgiBMJKJGVRCECWUsNarhFOTcpij3NnlTurCn3iEjVR853tEl4+6axPX2VJpupHO1dXTTUI1FUW4HBTmd5E72kG3vRk7Us6xKnxWXO4Ubt2xcbU2j6Ub801CJGlVBECYSEagKgjChjFeg+lUlAlVBECYS0QckCIIgCIIg3JVEoCoIgiAIgiDclUSgKgiCIAiCINyVRKAqCIIgCIIg3JVEoCoIgiAIgiDclUSgKgiCIAiCINyVRKAqCIIgCIIg3JVEoCoIwlee2aRhMalYTGrUJ0R9GRKtPhKto3vMqyAIwr1ITPgvCMKEMl4T/s+c3MmCrA5m2TvJs90hO1l/MpWrR+a6ZxIX3Gmcasvg4q0046bjLvgpWXlTupiUpD+Z6k6vlevtqeP6lCwx4b8gCBOJCFQFQZhQ4g1U52V28PUCF/dNdZFkibyvXp+Z6mvZHL6azdmb8T++1Gi6w83c6S5mFbYPPjZ1JEqflQvNU6i9nM1lp93YHDMRqAqCMJGYF6wq/qlxoSAIwt2qtn7s99ZrS1r4x/IG5mTexhJDF7/FpDE93cP8rA5UTeKie/yyq0vmXOOBRZeZlteB1aIam0NYLSo5k7vJz+4EJJw3U42rxGRuqaj4EgRh4og/ozqlgieXPsosux3ZBKhelDvNnKz9d3Zd0LvSxk5mQeXjPFRcRlaiVV/k76LNuZ89f6mm3rj6CFasfpm1ObJx8RDVi9LrpLFhL3tONuA2tguCcNcYa0b18bIrrJ/VTII5elAYTr/fxM4LhXxYN83YNGr3L7zCioVNSNLYTr+aJnH4ZBGHTo7+WCZGRjWVyoo1LJlWhkNOxTJwyAPn6sb9fFJTh9OwFaxjy8aVZBkXB/F5u3DfquHIid0caQ9uGdhWofH4T3jrfHDbAJkFC9dRNb0Mx6RULAMxv1/B03WJs+f/wK6GLsM20dmnPcRj86sosQ3t09fnoqFxJ7uOx3BNsi3l2bWPU5zg5Pg7b7DD2C4IE1h8GdX8dWx56JsUp8hYfW7autz0kEh6cjb5Uxcz3X+ME21jHRAgs2L183x7WgHJFjNKt5OOHgVT0mTS08uYNy0RZ/1Fhp1nRlBY8iAzU6ygevH5VFTV8DJZSUxIJyt7AfPtbg433TDuQhCEu8RYMqprS1p4el5jXAOlzCaNuZm36fFa4sqsLplzjVWLL485SAWQJCjM6aS33zrqzOrdnlG1T3uUf3r0O3wtbyrpCYmoPjftXW56ehVUi0xy0mSysitYPDMTb8tZmvuDt57F8gVFJAP4vfj8hnM9ZiyWRJJTiigtmkWi+xgXPcZtfXRcP8CJm8H7BWzlPLP2B6wqKCA9IRGTN3DN61UwJaaTPCmb/IKVfC2vn7aGppiuTQD2uZt4btkycpMSMfW7aPN00qNZscnpTMmsZH5WJ7WXnYyc9slmw5r/k7kpZsDD9dOfETbGFoQJKo6MajYbHvufVKZZUdp28uu91YN3t6VVm3mmxIHF28BH7/+SA4YtYzJ7Ey9VliGrLk59+gvevxL4M7Ut5dlvPE5xIrivbOPVwy7jliEGM6qdB3l+125jM5DKg6v/J2tyUgEXp/68jfevG9cRBGGsXDc1Ll3RWDLfREKivszn1zh5VqPjtnHtITOmS0wrkIYtG21GdV5mB/+08AIO2x1j05g4PZP49clZY6pZne5w842qC2TYRg47RqPDI/On6lmjqlmNllHVNDh/UUNVYV7Z8O8eDVrbNC40qvT1S0iSRnamxKxiE4mB3zUu+evYcv9Ksszg8xzloyO7Odw6/LuyT3uIJ5Y+SmEi+DoO8ps/7qZxsDV6VtQ+bT3fqarS36NtJy/srQ60RNg26LqD0sCRmvcMmVOZ4rnr2LBgKXYz+DoP8u6u3TH0+lXx/SfXU2j10ta4nbc/HcqeOso38U8Ly5BxU1/9M95uMGwaMHi9BUBkVIV7Txy31mVkJYFPdVL76VCQClBf/UcaFMBaSNnCoIZRmDvFjtUPStv+oSAVwHOUtxqbALBn3k/xUEscujiwbz/NXoBsCmZmG1cQBGEsNLh5S6O2XkX1D78nNpkkpkyWcOQaX5CUqCFJGinJwzYZk5WFreMWpAI4bHdYWdhqXByTudNd4xakAmTYFOZOj36zHiu/ChcbNZw3wucvWm7AmTqNhASJObNMTC8y0e6Gz8+o9PUZ1x6tbDYsCgSQnQd5d+eHIUEqgPvKft6srsatgiVjKWvKjWtE5r6ykz9c1b8zS0Y5a4wrhLHia2v0ILWvjj17fxmme1+hsfZDXj10kDY/WNKqWFsVw3VkYTkOK6DUcSgoSAVwntnOZze9gB1HQUlQS5D89Tw23YGlz0nbsMyyINw74ghUD/Lm77bywm/fYMdg18kAJ70+ACvyJH3Jg4++zLaNr/PS6grDuroFD/6YbRtf55X/shKA2sPbeOE/fsSL+2qMq4Ki6N0gCak4jG1jVk1b4FomJw7fq33aQ3znsRd55enX2bbxdbY9/SovbfgBT5YFd7k9xHNPv862jZvZYAtaDNjvez6w3Q9YO7xp8HP/84NBJyJbCWse+AH//ETg/Ta+zitPPM+zlSUY8yYrVr/Mto0v8+yilTz77VcD7/MyW1eG/54F4cvi9UJdg8rJsxp+vyEzB5gkmJYvMWfW8Fd+noTPJ1Ey3UymPXS70Zib2cEyR5txcdyWOdqYm9lhXBxRQc5tZhXG2iEcu1mF7RTkREhLx0IDTw98flKl+Vr4INXvB9dNlTQbLJ5vwpELxYUS5bMlenqgLWohZRQlayhNswJu6k9EyUa27ORYu4KvrwvfpCJja1SN7W79GmKVMZyuQ9keZWFOKqDQfH47h0Oud0FadrPnmhuwkuVYQ6Wx3WCuzQZ+UDrrOW5sBO749dI5izVceUcZ31lWhd3kprb6IJEOSxAmsjgC1QjyHiIvGcCNO5B4ONDchALI9gpWGFaHEiqm2AEF57WDxsYQKxxFyADdTRw2No6z0kXf47kVj1KalorF66Ktw0lbrw95UhELlrzAlqqBk2Q11z0AWeSVDt/H8oxAeGnKxjE7uCWb8gw70IXzaqBfx7aU76zZxIMFRdgsCp5OJ22dbrBkUzz7ezy3emlIsAoWCsvWUTxJwd3hxO310uEOE+ALwpeovkGjxQk52VBk6L4fidcLdRc1UmyQnwvEttmIZk/pjDgFVWrWPCq+8Rse/t4l1vyghYe/d4mKb/yG1Kx5xlWHSbL4mT2l07g4oqLc2xGnoMq2z+PbK3/DlicusfXpFrY8cYlvr/wN2fbIxyIneinKjS9Q7e+Hk2f8dHVDyXSJ9DDTtWpoaBokJUpY9H5mABKsYDZr+LzhA9xYrSieoQeNnWfY02JsDXVg70944XfbeOtveg/bF6a0BIcJ6G/i7BljY6j6i5f0zKhcREWZsXW4oYTMUWMTIGNP0L9on9eYwZVZsfpxSmUv7sb3eDeG70sQJqpxDlRTKZ23Xq8xMoGv/Si7BoqHzlfTrAAJRZQNC9aA4qU4ZMDrpC7CicCeU85jq3/MmhwZVDe1dfuNq4yd7VHybABe3ANBXt461paVIOOlrfGXvPq7bbz2xzd4bcdPeLu2AQUrWSVP8Z0SAIWa2/qdtN2+NGjHS3GkBGYsQCYjK6g7yLaErBSg30lDIE5dsXwdpZOs0NfA4YM/4V92vcFru37GCwf1LiU551s8XWmcwcCKRXJx6uBLvPrHN3j1dy/xVoTvURC+DIkJUD5bYl6ZCWtQYBPJtRsaXd0aJYXDg6Gxmp4+cp4pNWseS7+9k6zpj2C2JAFgtiSRNf0Rln57Z9RgNdK+w8mbYgw2hmTb5/H06p3MyH8ES+BYLJYkZuQ/wtOrd0YNViPtOyYmSE+TWLbYRIEj/P2BxSRhT4e2do3rraAFbiyar2mYTBKTQ++gR0FmarJ+XvN01UUf5R6nylyHnuxQXFwyNhqssAfO2YortsTI9QY6+gFSscXxndjnPsVCu55hHkxkBLWtyknF11nNrk+/4EBdEP7Oxi9QXbaZbRtf5DsVVWQlgK99L7/50/6gE04dZ291ATJ5+cO7pRcUFmEDPK6DIwy8KufZf3idras3sjzHjkV1U3v0Dd4dobh8dFIpnbeO5x59KHDX3MDJQB/MgtJyssxAZzV/MNQP1Z/4JYfaFMBOyUy9XKGxpQkPIKeVsGBgxeIS/ftwN+EG7OlLBjOi9rIisgBfZ4N+ArQ9ysIsOdDF9MvhWYWW3bx9sQmw4sh/NLQ293YN74u7auEuMrNYIidLChv0hKP0wtVrGlmZEhnpsW4VWWFat3HRoJLKHw4GqEZmSxIllT80Lh4m0r7DiRRM3lf+w8EA1chiSeK+8sjHEmnfsUiwQvlsU+SaYAmmF5mYUSxx7oLKnw+q/KVa5VYHLCqXSE2J5zcrwxYYjKX0jcuJPSx7TjlrVj3Pt6amAl7anPs5ZVzJIDWQ1VSUWEtIanAPjP1NGWMJVv46vrOgDBlQWvezK/grsT3E0wvKkP1OTh6LUiIhCPeAcQtUC016t3NbpxtFBcuUR3n28e+xNn9oneNNDXogN6z7vyzQ7d+Fs7luaOVhZLy9ere7u88LJjtzl73I1pXlYbrBI0hbOVjzOfR6ke9UrNQzun439WffG7xrnpGi793dvj9oVOmQAy16OYMltZDlAI11ekG7XER5nr6OPScbG+Bur9bvsidNZUlg++XZDsCL80ag3KGkiOwIXUzuOqceLNuKMJ7+PD3irlqY2G7e0uj3auTnSkjxxDwBZpOGLWHkrvbJBaFFSMGitUfat1Gi1Tf4WNRwpuVGfq9o7ZH2PW40aG7RuNioYc/QZwQoniahqnC2XuPO+I1XC2MdW0LO3YHXY+uMK+uj8CtD1926eiMPTs3GAijuQ+ypjj4QTZYGesS+hO8YIP9RnrsvMPNB50E+2Hc0KElSxIZVD+EwKzSf+yU7xOw0wlfAuAWqzdW/5NU/6t3UL+56h1qPF+QSVixaN5T9a9xPo8fQ/V+yRA8SlQZqRryRPsrbu/Ru91d/t3Ww291e+DgbjGUEkahefF7jS8HT2URj4252fPQz3q4dGGVagi0JQKHjdujIUwDcXXpBvmkSeql7DXVuPcuaVaivstyeBbhpa67B2e0FaxaFZQArKbRZQXXSfDKwv0myPsWI5GDJNzezxfh6oARZBbBjN3zuLzILIQhfNJ8PrrvAZjORahuHKFUYd9134MpVDUeuxKJyE7nZEsWFEssW68Hqxcsq6pjLVJ0ogVHrFmu40fI+vMZz98ilxzq/8Vzvxdfnoq3tDEdObOPnu/fGlI109ennf1mOdehuOfZActzTPbqxAvZZj7P1/odwJICvs5oPPxmeMS2tWs/CNCtK624+ODnCdUkQ7jHjFqgO4znDu2fq9FGIaTOCsn8ujra7hnX/Vwa6/d1t0btgBtSf+HdOur36fhyjmJvEU80L7281vH7Cv+z6BW99epDjYx2Qq3kZSCYcbnPiA+wZK4EKvT617xoN1+FIhxtIJSM7G2aXkGUFPE0cMewOaypZGY4wr2z96V+CcI/puQPdHpXsKYxLbSqAX5Xw9A9kw0Lduhq54jBae6R9G/V5LdzpHXn9Kzciv1e09kj7Hi+ebg2fFxw5wzPecpLElMnQ5dHwjXmKJBdN3XrgZbdVhOkp28vPjefuK6HPpRqi0FhjPNdv5YXfbeO1ve+wq9YVcx3sYXcg6ypnhxkIHIatMFDGoOAZxcQQpYu+x/eX6POwKu79vLtrJ6cMZdDzMvX5UuWcx9k6LFv8FMUJAA4qN76uzwQzmiSOINzFvriwpyEw/YdB48k62ga7/8uYN1mfZP/qxehdMEMU3P2BJ16ZxumqFqIBTy/6AKh04+ClgOzJeiZV8zL4/K2Tl3CpYEkrYUVxmV6f2tXMEcB9w4kHsNvmsSAnGxlouxlUx3tH0ffjqebVd37E8yO+wk9kLQgTVUenhmSCyaOfQz+i5s4U46JBDcf/Db+v17gYAL+vl4bj/2ZcPEykfYdzvT3cFEO6T8/8G74RjsXn6+XTM5GPJdK+J4rDN/SbfNLLWBUonbor1DfgVPWewHkLR7gWBCldVK4/wlW5RE2M5+nSqs08M7cEm8mLp+XDEbO9tzqd+swzIS8XikogOHbS1tGEO+55bQXh7jD2QLXsKbY++SrbnvweDxrbAMqn6nfFqnd4wOrZT4Pbq3f/Lwl0+3saOGqotXnsG6/yytOvs3VFuG6g7MERoqHTdoyfS916CGmf8lDo4CXgwZzA00B6nEFZ0cA0VQnZlBQG6lM7A1OPNDpxewFbGfdn2PWSgOCHGTRc04PWZAcrok7uJwj3CE3P1slJEnLS+Hb7X7498h9SV9tZjv5+PW2XPx4MWP2+Xtouf8zR36+nq+2scZNhIu07nEjBpMt9lt/uW8+llo8HA1afr5dLLR/z233rcbkjH0ukfY8XW4qExarPzKAFdfErvRrttyA5WcIcT2L3zE5OdnrB5GDhknUYZvn7+/Hs5YjTDcgUznoq8rk5fx1rp9oDA7U+Cjs3qtHQk6X0p1O9eSC4JnW4A395Q595JuS1n+s+9Dlo//gGr/1xOzvCDawQhAlo7IFqXRMerGAt4X7j3J75K/n+7BK9YL21mj3BbSgcdjn1P/oSfd68NtfekMFKZz1uLCawFzzFhqABWSCzfOVG5toAv5P6+i+uNvNU/Rna/EBaFd+6b/hk+6WLvsf9WTLQRWNj8DRZA9NU2Sl1BOpTB4PRgzR7vGAtwpECKE2cCQ7QPfupvamAqYglq9azYNgJUWbBfZt5ZePrbHtiU0xPUxGEicCnaii9+vyc5nHuIDnfnkavb+RHhna1naXmT9/lz7+cwUe/yOfPv5xBzZ++GzVI7fWZOd+eZlwcUdONdJS+kSM5l/ssvz/4XV77YAav/jaf1z6Ywe8PfjdqkKr0WWm6EWbi03GWMgkKHHC9VePz0yrOG9B8TeX4SRWfD0qKJMxjv6IALnacqA482Wklz3x7E2unhclg2rKpXLKJrdNirRmN3/EDe6m944XEMtau/QEbSkJvDBxlj7N14PGvndUxDdQafLIUXtoafsVrhtllBEEAaeMrD4+5/N0+dxPPLdKn0MDrpq1bAauNrBT9j1gvBg+ts9Gf4vSoPh2U2sSRXb9gV8g6RWx47H9Qmaaf2JVuJx6vBTklG5sVPUA8+a+8dSZ6RnXF6pdZmyND50Ge37Xb2BxR6aLv8cTcEv0z9rlou+ODRDtZk2R9ztXm9/n1wTPDTy55j7P14UDw3l/Hng+2D84kULzyxzxbqIe8nmvb+ZdPDDMd2Jby7KOPUywDqoLH40ZRLcjJ2dgS0O/UG37Fa9X6KP+Bz9bW8CNeG3hktSDcZa5c1WhxqnytwkyC4Znw/X3wtxo/Gemm0GfLh/G7XdFG0Qz3g8V1PFB4w7g4Ln9pzuUXn0eZzT2Mb369jgUzx/dYTl3M5Y9/jf1Y/uGxkQN3AJ9f4+RZjaREKeT30ABXm8aFBpW+fglJ0picYWJmsRR5aqvRyF/Js0vWUDww/3S/m7Ye/WbfMimLVKsVSyAg9nU3cKz239l1YSAZsI4tG1eShULj8dGWSEXZ1lbOMw8/yVz9AoSv3427RwEs2FKzkQNfq9K+nw/+FL7r3ujBR19mTdZA7+DIswp0tb7PqwfCTAUzqIJnn3iK4gQnx995gx3GZkGYwMwLVhX/1LgwVkpbDWe6VKakZ5OelI5tUirJCYn4+t3caNrJOx8f4FLY4vrLJDtWUJJshY7P+MXZy8YVgNucrz9Gj60IR0oyyXI6yXIKiZIXpescnx37NR9c6DFuFFZhyYPMTLFCXxN/rr9obI6o/cbnQ59Rnqx/RjMoSgvnTv5/+OXnV0NrcT19zJxVyRQr+Nx/4+1LQ1NHdcjTuc+RjRWFaxc+5MTNYVtCv5MTVy+TaCsgKyWdZDk16HNf5NSZX7G9ZuhOfeCz9bg/5oiYR1W4S2WkSRTmm8JmTM0WKMw3kZ0ZPUgFqK0f3b214rUw095FaoSnQo2G0zOJ39cX0XYnTLYvCq/fTH52J3LiYFV7XDo8MtVnCunwxH4sc0sjpz1NJglHjhT295CAlGSJonwTxUUSxUX66P+EBOOacehq4kRdNZf9JjLkVGTZTvqkVJLlVGSTiurrpP1mDUdP/2/eqq6m/lbwdzmL5QuKSMZHx/UDoefXiKJs2+/i9MBxJduHrnlyClZNweOuofrkb9h+9Byxjcst55HFi7EH/iZMZvOIL5RzHGyMdIOTy+J55djNHq6f/gxjjC0IE1lcGVVBEIQv22gzqgBrS1r4zvxozyCKzdunZ7CnYVg90qgsmXON1UsvIUnxnXo1TWLf0RkcOzfV2BRRtIyqIAjC3STyrbUgCMI9YE9DPr87P41+/9hPef1+E787Py2uIBXg2LmpHD5ZhKaFZixjpWkSh08WjTpIFQRBmGjGftYWBEGYQD6sm8Z/1BbjVgxFsjFwK4n8R20xH9ZNMzaNyaGT09h3dMaouuwHdHhk9h2dwaGT43MsgiAId7O4alQFQRC+bKOtUQ120Z3Glds2VM1EXsodLKbI++r1mTl4NZcP66bx6bVwU+WNnfNmKu23k1FVibSUPqwW1bjKMEqflXOXs6k+U0ht49iPJVqNqiAIwt1E1KgKgjChjKVGNZyZkztZkNXBLHsnebY7ZCfrwyJdPTLXPZO44E7jVFsGF2+NbhqqsSjIuU1R7m3ypnSRN6WLSUn6wK87vVaut6dyvT2VphvpXG2NfxoqUaMqCMJEIgJVQRAmlPEKVL+qRKAqCMJEIvqABEEQBEEQhLuSCFQFQRAEQRCEu5IIVAVBEARBEIS7kghUBUEQBEEQhLuSCFQFQRAEQRCEu5IIVAVBEARBEIS7kghUBUEQBEEQhLuSCFQFQRAEQRCEu5KY8F8QhAllvCb8X0gai8hgDjbykZlKEgDX6KUFhXN4OEEHJ+k0bjruVL8fTfWjqiqaX0VDPy1LSEhmEyaTCclkxmSOf7J+MeG/IAgTiQhUBUGYUOINVBeSzjqyWUtu1C4lFdjDDXbj4iS3jc1xU/1+VJ8Pv88HgeB0ZBJmiwWTxRJXwCoCVUEQJpJo52lBEIR7xpNM5aeU8s0YglQCJ8hvkstPKeVJphqb4+L39uPr68Pv88YQpAJo+H1efRtvv7FREAThnjR+GVVbNivmrmPJ1CLsSTKWgauA34vS3UBtw24+qXXhNmxG1Wa2lTiMS4eoXnxeN83N+9nzWQ3O4LbZm3ipsgwZJ8ffeYMdwW0DbCWsWfwwC7ILsSdaBxf7+t2422o4dHovx9uHbTF6+evZurIKue09XtxXY2wNSGX5fRtZlV+ELUFf4utz0XDpQ94+0WRcWRCEEYw1o/rfKeSfmIZkbIiRBvyaK/wvmo1No+bv78cXZ7BpsSZgTgicTEZhYmRUE8nLLWFqRiY2SwKmgeuJpuLzenB3NHL5Rjsew1b3llwWz5tHhtlHh/MAn980tgvCV4N5warinxoXjpajfCPfv3898zMzSbZaUftdtHs66elVMCWmIsuZOPKqWFRgpvViA8PiwoJlPGxPBcDn9aKq6vCXyYrFmoJ9cjnzp6q0XLpMx8C2mRU84MjEiofrpz/jfPB+Afusx3nuwceYnWFHtphR7rjo6O6kxw9yYjq2tOnMKVnGTGszx2+MsVvPtpRnVz2Kwwq+7rMcbLxhXAOQWbF6C98syCZRUvB0tdHps2KblM6UrArmpzRwpGWM7y8IXzG19aO/t36Sqfw/KR5zkAogAYvIoAcfZ+kyNsfM740/SAVQVT+SxKjLAOaWxpJL/vuR00uonLGQqbZUksxmNFXhTl8vXp8PTFasVpnklFzy7MmoXS46x3bfMgHYyMvORjap9HqucP2OsV0Qvhrizqja527iuUVlyICnbT8fHQ/NUDrKHufpRUuxm0G5/h4v/jko6ziQUe2vY88H2zkcvCEAMgvu+x6PFzuwoNB88ie8eSbQFCGjGvW4bNmsWLyRNQXZWPDS1vArXqseZWYzfyXfX7aOQln/v0pr+IyqfeH32FJegsXbxJG//oJdLfpyR/km/mlhGbLq5Pgnb7DjunFLQbg3uG5qXLqisWS+iYTE4W137kB9g8atDhVNk0hLlZg5HTLSJD06NBhtRnUh6fyUUhyBwVLxctLLT6kfU82q6vfj6+tF0+I67Q6SJAlLYtKogtWwGVUN3LfhQqOKp1tflJIMpSUm7OmBKD2g47ZG3SWN7h6QJHDkwozpJqyWoXXGLG0WywsLSTaB2uekoeUizd3eYavI6dOZN7WENAuoSjMnL1wI7am7J4iMqiAQf41qBRvm6cGg0vohb+4NDVIBnHUf8utTdSiAnPcQT+YZ14hE4dSn71HrAZBxTF1pXCGMCjbMjXJcHheH/7KNdxuc+LCSNX09G2I+rlSW37eZl1bqQarPP/xEOpzMqsISLEBb8/bBIBXAeWY7h9oUMDkoLS0J3kgQ7g0a3LylUVuvovpDgzNPNxw9qXKrQ2OqQ2JemYTZrPH5KQ1Xe+j6Y7GO7HELUgEcJLGObOPimKg+37gFqQCapqH6fMbFo+Zq1zhxRr8BmDPLxJxZ+qXhxBn/sN/B3aHx+WkVSdLXm+oA5w04fU7FF+b3HZ1k5uTm60FqbzOn686FBKkAyu3LHGtpoVcDk+ygZGw/hSAIE0RcXf/2Jf+Nb+akg7eBv36yi7MRerOUNid5xUtI83vovPMZp9sCDQNd//52LtbWjFD91UNGwQpmplgx+W7w5/qL+uIRuv6Dj+uTXbtCSgKCtbfcwFGylKzEVFITWzh8xRjRhlH1fX5Q4sAqeXFf+0+2t2fwNXvqCF3/K3m4cgapkpsrJw5w2lBUdcU2iwey7chmlct154bKGiKZvYmX/stKMgc/cwXPPrGF/2PRah5eMPBawXTvAU4M3oWHW2foNT/lY44EgugVq1/m+0um0zfs91jHlo3P8tjANtMSh36HMFasfpnv3/eNYfsNUbWZbQ/+t7DrbHjsdf5xafAxziU9THlH+M9l/OyB/ZUOHLO+zQNpoe8rjB+vFy5eVrnQAJomYbHA1FwT5oHMmwaXr6p0eTSWLDQxNdeELUUiN1uitx+uuzRysiSMycLRdP0vJI0fMSNcYjYuM7DxOR200mdsGpGq+vH1RzhJjpGmapgsZiQptryDsevf54Pzl0CWYXG5ifQ0SLVBTpaEuwM6uiRyMiU09My31SKxaL6+XqZdIlmG5msatmSJlOQ4vmn7bGZPtmFG4WZLDVcifbV97ZhTC0k39dHr6+J6V2DlzAoemDmPaSk+EuzlLCgopSSnmMKMJPztN/WCjUQ7MwsrKM8vY0ZuMcU5xUzLzCMnyUtnZzfBv9Cc0kdYMLWYHGsjLcZqj/xlPDx9NsXpFi6339KXDb7/HW6Z8lk8fQGleSUU5xRTnJlHdlIftzp7MN5a2KaUDVt3mj0Na383iWmi618QYjuzhSWzKq8IAOXWUT6KWtXu4v2dW3lxxxu8e9bYNr6WZ+uDs5RbNRwwNoZoovqW3nFky1zCcmPzCJTOMxw+/BKvflI9fICXUZkDuwnod9EUrmu/qwsFICGVCEPKglTw7PwyPA0DpQ7r2LLxKYqVgzz/zo+GXg1uiitfZ0uVYfNOw3rv/IjnG5xklYRZd9A6tmxcia31vcA2B2lLW8lLqyuMKxoo2ApG2u86toQdRLeOLRtfp1KuY0/QMe5ptVO50bivUX72QTW8dboOW8lmNhibhHFT36DR4oScbCgqCA1gfKrefZyRZiIlZahdksCRI6Hc0ejyxB6UhrOIjIgnuaSZk8n/2SpK9z3D7IP/J6X7niH/Z6tImjnZuOowpsC+R0Pz+yOO7q8onc4fXttK96cf4D/+e7o//YA/vLaVitLpxlUNtMC+x6a3D/r7VCbb9ZuJAVYrZKRL9PepqH7o7YWuLsjKlLAOjUtlsl0ieZJEuzvix4uq0D6ZBIDeNi7GMHXtlUsH+KS2ms9bQle2TJpBYYqM2u+hp78fvF20AKQVsmTGYgpTk7FI/fQqHnp6FTDJpNjnsaR0FlOMOxuLhOksnppPsqmPHsVDT78PzDIp9vksmTb8HabkL2PJ1HySLSbU/h56lB5U6xQKC2dhC/2zEYSvnEjn8CjKscsAXtzu0LrM8VVGSZpeCOrpqjM2GlTgSNHPop7uo8bGsBrbXHqwmDg5tmCx+g1e3PUOe64oxpZQUtAZPZzGoUA1lh6sFavXU0wdx6oDC6pmkIWT47t2D1+x+g2Od0JWwSZWDG8JNbBu5jpjCwArVi8lCye1g/W3u3mtwYmcszJKoOfGo4Tf74rVS7F1OvXPPqiCZ59YSVbnQZ431Csf3veTQED9Ms/ODiyM57Of305tp4O5UYNtYawSE6B8tsS8ssj1i2ZT2FJUNE0arJccqznYjIsGJc2cTNEvvoGtqgBTop62NSWasVUVUPSLb0QNViPtOxzVrxoXDaoonc7h7T/jm/dXIifqI/nlxAS+eX8lh7f/LGqwGmnf0aQkw4plZooNNxN+FTw9GhaLhGQCpVfD64OUScNWw2KBZFnijqLhU8caqVpJDfwj6e+7aTgvjIEJet1H+cv5zzhy/iB/aWjRSwtyZui1rb0tnK0/yF8vfMaR+r/ySdMFOn1gSipkjiGQHAtLQjJ01/G3M3/lyIXPOHL+ACfdPQAkpBRQOLCibRYz7TZM+OhuO8on56s5cqGav9R/Tmu/ZWj2HEH4CovjzyArMM2Sj1797+8LIFM8cyXfWb+RUhlQndTXNxhXMrCTZAFQ8ITeaId33hWY5sSOfSAIGi9pqcgAfW5qjW2jVkGZXUZx1wwGcStS7IZ1huzY9aOQgC8iOTtsYJcty9B5afj0X9WXaMNB4YhZS13zTSekzTAEtBWU2eH6TUNfWtVKihMUGi8aAs8B1Qdp7JcpnqkHvvF+9h03Ywm2hbGaWSyRkyWFDUIBzCaJxARwd+qZ1UEatLsHns0Un3z9ry+szI0LBgNUI1OimcyNC4yLh4m073A0deRg8p83PT4YoBrJiQn886bHjYuHibTvsWq/peHu0MjO1LOrmqrfVCQkDv9F9ZkHoLdXQ/WN9GtHM4XEwM2M1zcOQ6M0D66rhgtARjFTZBNoHlqddbQGlxZ0NnPsphsVSLAVEf+IAQ9tLS3Dps9qv9pOD4A5kZTAMvvkLJIl4M5VTl0POt4+N2edTnqHlgjCV1YcgWoUszfx0sbX2RbmFbbLOKGMtSHrvsyzy9ZRarMCCs4LO2MYGS9jHfhU43/u/vuaXUFegsL1lqEM9uGWJhQcYbrFR6NCz44rrjCBnd6mKOELHGwpYX7LYNWXaDPeAMyuII8m6gwFuStS7NDfRF1oIWpADXVuZTCgjvuzxxhsC18MSYLCqXpgc/yUSmOzxg2XxudnVFpvapjN8YeqA49FDSd5ceT+k2jtkfYdSkPTRj4hPfy1+cZFw0Rrj7TvsXB3aJy/qJGRLlE4VT+h+lVA0tCrVb9ss1i+4BEeDvcqnWVcGXxK6ARiKcl6aUH/bS6HK1Vz3dCnujKlkB5vUtV3h4Gy2SFd9BsqNHIT9Zud3t7m0Cyyx0WYsWSC8JUTR6DqQfECWLAYppsBQFNQvF58wa8o59Jh6wZeSreT5mt72bPvZ/z8WCzTRznx9API2GItISuzBzrx3LhHDJLGqDPQtZ9oZ66xbZRW5BchG4/x/HZePK7PqJBVEhTkPxGh29tgxer1FCdA280RMplx2U1zp0xe/lBAuyK/CIKywgOy5RgzVANlEnF/dv3fStRgW/jCpKVKVC4wkZICjVc0aus1UpIlymdLmM1jzc4JY6aBqw1OnNFITobyMtNg3arZBGgS2og58nh04Q0EcWZzsrER8KMZ59iOdD3x99FqWJQT+CA+b+CcHOJ24BgsmKJUbEXl69VrYqORAFT6vOEiUndIYCsIX0VxBKpHabsDYMVuLzM2Qt17vPr+Vl4Ien3UFv70AEB/HR8Z1n/h/a28+Ps3ePOT/RxujbDtMDU4A7ehsQYgdvtkvROvvwuXsTFefUrICM9higOlATG8d7Ysh1/v/HZeHBx0FPieAhnqkOx12sqQDPfaHGg8/iNeG6h7HWcuRUG2VwSCx3UsyWFYVjguo/nsIWpwKyDLkTNnwhcrJRmWLDDxyEoTD99vorREQvVLePshKdxN8Chci9B52vN5+F6CAdHaI+07lBRxVP6f/3bauGiYaO2R9h0rDbhyDU6fV8maAhVzTQQ/+Eoy6VnV/r7hGVVNA9UPSUkSJstYs6093O7Xz5RJCblhiioa+OzMfj4JfnWES4uOB33wmCAId4c4zm4KNW49ZLJlVcWYwfpyHHHpFxh58lLWRB3vUMTaHD1Q8bRVh2T54tbooksFEuxMDXcs9kA2d1xqWAODjt75Ec+/8x6N/YTWYIYb9f/OT3hrvDPJQQ63NKEkFFE2OzAAaoTufZcS481IuGA9ls8+khFqc4Uv3oVGjc+OqxgTSh2dGiazRrJh4M5otYyQOwO4+c4p1L7wEYna5+fmO6eMi4eJtO9wpMHngIb6l+0fovSFn7pK6evnX7Z/aFw8TKR9x0LT4GKjxqVGlcJ8ifLZQ5nUAXKShNUC3YZpknw+6FE05CSwmMaebW32dOnVWnIm08OdK+PUGphv1mINJAdCDNTJql9e2ZgGYCIxeBqFQVbi+DoF4Z4R19mt8fB+Gvv1DNaq1UsZeWjLl8t9bD/1CmAtYdnyyMdVWrWe0pTAQK26aDMKjEU11z0AdjLLQk+PD07Rx/p7bp8Z56er1PDWVec4DBCLnHX0dMeQGT1fw/V+vft/Q6Zj2GCwYIe73TAQ0IalDyYLX0sbbJSfPer+hC9Kagp4eqAzaBqq3j4NZ6tGeppEcjzzcgLnIjwNvvfiLZp+8Cc81VcHA1a1z4+n+ipNP/gTvRcDc2OOINK+wzGZRz7d1tRfZsWmH/PHQ8cHA1alr58/HjrOik0/pqb+snGTYSLtOyoNmq5Bc4vGjGITs6ZLSGG+9qQkSE2FtpvasBuLW26NnjsamZPDP0ksZq46WntVkGzkOMZpmqhg3T36HKkJ6eED4exMbCa9bK0rMJ12dyC4tVpCryIlSeFKFEbnRmAkclJySeh1KrGQlPDj6wThKyWOsxtADTvOBp44lfM4z31zPcvDnV2mOHjwvs2sygoN1L4YdbxdW4PHHziudeuoDDmuVJY/8DzPlDj0R6hejmWg1lgofOJswocVx8zvsSF/qMVRvon7s+QYZzMIZByHTWNVwbNPvM62x0KnfxoSf92tS1FCR+4HpoZqjqlcQB8EJdvXMzdt+GCwYQyj+kMMmxVgPD575IFiwhdvsl0iJRnOnNdoatFovqZyrEbPsJYUSXpdZBxO0BExOdZ78RYtP/6E+tXvcn7l/6Z+9bu0/PiTqEGqGtj3aEhm8/BnkRrU1F/mW1teJeW+JzBXfpuU+57gW1tejRqkghTY99h034GmqypWK3T3qJy7qHHuwtDr4mUNr1fDbIICh0RXt8bxUyrOG1DXoHK2Xh90NcU+8meLTQ/nbrTQo+rTRM2fXcHM9DCZxsRk8qZW8PWMcNFmBB2NtCsDgXAZOcFlJWmFLMm0YwJ83VcZeJSJx6uPiEpILqIwaH1bdgX5yXH+4wTcrTfoVoFEB6UF9qBMbxpzphURNL2wIHxlxf2X5q7dzs//Vk1bP8gZVTz2jdd55R+eZ8s3N7Plm8/zz0+8yrZvbGZNsQPZBErHUQ6dHyFQGU/n3+PN40dx+0G2r2TDo6/y0obAcX37RV55+kUeK8jGoio4637Fa9WxDNQaG/fxDznSroDZQeXKl/nnxzaz5dsv89zCMuRRBMn6KPfgLGEgcxh28v0Kni1woLQeHD6t1Bgc3neUNhxUDgaF+mT9o9m3ni2VkUfo9tfV8NYH+sMEjAOiVqx+mW0lDtoaBsoUxuOzO7AlxJgVFr4QCVZYVG5isl3ver7QAEmyPsAqLTX+q/RJOtmD8Wlx8dvDDU4S6/x3OpPJjNnYnz4OzBYLJtPYA9WOLv0pYl4v3GgF5w1t2KvVpaKp+m+RaZdYVK6/17kLKtec4MiF+XNCSwXGpPMCR5ov0NGvYkqYQmHRAzw87+ssn7WM5bOW8fW5D7GqtIo5U6aQZAK1303LzWiB/IAezrVeCsyXms+80pV8fdYylpd+nVVFs/T5VfucNFwb+vcyGEhapjBzYP3ZD/K13CmYej3DnmI1Jn2XOdXajg8TyfbF3De3iuWzqri/fCl5SUQeMCYIXxFxPUJ1gHKrjiO1f+O2WSYlOZXUxMnYJqWSLKeQKKn4+ttpaf0rn372Du+cOM2V4HlDYnqE6ghGeITqAOXWOT69cpo+s510m52UxFT9uBISUb1ubjj3s6/6bXZeum3YcpQCnyH8I1QBerh46XN6bEU4bJnYklNJTrDi63Nxsf4d3jwaY5B8E2bNriAvoX3ofVo+48+nE1l83zeHHm+6YDUPL5hBR81WXvvbwPHksnheOXZfU8RHnwIUljzITPl20O9xkSOnE5m/dGXgPYpI7jzIj/90yLjpoMKSB5mZogz9Li1TmL+gCNPNj3ln4NgDv1+/O/hRphc5cvpj0kue4oGgR6jOTGnj+DsvsT14KG3Mnx3mlK7GgeGzV63lMbuH87tD/+0I4ysjTaIwP+jxqUEsFsjJlCgu0l+OHGnYIB6j0TxCFaALP4tIJ5Uwbz4GTnr5Nc20jmowVYAkxfUUKSNJkjAnJIyqRtX4CNU0G4PffbjXsN9N0h+1mu8Yas+cHH/me5i+Tq7fbOG2akK2JGK1yCQlJJJgTcQiaWhqL3futOJsPcWJqy16lnRAci7TUidh8nUOPdY0WF8nzs4OLIlppCTIJCQkkmCxoqkKPbfrOdl4mZvBP4+/g2u9PtLkVJIsCVitiSRIPno8DZy/5CUjJ52E4PeK+P428rKzkU39eFqvMfCEZ1/PDVxeiTTZRpI1iQRrAmZVoft2HR2mHFIs4hGqwlebtPGVh0d31hf+rlasfpm19ib2RJnMXohuw2OvM1d5jxcHn7glTAS/2zX6QO9JpvI/KYnQ8R4bDfhXGnifa8ammPm9/fj6487FAWBJSMBsjRDVh/EPj409+yoIgvBlG8/7YOFLcHjfThopY4mYpD4+szcxNy34sbDCvex9rvFrrsQ1Vb0G/JorcQWpAGZrApZRBpfhWKyjD1IFQRAmGhGoTjg1vHW6DlvJ5timXhLCqODZ+WV4Gt6IUsMq3Ev+F838Kw2M5cGUTnr5Vxr4X6MrThqROSEBS0LCmOY/lSSTnkmNVB8hCIJwjxBd/4IgTChj6foPtpB01pHNWnKj3qmrgYFTu3Fxkjhr2cNQ/X5Unw+/zzcwqWYEkj5wymLBFMcof9H1LwjCRCICVUEQJpR4A9UBC0ljERnMwUY+MlNJgsATp1pQOIeHE3SMenT/WKh+P5rqR1VVNL+KFghaJSQkswmTyYRkMscVoA4QgaogCBOJCFQFQZhQxitQ/aoSgaogCBNJtJ4vQRAEQRAEQfi7EIGqIAiCIAiCcFcSgaogCIIgCIJwVxKBqiAIgiAIgnBXEoGqIAiCIAiCcFcSgaogCIIgCIJwVxKBqiAIgiAIgnBXEoGqIAhfeRYkrIGXBcnY/KVLtPpItPqMiwVBEL5yxIT/giBMKOM14f88UlmKnXJSKWQSjsCTqZz00swdztDFUdycpcu46bgryLlNUe5t8qZ0kTeli0lJXgDu9Fq53p7K9fZUmm6kc7U13bjpqIkJ/wVBmEhEoCoIwoQSb6C6mAweJYtHyEaO0qmkoPIxLvbSxud0GJvjNt3hZu50F7MK25ET9eB0JEqflQvNU6i9nM1lp93YHDMRqAqCMJGYF6wq/qlxoSAIwt2qtn7s99ZPaFP5oVTMItKxxtDFb0WiFBtLyEDVoFYav+zqkjnXeGDRZabldWC1qMbmEFaLSs7kbvKzOwEJ581U4yoxmVsaOTgXBEG4m4xfRtWWzYq561gytQh7koxl4Fzo96J0N1DbsJtPal24DZtRtZltJQ7j0iGqF5/XTXPzfvZ8VoMzuG32Jl6qLEPGyfF33mBHcNsAWwlrFj/MguxC7InWwcW+fjfuthoOnd7L8fZhW8RAZkHl4zxUXEbWwD79XbTdqGb/sf2c8hjXFwRhvIw1o/rfKeQfKSCRsWUU+/Dz71zlf9FsbBq1+xdeYcXCJiRpbKdfTZM4fLKIQyenGZuimhgZ1VQqK9awZFoZDjkVy8Ahq16UXieNjfv5pKZu+PUAgHVs2biSLOPiID5vF+5bNRw5sZsjw879A9sqNB7/CW+dD24bILNg4TqqppfhmJQadJ1T8HRd4uz5P7CrYfQ3M/ZpD/HY/CpKbEP79PW5aGjcya7jDaHXzWWb2TYzwnWz8yDP79ptXCoIE9K4ZFQd5Rv5/v3rmZ+ZSbLVitrvot3TSU+vgikxFVnOxJFXxaICM60XGxh2bihYxsN2PTPg83pRVXX4y2TFYk3BPrmc+VNVWi5dHuqAy6zgAUcmVjxcP/0ZxvOKfdbjPPfgY8zOsCNbzCh3XHR0d9LjBzkxHVvadOaULGOmtZnjN24bth6JzIoHN/NfS4qwWczQ56LN04NqnYw9YwbzinLpu3qa5n7jdoIgjIexZFSf0KbyA6kYS5Su/kgsmFhMBh7NF1dmdcmca6xafHnMQSqAJEFhTie9/dZRZ1bv9oyqfdqj/NOj3+FreVNJT0hE9blp73LT06ugWmSSkyaTlV3B4pmZeFvOGs61s1i+oIhk9CSJz2+4nmDGYkkkOaWI0qJZJLqPcXEwsTCwrY+O6wc4cTN4v4CtnGfW/oBVBQWkJyRi8rppCxyXKTGd5EnZ5Bes5Gt5/bQ1NA2/zkVgn7uJ55YtIzcpEVO/izZPJz2aFZuczpTMSuZndVJ72YkStM2KOd9gZoo1/GdUVdQ7V/jkUkPQFoIwccWdUbXP3cRzi8qQAU/bfj46HpqhdJQ9ztOLlmI3g3L9PV78c81Q40BGtb+OPR9s53DwhqDfwd73PR4vdmBBofnkT3jzTKApQkY16nHZslmxeCNrCrKx4KWt4Ve8Vt0UtMIIBt/TS1vjdt7+dOBuN5UHV/9P1uSk4nPv5bXd+0PvggXhK6SvDy40qrhugqaB1QpFBRIFDgnzCLGS66bGpSsaS+abSEg0tupGm1FdTAb/L2ZQyCRj05g0c4f/N5fGVLM63eHmG1UXyLAFhx1j1+GR+VP1rFHVrIbNqGrgvq3/Xp5ufVFKMpSWmLCnw0CVhAa42jQuXtbo7dWXpafD7BkmUpKHdjdm+evYcv9Ksszg8xzloyO7Odw6/LuyT3uIJ5Y+SmEi+DoO8ps/7qZxsDV6VtQ+bT3fqarS36NtJy/srQ60RNjWtpRnv/E4xYmA0sCRmvcMmVOZ4rnr2LBAv875Og/y7q7d1AetEV4V339yPYVW4/UEHOWb+KeFZci4qa/+GW8Pxp3ZPPPt55mbotB44ie8VTu0N0G4F41wuYhVBRvm6cGg0vohb+4NDVIBnHUf8utTdSiAnPcQT+YZ14hE4dSn71HrAZBxTF1pXCGMCjbMjXJcHheH/7KNdxuc+LCSNX09G2I4rjVFJciAr/2jYScV6OLAvg+pV8Bir2BNDPsShHtVb5/G8dMq7W6YXiRRPlticgZcatSov6ShGW+PNbh5S6O2XkX1Gxvjs5bscQtSAQqZxFqyjYtjMne6a9yCVIAMm8Lc6S7j4lFztWucOKPfAMyZZWLOLP3ScOKMH1d74PfQoKkFzpzXmCTDvDKJWSVw5w4cP6XS2RXv75bNhkWBALLzIO/u/DAkSAVwX9nPm9XVuFWwZCxlTblxjcjcV3byh6v6d2bJKGeNcYUwVnxtjR6k9tWxZ+8vw3TvKzTWfsirhw7S5gdLWhVrq2L4N7KwHIcVUOo4NOx6As4z2/nsphew4ygoCWopw5YI4MYtglThKyCuQNW+pIriBMDbwGdHjkbMILprd3PB40W548My2dgajYtrPfoJy5JgMzaGsC+p0k8q3gYO7Yt8XPXVO6nvBkwOSsvKjM0G2WTJek2q230wzH7ruN7tBbLJG0Xp2IbHXuel1RVDC2Zv4qWNr7Mt+PXEJlYEbxRuncHXZjYErbrhsdfZ9ti6oCWBTHbQNluqhjcPV8GzT4Tu12jDY8PXWbH65dDjHtxX8Otlnp09bKVBK1a/HMO669gSdrnw9+K8odHXp7F4vkRxoUROlkR5mYnphRI3WlW6guq4vV6oa1A5eVbD748+wGk0FpPOqogVi2OziiwWM7qpogpybjOr0HjHHL9Zhe0U5MRauhTK54MrLZCWJlG5wIQjFxy5ULnARGqKxJUWfR2lD662qOTlSCwqN5GbLVE41cSShRKSBM3XwtyAjEbJGkrTrICb+hNRspEtOznWruDr68I3qcjYGlVju1vvSrfKRL2i2B5lYU4qoNB8fjuHI41BaNnNnmtuwEqWYw2VxnaDuTYb+EHprOe4sRG449fn0rVYg8o7ih3YrYDi4tLQUkG4Z8URqMqsytNPEMqto3wU6Y8XABfv79zKizve4N2zxrbxtTxbLzJXbtVwwNgYoonqW3rIactcwnJjc1hevFHm4ralBAWekVRtplKu45N9gXKIqs1sqyzD0/Ajnn9n6HVcKWNtmECxzbDe8+/8iOOdDirDrDuoajPbSuw0Hg9s0+AkqySGQK/fztyR9lu1mco040KjdWzZ+BTFysHhx9zgprjSGCzrAe3aHDfHw6w7LLBnN681uCmebwyKhb8HvwrdPZBqk5gUnMiUYHKGXgbQ3z8U0dQ3aLQ4ISdbLw0YTwtIjzgFVdLMyeT/bBWl+55h9sH/k9J9z5D/s1UkzYx8Ny1jYsEoA9Wi3NsRp6DKts/j2yt/w5YnLrH16Ra2PHGJb6/8Ddn2ecZVh5ETvRTljj1Q7e2D/j6VyXYJi2VoudUKGekS/X0qqh96e8Hr1cicrNfIDpCTJNJToa8f/OrYI9UVxTP0oLHzDHtajK2hDuz9CS/8bhtv/S2Gkq14lJbgMAH9TZwdKDuLoP7iJT2JIRdRESX3UXt4Gy/8x494cd9RYxMgY0/QfxCfNyiDm5WNDfD57Ny/4WVeeTpwE//0y/zzN9azfMrQqoJwLxj5DB5VOXYZwIvbHVRz+oUooyRNBsDTVWdsNKjAkaJnPT3d4f74QzW2ufS768TJRBhHCbhw93sBK6mp4c5AZeQF3huGZhgY2Tq2lDhouzpUm7sh0wGdB3ltoGwqYMeug7ThYO6wAC28gXULw2ZJK3i2wAGdR4dqsKrf4HinTPFMQ9bVSHHjCbvfCp4tsNPWGdpNN0zVDLJwctw4GrX6DY53QlbBUKC54bGnKKaOPcbZHKrf4PnjdZDz1PDAtvogjZSxJOTYhC+b2QTz55ioXGDCYh4eeHp6QEPCHFQmmZgA5bMl5pWZsAYFSuOhlBTjokFJMydT9ItvYKsqwJSoH5Ap0YytqoCiX3wjarAaad/h5E0xdhcPybbP4+nVO5mR/wgWi/7gAYsliRn5j/D06p1Rg9VI+44mJRlWLDNTbLhJ8Kvg6dGwWCQkE2Skw0P3m8nOHL6e1wc9CphNEibTWG80ZKYmD53jQ3urxldlrgOZ2LKSK+yBLnzFFWYMRRjXG+joB0jFFnvpcAj73KdYaNczzM6rQwOjVqTqO7XYinAkeenqdNLW6UZBxjalisfWbGZDftCOBGGCiyNQzcKWAOCjt8fYNl5kimeu5DvrN1IqA6qT+vpoIxntJFkAFDydxrYRnHehJ4Tt2KNkFfc0N+MDbFMf59ny4NG2MstXrqNEP9ciyzF0NwYCt+bBoLQiEPyHs5vX3vkRLw5kXmMQPqvrwJYAbTeHB4s7bjohbUb4bOmgSzR3QlamIaCdXUEeTTRHiVNXpIx81t6x60c8PzCYbvYm5qYxLIAf5vx2ag2BLdRQ51YMy4S7SW+fxlWnRmqqRKptKKCZWYQ/DD0AAPmmSURBVKyXBow1xIlkRoRgMnPjgsEA1ciUaCZz4wLj4mEi7TucSMHkfeU/HAxQjSyWJO4r/6Fx8TCR9j1W7bc03B0a2Zl6djUsDZyt0NMDeTkw5jh1sO4SlL5o5/ixs+eUs2bV83xrairgpc25n1PGlQxSA1lNRWkzNo2gBnfgXBj+HByD/HV8Z8HAOIv97Ar6SuwWCz4VlNad/Py3L/HqH9/gtV0/48Vd71Dr8YLZQWXleoqD9ycIE1gcgWoUEWooh3fbBiSUsTZk3Zd5dtk6Sm1WQMF5YSc7rhs3NJKxDnyq6HNoj96Zf+ej1i4gleKFL/LKhufZ8s3NbP2Hl3ms0I67U88F+Pqj1kIEsqeXgjKGerBF2sqo9aARzda7hjzdYYLa2dnYUPCEHbAcPVDfcdMJcvawYHBFfhG4a4g2pONwSxMKDiqj1cRmpCIPC+BD7bjphITUYUNaDrc0oSQUURblMwhfvv5+OFOn4fVCWQnDupi/KBZMpEXo2UheHLn/JFp7pH0bJVp9g49FDWdabuTbq2jtkfY9Fu4OjfMXNTLS9TrUsDRwujQaLvtx5EohmdbxtY4tIdeHwMtYfw96kqMydN2tqzfy4NRsLIDiPsSe6mhnLZClgd95fL/jEeU/ynP3BWY+6DzIB4ZxFrv+tJUXfvsjXtxXPXweWc8Z3j1eo69rK+N+EakK94gRzkCx8KB4ASxYwk0joykoXi++4FeUwHHYuoGX0u2k+dpe9uz7GT8/FkstkhNPP4CMLcPYNoIye6Cg3o07zHQmwykc3reNXRcacPeDZVI2WRkOZH8Tp469wtvt+snM64+W4VhHYRooyvApqw/v+wl7WhUIBHQRg/uwKnh2vj5lV6RAb8yqL9E2LBisoMwO11vCBMVG57fz4nF99oeskqALiGHAVaTM63CGwPq8C89ofnfhS3FH0fj8tEpPD8yfLZGW+kUGNEJcNHC1wYkzGsnJUF5mCntToQFXrsG5eo2cbBOlJfqAqrFzogTmQ7VYw42W9+E1Xh+izVLmD72e+PpctLWd4ciJbfx8997IA7YCXH16elSWI9+4DCnHHkiOh00WRGCf9Thb738IRwL4Oqv58JMog8qMWmpoU9DPjTnGRkGYmOIIVI/SdgfAit0epl6z7j1efX8rLwS9PtL/gsLrr+Mjw/ovvL+VF3//Bm9+sj/sNCXh1eDs1oPFWLtd7PbJer1Sf1fUrKBO4cjffsmrHwwN8nlxxy94v66Lucl6OYDSF/rMlGEiZD0P7/tJYL/v0Rg4ecs5T4Ud8T4s4Nv4Ots2jlDbOW6cePpl8vID323VSoppoi5qgB9wfjsvBr4zPSAfyqbHHoyPRL9JifV3F754nV1wtEbD59NYPN+EPSOuaGZUfKh0RsiC9Xwe+W80WnukfRv1eS3c6R05A3vlRtgil0HR2iPtO1YDwefp8ypZU6BiromEBONaeu1q3UWVS40qhfkSc2cNrzkeGxdN3fr5wG6rIPRWdS8/N14frkT6fRQaa0KvJy/8bhuv7X2HXeGekjiCw+7AVcHQkzQiW2GgjGGknqvwShd9j+8vCcw37t7Pu7t2jvCUQ5niQscI4ykaAokaQbh3xBGoKtQE/oBtWVWx/QF/SY649BOYPHkpa6LOPVLE2hz9T97TVh2+JjJmJYFBX148nbGFvJHV8NZAMHy8DoXQAU/hRv0P1np+IfTyBNlewYpA+YLirhnT+xkDcjlnJRuAw92xXkLCZ8Bjz3wIX6T2Wxqfn/YzKQmWVpixja6kc1xcIjB7fRg33zmF2hc+Laf2+bn5TuTqxUj7Dud6+8hPkPr0zL/h8wVm0Dfw+Xr59My/GRcPE2nfsdA0uNioDQaf5bPDZ1J9PqitU3He0CidITFreryZ1CGHbzjxAaSXsepumoe6vgGnCiQUMW/hiIMIBpUuKtcnRFMuURPm/BROadVmnplbgs3kxdPy4cjZXtt6tm58mWdX/uMI39FANteLcsfYJggTUxyBKjQe3q9n/BLKWLV6aZi74L8P97H91CuAtYRlyyMfV2nVekpTAgO16qLNKACFVZt55ekRsn+zV1IoA95m6k4aG+MUGEAU8139SCJ2j4cP/IyGakHXUZimxNbtH1ENb111DnXld3ShhJ1dYMiGTMeIGXBjOYXw5evs0jhbr5GWKrFovonEcOVBX4L6CMFk78VbNP3gT3iqrw4GrGqfH0/1VZp+8Cd6L94ybjJMpH2HEymYdLnP8tt967nU8vFgwOrz9XKp5WN+u289LnfkOf0i7TsqDZquQXOLxoxi04jBp6bBhUaNtnaN8tkmChzS4BOrxsWZnZzs9ILJwcIl6yg1tv+9ePZyxOkGZApnPcWKSMmP/HWsnWoPDNT6KOzcqEalVZt5psShPyGxcTtvHogw97fnzGDXfl5JmBKJkoVkJerXM+cXNyZNEL5UcQWqUMOOs4EnTuU8znPfHGEOtykOHrxvM6uyot+Njo863q6tweMPHNe6dVSGHFcqyx94fugEcTmWgVrQ7LqFYgI5c+XwKUCmVPFsuT5K0319b/T5WwMzDQzrpg4MQIs40CjWKVJGpHePG0fuhw7siuB8Ddf7ZfLmLyWrP9Zu/8BE/2EHPgwIBMphR/UHGXFWAH1Gg3DlFMKXx6/C5WZ94JTZpAc35y4Mfw08pvOLdorbKBFGVfZevEXLjz+hfvW7nF/5v6lf/S4tP/4kapCqoHKK0c1d2nQjHaVv5C56l/ssvz/4XV77YAav/jaf1z6Ywe8PfjdqkKr0WWm6Mbo5XYN134GmqypWK3T3qJy7OPy3unhZw+vV6Litcb1VJTEB2t2hv+mVFo04plEFXOw4UR14stNKnvn2JtZOC3PNsGVTuWQTW6d9eT0nxw/spfaOFxLLWLv2B2woCb0xcJQ9ztaBx792Vsc0UIv89Tw2PXANavgVrxmeThWqgUOt+n7tBU/xZPD3M6WKZxeXYwOU1mp2hS0bEISJx7xgVfFPjQtHQ2mr4UxvCjOzCkhPKaB05moeKFvAwulLWT7r66yqWMfasvsosadilUDpOMqhs/u5MjDWqGAZD9tTwd/Oxdoamg37jyizggccmVjxcP30ZwyLl26epbYvndm5U0lNLmJOyYPcN6uCxSVLWT73EdYuXs3s9BRMqoKz/tf8a6yTRrsvQs5iZqZm4ihcwdemL2BJ6YOsnVPBFKv+7On/775jRH/+zEUc01ZTaHXz5/qL+qKbNWROW83MvBVM9x7gxM2g1Wdv4v+YnsLVs7/Slwc+e7/7Y45EmRx7TulqHDQF3ucGJ9Lm8nBeOfNTAttWbeYf86w0Duw7RC6L55Vj9w3tY3rJagqTrSg3P+adxhsAFJY8yMwUZfC3KCx5kJny7cDvOvS+9+W0czCwja6CZ++rQr65mzcDy8/XtzN93oN8bdFc0oN/26rNbJs3HV/re7zyl+B9ALNXsNqRwq1Gw3cnfKkUBRqbNFQV7ijg6Q59ZdoheVJoOu52J3R5NKbmmjCH6XoGqK2PPRq6Ti+FyMwc5VRS0ezDxftcMy6OqLM7iSlpd8iZPL5R+rnL2Rw7H/vEmXNLh+cnXLfA1ab/Xt1hfqveXo2pOSZaWjU6uyR8filkHU+3nnHNySKOuVSBrosc6ehneuZ0pqRkU1j4IA/PrmT+9EqWz1rGioX/lf8yZwXzsjKRTeDrbuBv53dSf2vgCSyzWL6giGR8dFwf7Xkg0rY3ON3SRu7UOWRNmoyjYCUPzK5k4fRKls/6Oqsr13Nf/lRkEyjt+3lv95/Cd90bPFj1FPNSrICZRFsFq+Y9FPZVmdnGp1f0ALWj2Ul6YQWOSenk5C8LvQZ1HuS9/9+hGK5BgjAxSBtfeTj2s35EqVRWrGHJtDIcciqWgeJ61YvP68Z5s4az56pDB0VVbWZbiYP/P3v/Hh3FeSd6v9/qi6RGal0adIEGSSABkgABAkGMPDIxdrAnkCFk4ze2J2a/2ezhzMnOyR7sxeI4ntfjd5wcL5bt2VmzfTLOePJue7btHPOGMIHZ2Ak4QCwcLFvckQAJJIRAEqKF1BIl9aXq/FEtqbu6+qaWbck8n7U6l3qeqi5100/96vdcCk8jBxIdW1mxjReqtRnu9ZEmD9nzqV28kVVFpTisViyBNtrncdHVWcfxs0eoT/gXncma+7eybk5xYC3ZwPHaD/J/f9QQumRINDU72F1K+LmPfCbB9J9P4G93Nz8d9nAAvS2bXqGaI+wMXmhf9x7dUY9TxfbHA0+UGjnG6NOtnht9cEDt+hcDT5LS/p7a9S+ywdGq+1438szWtbqHWsohxwmmHTM4qxKjbtj7CV81v9pnPK40kpXk8P9mPkUEPyZr/Nq4y/+Hy3xKAjNlAuY5XXyz5iI59ngnh0bX67bx73ULudIRbYBTqO9uSnrm0xfARsnih3hoXiWzMh3Ygq8nPjcuVyPnWg7xfrN+dZWR9iVyOxFZPPsGzqu0iqKMoOucX8bde4b6i+8bnFMklWz/7lbtcd8xyJ1v69bQDr8G4XHRkeg1SBCmgAkMVIXEaQ0jUYNEIT5aMG2/Jj7Lr7pEA1WAx9XZPC2V6jePyytqM+9KiWVTg61adJ31qy8jSck1vaoq8cGJ+Xxyfra+KKqpEagKgiBokhyjKiRnPy83d0QeiynEr2YtJTTyiQhSBQPvStd5nasMk3iQO2IYP69zNakgFeCT87M5drIYVR1/F7mqShw7WZxwkCoIgjDViED1y1b3KvVyOeuMVhEQ4rSRZ0odtJwWXf5CZP9MG/9dvUo3w/qimLoZ5r+rV/nnxEbRR3T05Fw+ODGfXrfBZKEYet02Pjgxn6Mn5+qLBEEQvnJE178gCFPKeLr+g60kh0fJ4xvkY4txry6j8Du6OEj3uMakxjLP6WLxvC4WFvVgS43+AAF52MrFthmcu5Kf0JhUPdH1LwjCVCICVUEQppRkA9URS8hkNQ4qyaSIaTjRnnvZwRBt3OUM/ZzAxVninRwzfoUFdyieeYdZM/qZNaOfaWla0Hp3yMqNnkxu9GTSejOba53jX4ZqhAhUBUGYSkSgKgjClDJRgeq9SgSqgiBMJdH7vQRBEARBEAThSyICVUEQBEEQBGFSEoGqIAiCIAiCMCmJQFUQBEEQBEGYlESgKgiCIAiCIExKIlAVBEEQBEEQJiURqAqCIAiCIAiTkghUBUEQJhkLJiyieRYEQRAL/guCMLVM1IL/y8liBTksws4cbMwOPJnqOkO0I3MeN5/Ry0n69LtOuJVks4xsyshgPhlkYQWgDy+XGaCJAU5xh0+5o981YWLBf0EQphIRqAqCMKUkG6guJ5uN5LOBmTFzlgpwgJvsp4uTExAk6q0khw3ks448bDHORkbhMN0coItP6dUXx00EqoIgTCXmZetK/k6/URAEYbI61zT+e+snmM1/YR7V5CDpCw1IwELsrCAbE3CWfn2VcXtcnc12qZhV5GCN42ysSCwggyVkYlYlzknjO5fFZdEDYkEQhMlk4jKq9nxqF29k1exiHGk2LCNtod+LPNDMueb9HD7XhUu3GzU72F3q1G8do3jxeV20tR3iwMcNdASXVWzjhepybHRQ/+ar7AkuG2Ev5ZGVD7MsvwhHqtadBuDzuHB1N3D09EHqe0L2SNyczexaW4Ot+22e/6BBXxqi7P6dfL8kk5b653j9gr5UEIRYxptR/c8U8VfMjSMkNKYCv+Aq/0ybvihh/5kitjNXvzkhr4/zXKZGRjWT6qpHWDW3HKctE8vIKSte5KEOWloOcbihMfR6AMBGntm6ljz95iA+bz+u2w0c/2w/x0Pa/pF95Sjts41lyzdSM68c57TMoOucjLv/Mmcv/IZ9zYnfQDjmPsSmpTWU2gPHDPydF8+9yTuNiR9PEL5KJiSj6qzcyg8e2MzS3FzSrVYUTxc97j4Gh2RMqZnYbLk4Z9WwotBM56VmQtqGwvt42JEJgM/rRVGU0JfJisWagWN6JUtnK7RfvjLW6ZVbxdeduVhxc+P0x+jbFcfCx/jRg5uoyHFgs5iR73bRO9DHoB9sqdnYs+axqPQ+FljbqL85zm49+2q2r3sUpxV8A2c50nJTX2OUY/E2ti0qxoqP3hsf8tktfQ1BEGIZT0ZVy6SWjDtIJZBdXUEOg/iSyqw+rs7mr6TipCdLLSETWVUSzqxO9oyqY+6j/NWj3+drs2aTnZKK4nPR0+9icEhGsdhIT5tOXn4VKxfk4m0/S5sneO+FrFlWTDpaksTn111PMGOxpJKeUUxZ8UJSXZ9wya3fN0L7bK/kqQ0/ZF1hIdkpqZi8LroD52VKzSZ9Wj5zCtfytVkeuptbQ69zUTgWb+NH993HzLRUTJ4uut19DJuzybRlU+BcTUXKeU7cGNTvJgj3jKQzqo7F2/jRinJsgLv7EO/Xh2coneWP8b0Vq3GYQb7xNs//PijrOJJR9TRy4N03OBa8I2h3sPf/NY+VOLEg03byOV47EyiKklGNeV72fGpXbuWRwnwseOlu/idermsNqhCHOWv5wX0bKbJp/1fujJxRLVvx12ypKMVuAqLesQvCV8PwMFxsUei6BaoKVisUF0oUOiXMQbGSxwOXrqjc7FJQVYmMdCgrNeHIDkSHOolmVJeTzd9RhjMwWSpZHQzxdzSNa8zqSnL4Pykjj1R90bh0M8z/QVNCY1YNM6oquO5o35d7QNsU63sAaL8Bl1sUVi6TyLRHqJSIORt55oG15JnB5z7B+8f3c6xTDqnimPsQj69+lKJU8PUe4V9+u5+W0dLYWVHH3M18v6ZGe4/uvTx7sC5QEmVf+2q2f/MxSlIBuZnjDW/rMqc2ShZvZMsy7Trn6zvCW/v20xRUw1g+T2zeyTI7yJ3v8bMPTgR6HYOue95m3n/n53yo31UQ7hFJ3lpXsWWJFgzKne/x2sHwIBWgo/E9fnGqERmwzXqIJ2bpa0Qjc+qjtznnBrDhnL1WX8FAFVsWxzgvdxfH/rCbt5o78GElb95mtsR9XpmsuX8HL6zVglSf36uvMGZGFU9860W+v7gUu8mLL7FrrCBMSUPDKvWnFXpcMK9YorJCYnoOXG5RabqsogZuj30+ONOo0HVLYW6xiUULTUgSfHbGT1dPUvfQozaSP2FBKoCTNDaSr98cl0fJm7AgFSCPVB6N2tEdn64elc/OaI3TooXa9wDRv4e+fpXmqwoqxuWJy2fLikAA2XeEt/a+FxakAriuHuK1ujpcClhyVvNIpb5GdK6re/nNtS4ALDmVPKKvYKD2a49oQepwIwcO/tyge1+m5dx7vHT0CN1+sGTVsKEmnn8jq5hlB+ji4vGRIJXAda+BDi9gzWN+efA+gnBvSarr37HqP/CtgmzwNvPHw/s4G9IFE0ru7mBWySqy/G767n7M6e5AwUjXv7+HS+caIoy4GiSnsJYFGVZMvpv8vumStjlC13/weR3ety9sSECwnvabOEtXk5eaSWZqO8eu6iNaAzU/4IelTqySF9f1f+ONnhy+5sg07Prf8o1nWJFtBb+LptOv0Ja+FmdahK6lmDbyzNanWOIN2rdmB7sf/A88vGz92Gtu6thnBGzZ9Ar/cXVQedDr/oKeoHPeyDNbt7Mm43ccbx/dndr1L/KD+78Z2KeWecHvH0kc5zVGe99NEc9r5HjfjPLeVWx//Bn+t1KD96jYxgt//iR/Hjj39KoX+cGS9PB6woRpu65y26VSvczEzDyJjHSJ/BkSKnC9Q2GGw0RaKnR0Qft1lcoKE4WzJDLtUJAr4eoF9yDk50qYdLfTiXT9LyeLp5kfKSE4bvOx8ym9dDKsL4poCZn8vyiNa+JUIopI51N66Y7zXPRd/z4fXLgMNhusrDSRnYX2PeRp30Nvv0SB7nvw+eDcRRWvRxu76yyQSE1N8u8q/Q98Z/4sUnFx4fgbHNbHgsH6G0lx1lJs6ad3sIPPro9kt2N03wf0ppdzvzMXq1mmZ/TaEWFf+6NsWllOpiTTdvZl/u+gtjFM/yVcjmqWZ2eQbrNz5/xpbujrhJjF8kULyTYr3HEd5WTwJA57OWsq5pEpDXLjwh85PTpEIbra9fr2LdA2rghu+/XtuFGdsdfSoGtC7foX+cGqeQyHXK91bXjEtj5c2PWpojD02KPtd/h5aa/FZAdd/6Ner2p2sPv+RbpzFya7JDKqNtbNKgZAvn2C92P+iLp4Z+8unt/zKm+d1ZdNrDX52uQs+XZDHN0lrdTd1loHe+4q1uiLI5D7znDs2Au8dLjOYEB/EEWm+/pB3vm3n/DLM9Fa3ti2bFqLvXPvaJdU7foX2V3qoKX+aXa+OfJ6mxbbWnY/vo3a4J09jRwYrRN41TdCwZO8sL4quGaI2vUvsqHARX1gnwOdUFK9gy36ikESOa/a9S+ye+taaA6uewR3wZNhdcdnI8+MDg/RuvOOfbCXFttanqnR1xUmgl+BgUHItEtMmxZUIMH0HG0YgMejBZt3B1Wy7ODIHgtyzBawWiVUlaSzdSvIidrIpS2YzpyfrKPsg6eoOPK/U/bBU8z5yTrSFkzXVw1hChw7EatxRF2CarznYsPEahz6zXEbGgbPsMJ0h4TFMrbdaoWcbAnPsIIS1BOkqnCxRfteFs5PMjgNUlsyHztA3xkORAsGAz48+BzP/mo3r/8pwSFbiSorxWkCPK2cHRl2FkXTpctaZtRWTFXMTOgRPul0AZmUrfxrNpVq8zUcBat56uEHcJrA5zrBgejR7piKbawrcFG/b39gw0ae2fokJfKR0La/2UVJ9SvhbWCfrt6bT7OzuYO8UoO6o7QhE/bOt0fb7+6stVGvKxAIQLe+QjWh71kvl7Nh64tsrwit3h1yjQh+jQ37i3m9qnuVermcdbHOTZhUIreaMVXisAF4cbmMx2VOnHJKs7SBoO7+Rn2hThXODG12v3vghL7QUEt3FzJA6nSirD8wpu5Vnt/3JgeuhndL6e357XO8fPgQp2IG8jHU7KA6q4Nzo2Ngqyh32JCDAldNA6+fbkROKWdVxIYl4MIbHO6UsTmqIgSEG1lVYEPuPDLaEBz7YC8tHieLI/7QEzivim2sK7DR3fw0L48MEwNgPy/Xa3WTa1BGxpzpxzA38Pq1DvIKJyIQFvTMJli6yET1MhMWc2gg4x4EFQlzYJjkwlKJ1StMWAMLcvh80NquZWNzp0th+ydqkRb6GEpbMJ3if/wm9ppCTKnaCZlSzdhrCin+x2/GDBCjHdtIJVoQYiTZc4l27Fgy0qH2PjMlhaGftV8B96CKxSIhBV0puntUbt1WWThPwmow3HV8bMxOH2vjw1aHmWDVM53YAOQuLusLdWodgS58uctgDoWBG830egAyscdx/1D/4avsu9iK21rKmprn2b31FXatf4zFdnBd28tb+w/F+XlUsX1pOQS119TM19q/0cA1oO5V6vuIrw0cqZu7UV8CQO361eQRfG3az8vNHdgK1kZJaGjnaus7wk7due3Z9zYtHhslS+M4txDxXa/2XGqEqOcmTDZJBKp52FMAfAx9bhMSbZQsWMv3N2+lzAYoHTQ1Nesr6ThIswDIuON9oMyFLrQ40oFDdxc3WWzJdULf5aBgyxn4/A1ceIPn39QHf1GkZBqPuKvIx47MjfbgG5EGGl3Rgtv4z2vLgnJsnkY+MTrPCw2ca448OS22SEFqQN1luuMJ5oUJMzSscq1DJTPTeOLN2UaVDz9SaL6iUjRHomh2eJ1EzdHCEUO5W5eNBoV6plQzuVuX6TeHiHZsPQsSRQSnl0Mley7Rjj1ePbdVXL0q+bladhW0THnjJZWSYhNZmcl/P2PKsQeG7srDsdr48XMUVPLIup18e3Ym4KW74xCn9JV0MlO0NLMsj4xXi6UBVyCHYc+IfaPtWLyZ2tJibaLtcBfdvR24hr2AFcfsh1i3Quu5jKmiilkpoe11bUbkSHnPvqfZaTiBOQJbvmGbn2+z6a5NgfYVJ0WR2teatZSkyLRc0gXQoF1jrh2JMLk6inivVxcauBE12SJMNkkEqjEE0vq7DV6GXQIp5WwIq/si2+/bSJndCsh0XNzLnphdIDasI3+VoiuasjZSlAXdt4J/1Ptp6wNbkl3k+TYbePrRphbo5GRiw4XLaJBvpOA27vOqwmED2dUQoTFqYE/deIPUKrY/HiVIhdHzjJQlECaWxwNnGlW8XigvJaSLGUBRJPJzJZaUS+TlalnVC5fGJl2N18hjUY2kr4zefxKrPNqx9aTAJKxIYr1XrPJoxx4PV6/2+edkSxTN1hpUnw+amhVyZ0jMnqnf4/O2kWfCrg+B1yaj37CNkurwurvWb+XB2flYANl1lAN1hi1fCJs0sv52lEmz4zVrI99fVoXD7KW75ee89KvdvPzbV3npV7v45blmZFMmRYuf5Pul+h3D1c4pxuZppTGovT7W3oqMk+qt0bruY9HaauOMcqAdl40HwEUK1GszHKA712DH6vYbvFcMcV+vDIJXYVJLIlB1I3sBLFiMJrGqMrLXiy/4FSNwDKkbeMkDHbRdP8iBD37Czz6JZyxSB24PgA17vEPIyh2BTrwI/8i/bDXzyUPGrVuBZs++p6nvCw/y426QanZQnRUtWByf+M4rSuY1Kflsf/xJSlIIv8vX6ZLliFkCYeLclVU+Pa0wOAhLKyTDTJzJpJI3A2bmSyyrMDGvSKLjpsrt3iQjVSExKnR1w2dnVNLTobLcpN1UqNrNw9AwlBSDFP4VJqkDOTAZ12I1ugX24dVfH2KtoOIPv574hrvo7j7D8c9287P9B+NYPgq6hrX0qM0W/WZhTCWOwH2DeyD6zfayskryzIDrKL/8qDmki7/ps59ztFsGHJTOj9Woa0OuwoLJC2/wfL224k5eaVDQHjWJEKp2/WZKUvSJkuTk2+LvjRgRcv4xb1SiOzbgipJsESabJALVE3TfReuecBiMGG98m5fe2cWzQa/3u6OM6fQ08r6u/rPv7OL5X7/Ka4cPGS5TYqyBjgHtzjfS3ZyewzFd68SLlFn8kmndN8ZB9J59IwPKjzDSMaX9oHUTnowy1qVOupufTqJ7PbK4z2uiZZVTktJBfXMHxBjQLxqrz19fP5xoUPH5VFYuNeHIiSPCkSB3hrbW6sianuN1nSH9plGDnxpngUbEKo92bD01sP5qJLHeK1Z5tGPHSwWuXofTFxTyZkDVYhMpgZtJjwdudCrcvQvHPlb53RGF3x1ROHlOxe+X+NNnKsc+9uOJb+EBA120DmhtvMNeZTA17CA/018frkb7TGRaGsKvJ8/+ajcvH3yTfUZPSYzgmCtwVYj3ptZeFBjGEJ5c0JudHkiRuBsMz+fDzg58gGWakxJ9YQjtxt8wsxkYcqVNLgpcRwPXg7D2MWttWCC4oQBa6hMYSvY5iTiZSj/+Nh69/ciTeKifECqJQFWmIfADtufVxPcD/oIc79J+rLbpq3kk5nyHYjYUaHfK7u66Cc0sfrH28/LID7e5A9CNwTGa9Z/IONZxi3ReI5nviRbo7g9MALAVbA6bPRpKNFafl57bKp+e9jMtDVZXmbFnhJb7/XDqvELDGQW/rrdFVUBRks/ctWvTJA3devMUyrBxWk4Z9nPrzeijF6MdW8+HSht39ZtHJXsu0Y4dD1WFSy0ql1sUiuZIVFYEMqkBZitULDSxdFHoq3iONqxh/jyJioUmzGNPqU7YsZtaUEZ2OeviXtP6C9DUTIcCpBSzZHnsTGDZikptZVv5Mg0GyYUv07EPngu0/W/T4iF8wpPRrP/AaikTqUuO/7fz+Umg11X4UiURqELLsUO0eLS7s3Xrk1kgZWK5PjlEkwxYS7lvTfTzKqvZTFlGYKJWY6wVBaaIuiNaIxR3V1UE0e46x5N9DjkvbcJBtHFCWzYl1kUFod39e/YdoRtbjOW0jDPVQnL6+lXONqlkZUqsWGoi1WB4kNkMqanaeEh30MptqgodnSqSpJKTlVykej4wTdLI0KXbtP7w33HXXRsNEpVhP+66a7T+8N8ZunRbv0uIaMc2cibKY1eTPZdox45Jhdbr0NauMr/ExMJ5UtgNgtkEMxwS+bmEvHKyJExmlek5WnnwE8cSdmYvJ/u8YHKyfNVGyvTlXxb3QY53uAAbRQufpDZa8mPORjbMdgQmar1Pvb5cp9EdmMbrqDHMmFY78rAAPrk76OlbE0Fb+ST5G/VAOx7hWhNp6IPWm1VMeaT3rtmhzVGJVG4k4etV7Iy3MDkk06xoE17OBp44VfAYP/rWZtbM0NcBZjh58P4drMuLfTc6MRr55bkG3P7AeW3cSHXYeWWy5us7earUqT1C9Uo8E7W+HMcGXOENShw/ZMNuoERc6MKNjVlzgruHAstPRRrXmsB57bkUZRmtim0sTnr8bGCZK5xUG4xj0gb0GzVgQjL8Clxp0yZOmU3ampvnL4a+Rrr0586RSLNJNJxTaGlTudml8tkZhY6bKiXzzGRFCwri8Bm9UedUDl26TfuPD9O0/i0urP2/aFr/Fu0/PhwzMFQCx07ECVzIUc5mvOcioxD8TKNEDdyF1msKVisMDCqcvxT6XV26ouL1fhFjhbvY81ld4MlOa3nqO9vYMNfgmmHPp3rVNnbNNQ6OPg/1Hx7k3F0vpJazYcMP2RJY7zSYs/wxdo08/rWvLq6JWi2fnaDDD9hX8e37S0OSKs7KbWyYnQm4aL50JKjEiNZDFRowVrH98VhjOJO/Ue+SZciaH5oMCCyL1Rapx67uiLYE1QKjc6tie6Ez6mQrQ4lcr6JNvBImnSQDVXCde4Of/amObg/YcmrY9M1X+Ol3d/LMt3bwzLd28rePv8Tub+7gkRInNhPIvSc4esH4LmtCXXib1+pP4PKDzbGWLY++xAtbAuf1nef56feeZ1NhPhZFpqPxn3i5Lp6JWl+Sust067spRn7oRtnCmrWUpASvazde+/mkUw7pPtcG1kc5diLnFVjHNXwx6cAi/Z5GDkd6n3gF3sNovGq+zWDygZC0oSG4E1ga7tZt6Liphr2GhrTAJy1VonqpiRkOuNKqcLZRZXgYKiskiudEfsZ8vE7SxwFCnxY3EQ5wk5PEu/6d5iz9/O5zuC36HV2cTSKj2tsPXq/2utkZ/n11dimoSpJfRLza9/Py0f20DHixZJRTW/siux//ceB6soNd332Jn27ayZbychxm8A00c7zxkP4on4MG3nr/Hc65vZBSTHXN8/x09Lx28sJfvsKPVq3GYQa55xBv7dsf10Qt3If411ONyFjJK/lrdo0cc8uL/Gh5OTa8dDe/zS9jrtilzWQPHUcbyJoatH0jwWDwmqPjdeyDE3SHJAM28kxprGMH1tXOWhsWSG/Z9KS2dNXpBJenSuB6JZIUU4u09acPT9CtcibVVY+wam45TlsmlpElARUvPq+LjlsNnD1fFz4pqmYHu0ud2hjKhNdN28YLo08dirAMkT2f2sUbWVVUisNqxRIIzX0eF12ddRw/e4T6OJ6aGlXgb5A7Y6/7uWXTK1RnybTUJzbuZ8umwBM8dAPHtSdx6LIOukWUt2x6hWpbPJ+vtvYougX4Q98jvnOP57xGjX6PY8I+y5F/J0Y8jRx4t4HyxwNPYDF4D+1zDz6u8d8qTH6/2mc8ljOS5WTzd5RN2BJOHQzxdzRxkpHHdsZvJTn8n5SRh8FYiHHoZpj/gyY+TSC7+91Nxuu1Ti42ShY/xEPzKpmV6cAWfD3xuXG5GjnXcoj3m/UB+sj6yfG1U6Hi2TdwXqVVFGUEXef8Mu7eM9RffN/gnGJzzH2ITUtrKLVnatcoxYs81MHFc2/yTmOcx6vYxgvVxdwIO/eRvyuY/m+s0lZLidB+Bqtd/yIbHK2664nuPSK19WEC7xu8Aow+FjC4PugFPzQm9vVKe89ZrtjXa2FymMBAVfhc1exgdymRA3IhMTU72F3YH0fwLkw2iQaqAE8wm7+hNNkELSrwDzTzDtf1RXF7XJ3Nf5HmkkpyAeMwfv67epV3pcTOZWoEqkLiRAAWl4ptvFCdyTlxLZ0yku76F74gda9S3yeepjExtG6v7msiSL1XvMN1fsFVkrkrV4FfcDWpIBXgXek6/4Nr+s0J+x9cSzhIFb7KtO508XjQ6LYs0D1mVpj0RKA6hezZdwR3zOWWhFhq12+mRD4iuvzvMf9MG/9A87jWHO1giH+gmX+mTV80Lv9MG6+ozeNaVqqNu7yiTty5CF8hF97gcKfDcPKoEHjIjW0C5j4IXyjR9S8IwpQynq7/YMvJZiP5bGBmzDt1JTBxaj9d4xqTGstKcthAPuvIwxbjbGQUDtPNAboSGpOqJ7r+BUGYSkSgKgjClJJsoDpiOVmsIIdF2JmDjdmByVbXGaIdmfO4+YzehGf3j8dKsllGNmVkMJ8MstBWzu/Dy2UGaGKAU9zh0wkIlkWgKgjCVCICVUEQppSJClTvVSJQFQRhKone1yQIgiAIgiAIXxIRqAqCIAiCIAiTkghUBUEQBEEQhElJBKqCIAiCIAjCpCQCVUEQBEEQBGFSEoGqIAiCIAiCMCmJQFUQBEEQBEGYlESgKgiCAIAaeH350jGTjljvVBAEQSz4LwjClDJRC/4rih/V70fxK6iKgqoqAEiSCclkwmQ2IZnNmEyff8AY/JSscjLIJgWAO3hoZGBCn5IlFvwXBGEqEYGqIAhTSrKBquL3o/h8+H2+ODKoEmaLBZPFgsk88QHeanJYTx4PkEsWFn1xiD58HOUWH9DNCXr1xXETgaogCFOJ6PoXBOGe4fd68A0P4fd54whSAVT8Pq+2j9ejL0zKd5nNsyzkW8yMGaQCZGHhW8zkWRbyXWbriwVBEL6SJi6jmppOUd5CnPZsbFYLJimwXVHweVx0uy5ypXsQWbfbV8tC1iwrIh03N059zHl9sSAISRtvRtXv8eBLMti0WFMwp2jd8sn4zxTxV8xlpJlMlAr8gqv8M236opimRkY1k+qqR1g1txynLRPLyCkrXuShDlpaDnG4oZEO3V6wkWe2riVPvzmIz9uP63YDxz/bz/Ge4JKRfWVa6p/j9QvBZSNsLFu+kZp55TinZWIZSfX4Zdz9lzl74Tfsa+7X7RNZ7foX2VBg028O13eEnfv267cKwj1hQjKq9vyl/NnCGhZMn0F6igX8gwzKbgblQXyYsKTNYNasGr62oJQZ+p0FQRA+Z35v8kEqgM/rSTqz+l1mJxWkAkjAXzH3K5lZdcx9lB89/jxblqymKCMT/C66ezvo7u3C7QPbtGIWL9nGD7Y8Sa1dv3cQvxefV/fyg8WaSV7BWjY9/EM2zNLvFIW9kqc2P88Tldp5WXxj5yVjw55TyZqa5/nbR9dSpt83Ap9XDj/HoFdwPUG4VyWdUbXlVfG1WTOwAJ7BK1y+3swN3W/KPmMRy2Y5STOBz32WP7TcDK3wlSEyqoIwYngYLrYodN0CVQWrFYoLJQqdEuagW+TWdpVLLeHNUFqqyteqzKSkhm5PNKOq+P34hodHJ0slS5JMWFJTxzVmdTU5PMtCnKTpi8algyF+ysWExqwaZlRVcN3Rvi/3gLYpIx3KSk04sgORccDdu9DUrHK7V0FVpYj1xmXORp55YC15ZvC5T/D+8f0c6wy9oDjmPsTjqx+lKBV8vUf4l9/up2W0NHZW1DF3M9+vqdHeo3svzx6sC5RE2de+mu3ffIySVEBu5njD27rMqY2SxRvZsmw1DjP4+o7w1r79NAXVSFRZzQ6eKnVi8Tbz4f6f875bX0MQ7g1JZlRnsihfC1J9A+f55HJ4kArg7jnPp509+ACLfR5Lot0FC4Iw5Q0Nq9SfVuhxwbxiicoKiek5cLlFpemyihoUl7oHtCB2VoGEc+bYqyDfhGQKD2ATpfh8ExakAqiqguLz6TfHZT15ExakAjhJY33Uju74dPWofHZGuwFYtNDEooXapeGzM366esa+g75+lRMnFQYGFRaUSCH1XHeS/a7y2bIiEED2HeGtve+FBakArquHeK2uDpcClpzVPFKprxGd6+pefnOtCwBLTiWP6CsYqP3aI1qQOtzIgYM/N+jel2k59x4vHT1Ctx8sWTVsqMnX1UnAnM1smufEgkzLmf8hglThnpZURtU2ezX3z8gCxcXVi5/SPKyvESydJeX3MUMaxHX7Y05r7QRFpQ+yIAN6u1sgez45KSZQfQz1NfLHVi3zasueR1lBIY7UFG3sq6rg87rp6T7F2Z7gN53JyiVLyDH76O34kE9vBRWNvpcF38BZ/tCsHXv0/Tvq6LJVUZptHx135PP00dPVwNnbY10wGisFziXMd8wgLZCc8MntNLcqzCkXGVVBaGlVaG1XqV5mItMeSLOp0Nyq0npNoXq5maxM8PlVGs6o2NJgSZkproxcIhlVxe/HOzQU58SpREhY09ISyqouJ4uXWRLXxKlE9OHjGc7GvXSVPqPq88GnZ1RMJpWqxSYsgdPzeqHhjIIqSayslDCb4WyjQv8ArFwqkZaqfVkeL9SfUrCnw5IKUzxfobHSrfxtTSV2XJz78Ce81a6vEOrBR1/koax+2lrf4/U/tQa2RsmKBqvYxgvV5djooP7NV9kDkfe1P8qPNj2E0yTTdvI5XjsTcqQwZWt/zPeLHCCfYc97b1KvrxBTPlu+9TdU51jx3drPy//rCC59lShq17/IBtuJoDGtVWx//ElKQoZW6z8fozpjupuf5uVA4rl2/YtscLRy4N03ODZaQzc2OIExtVs2vUJ1VtAGT2PosUe/q0iCv8MgNTvYXdgfeiyjbcKkl0RG1cq8DO1fl+9uR4wgFWCQs42H+MOFsSB1jImsGQvJsfoYkt0M+RVkWQskZ8xaydeKS5mRloJpZOyrV8GSkkXB7D9jzZzgf+HjZ8utocxhx+QbZFAexKOgvcecr7HcEVzTSlFpDUtytSDV53EzOCRjSptD2fyZ6HopBeGe41dgYBAy7RLTpgUVSDA9RxsG4PFogaPfJyHLkJEuxRWkJkpV/FGD1Kqyefzm5V0MfPQu/vpfM/DRu/zm5V1Ulc3TV9VRA8eO3wpyogapaQumM+cn6yj74CkqjvzvlH3wFHN+so60BdP1VUNkYWEFOfrNcRsaBs+wwnSHNBqkgpblzsmW8AwrKH64K8NtF5QUjQWpAClWqKk2UZlMkArUlszHDtB3hgMxglSADw8+x7O/2h0UpH5OykpxmgBPK2djBKkATZcua4GlrZiqcn1pbI7lm1meYwWlg5OnEgtSqdjGugIX9aNB4kae2fokJfIRdr759Nir2UVJ9Ss8U6Pbv09X782n2dncQV6pQd1RWpBq73w7sM8RurPW8sL6Kn3FUBXbeGHrK1QT+p71cjkbtr7I9orQ6t3NuvMafRkEqRXbeKHUqd8Kda9SL5ezLta5CZNKEoFqHjYrgMJQIKgcPxMmaZDO1iP88eLH/PHcET7tAuwLWTDDgQWFQdenfHSujuMXP+b4hQ852e3Ch4n06ZW6QHI8LKSlKPTePMrhC3Ucv1jH0TMn6BxWABvZjpljVXOXMC8jBVSZ7vY/8IcLH3O86Y8cvtRILylRLkOCcG8wm2DpIhPVy0xYzKGhi3sQVLTsHMCQB3yKChKcaFD53RGFP9QpXG1X8U9Ab72iRD5IVdk8jr3xE771QDW2VC2VZEtN4VsPVHPsjZ/EDFajHdvIIi0MM5S2YDrF//hN7DWFmFK1D8eUasZeU0jxP34zZrAa7dixZKRD7X1mSgpDvyu/Au5BFYtFQjLB3bsqiqqSlgqXrqgcPqbwuyMKn5xSGBgM2XUcbMxO13Jm7v7GxIKzcaie6dQydHIXl/WFOrWOQBe+3BVfFu5GM70egEzsCV+bitkwrxQL4O44yJ4b+vJoqti+tBw6j4wFbjXzyaMjKHANqHuV+j7IK9xGbWhJuJG6uRv1JQDUrl9NHh2c+6AhsGU/Lzd3YCtYyxZd3THaudoMMq979r1Ni8dGydI4zs1A7foX2R0lA7vnUiNEPTdhskkiUM0gxQygkOQkWI18k7O6nquCGXmkm4ChdpquuUKWtuq58Smtgz7AhmN6UVDJOA3d5HxXcFq4j7OB1tdiyRzdWprt0CaOuRs5HTwkQG7n01suErt0CcK9Y2hY5VqHSmamNDoc4O5dFb9P4mqbyozpsKRcwp5hPJZ1PNQo0e7fbntsNEDVs6Wm8LfbHtNvDhHt2EbKydBvGpW7ddlogKpnSjWTu3WZfnOIaMcer57bKq5elfxcLbs6KIPfL3HqnErPbZWy+SYWlEgMDGhd//0DyXxZ5dgD3VHycLO+cMI4Cip5ZN1Ovj07E/DS3XGIU/pKOpkpWvpBlrv1RRE04ApcrOwZCWbuKh+lLANQWjlb36gvja6iilkpMjfaRwJGqM2IHCnv2fc0OxPpArflGwaO+TYb9F0OzWrWXaYbJ0WRsrA1aylJkWm5ZDQ8oIHGa0fG1T0/stxXd/PT1EcaCXOhgRseJ4tFVnXKSCJQjSG3iq8v+wYPG7y+XhqUoQzweO/oNzE9RbsnGrp7xfAO+2rfHXyAKTWbOfrCBPm8d8LXeB0aJnTKRD7ZqSbAx+BAyAJ8mi4Xd5NpqwXhK8rjgTONKl4vlJcy2sU85IGUFFhRKVFSJDEzX2LFUhNzCyU6bqrc7k3uB6VG6fZ/+GtL9ZtCxCqPdmy9dMyjj0U1kr7SoJsySKzyaMceD1evyoVLKjnZEkWztcvEyE1DegasWm7COROK50hUL9PKW68lf2MR2Uae2foKu41em4wyfTZKqsPr7lq/lQdn52MBZNdRDtSFjUMLY5Osgf+ln6sw0WxsKirSJif3NLAvwQlUtXOKsXlaaQwal3usvRUZJ9Vbo3Xdx1KFwxYpo6yVyXL4irZECdRrMxygO9dgx+r2G7xXbMc+eI6db46NpzXWQKNLxuaoMgy8hckniUB1CJ+C1m1v1N+t+vApCkrwK0oj5vXpQ1EH2o2sD3koQgMhBwJJkzXpsaHDntgNFoxM9vBivKydjDexJIsgfOXdlVU+Pa0wOAhLKySyMse6mOfOkVi7xhSyTQLyc8FsVrmT9ExyISEqdHXDZ2dU0tOhsnxsctWImfmh2+zpMMMBfW7wjm8xBKADOdAzZ7EazZb34dWvMxpriLDROqrDXXR3n+H4Z7v52f6DcS0f1TWsNfY2W/SbhTGVOAILO7gHxrKbMdnXUpRtBfppvhw10jJQRbnDFh5MXniD5+sbkYG80qCg/fH4u9Vr12+mJAW6bxllP8cn3xapYz6ykPOPeaMS3bEBF6RkYvQvTZh8kghUbzDoATBhsxks499zhj+eOcThoFfz4LhbsehU5XO/1xUEIXF9/drYU59PZeVSE46c8Ok2RjewqSkSFrOEPBxePxFSlOk9v//Taf2mELHKox1bbxA/d4g8RmrwU+OM1IhY5dGOHS8VuHodTl9QyJsBVYtNBD+EKy2QDUiz6r4wSfsPVVEZ/9inLloHtIDQYa8ivMP6ID97ZxfPBr+uRvtMZFoadPXf2cWzv9rNywffZN+5LsNeOiPHXIEkRoSu7zD2osAwBhl3/Mvbjk3akptpSHj0gxN7SoTM5oU3eD4w8ejAyHJfKeVs2PpK+ISnrLVhgeCGAmipj5Wl/PxFnEylH38bj95+ZBw4dBO2hMkpiUDVy01ZG8OZkl7IBIwS1XHh8QFYsKWNdL3oZNi0Di/VP/72MSFKYAKxFavhDWESH6cgfMX03Fb59LSfaWmwusqMXTeM0udXqT+lUN+g4PWFBj/ykDZcQL9PoqTgJwvo/P0b7yEPGwd48rCHv3/jPf3mENGObaSRwEr6Bm69eQpl2DhFqAz7ufVm9JGU0Y4dD1WFSy0ql1sUiuZIVFaEZ1JtaVpoPnA3dLuqguLXbi4ks8FdR5yO3ezQesiyy1mXyBOjPm9NzXQoQEoxS5YbNvwhylZUass0yZdpiNC1beSRXC1jK/c1xhw3O14jXeM733ybFg/hE56MZv2/GWWZr3Hqkg27JL9gNuzjXyxD+AIl1tLquNqu0OsHzDOYVxqYRTmBbnu0f8xp0+YZ3GHD3IxM7Q/wuNFWM7mJ7AUwYQ0bspVOdmBQ/Ph1cXvYB1jIyjIYFeuYQbrxfAhBuKf09aucbVLJytTGnKYajM2xmCUc2dA/oOIKyjypKly/qWKxwgxH/FlLIyZT5CauoekKtdt+zG+P1o8GrPKwh98erad2249paLqi3yVEtGMbOU/kQYdDl27T+sN/x113bTRgVYb9uOuu0frDf2fo0m39LiGiHTsmFVqvQ1u7yvwSEwvnSUgGH3tGOtgzJTo6VYaGxwJS94BKT69CZiZYdas8JOTMXk72ecHkZPmqjXE/hvRz5z7I8Q4XYKNoYYzHts7ZyIbZjsBErfcTWEO1kqJMq7ZfdwLDBcatgdevdUDSWUVt4likYRGRhj5oXe/FlEd675od7DZYompiJZjxFr40ibW0YW5yvivwxKmMRXxtYTlzjKJVm525hfcxLz2xQLGzp5tBBUibQ1mhIyQQnjFrJcXpFsBDb+/YBeWu3weYmGZfyNiABCsFhZXMCAteE3f1dg8ewJRewsr8oKtvqpOVs/IneEqDIEw9fgWutGkTp8wmuNiicv5i6GvkMZ3OmRI2m8SZCyrNVxRudmnjWW90qhQXmsgIXod1HCSTOepzPRuarvDtZ14i4/7HMVd/h4z7H+fbz7wUM0gFKXDs+H1GL3266ZnBhi7dpv3Hh2la/xYX1v5fNK1/i/YfH44ZpPbh47MEHqGqN3AXWq8pWK0wMKhw/lLod3XpiorXq2KxwNw5IMsqnzQotF3XHurw6WmV1FSJuYXJroXbxZ7P6gJPdlrLU9/Zxoa5BhcUez7Vq7axa65xcPR5qP/wIOfueiG1nA0bfsiW0rGVYEY4yx9j18jjX/vq4pqoNWZkuICL3oS7/QE6cHv0AWMV2x+PNYbThSvJbGmXLEPW/NDMbGBZrLZIwwXqjmhLUC0wOrcqthc6o062SlpOJrYJ+NuFL0aSgSrI3Q38qb2dQT9YbHMoW/gN1i2uYc3C+1izsIYHljzEwwvvo9RhxyKBT+6g9Vac6666L3KpJ7BeqmMl948ct+JBludp66sO3WnkfNATqEYDybQillf+GWsW3sefLf46Sxx2lKHBKJeJOLnOcP62G4UUcmY+wLqKGtYsrOHrZYvIsUSfMCYI94KhIbgTWBrm1m3ouKmGvYaGtB9KWqpE9VIT+blwtV3lbKOKxwNLF0nMnR01xoyLyWzGrO/DngBmiyWhp1IBnKSPo+gelzcBjnIr7qdSGent155C5fXCzc7w76uzS0FVtC8iP1eb5Z+aauJiM1y+opCTJbGiMvQhAOPWvp+Xj+6nZcCLJaOc2toX2f34j3nmWzt45ls72PXdl/jppp1sKS/HYQbfQDPHGw/pj/I5aOCt99/hnNsLKcVU1zzPT0fPaycv/OUr/GjVahxmkHsO8da+/XFN1BpVka+thOtxcX1cyXFtJnvoONpA1tRw8X0tGJSD11wdp2MfnKAbJ9WjAfFGnimNdewGXj/diJy1NiyQ3rLpSW3pqtOJL08VL23VgX4SuZUQvjxJPUI1VCqzZpYyOycXuyWF0V4xVUHxy7jv3qSru522gdBpTyOPNR28/TuOR3gaSfyPUA3Un17OsvyZZIx09ftlBvoucUp28jXnDAh7hGqE98+t4uvOGViG2vh908WQohn5i1iQO5P0wPNWFd8gLtd1zNMXkmMWj1AVhM9LIo9QJfAYVd/wMKo6MSPZJcmEJTU14UAVYDU5PMtCnASmhSepgyF+ykVOJJBR1T9CdXKyUbL4IR6aV8msTAe2kVNWvPh8blyuRs61HOL95n7dfhEegxqXePYNnFdpFUUZmVhGzssv4+49Q/3F9w3OKQ4jjwkdPsO+X73JcX15PCq28UJ1MTfCzl33eFPQJpsZPUJVDl+AX29iH6Fq8OjWhB+hGvqI1xFbNr1CtU13LBh9z1mut3l+9CEFwmQ2gYGqIAjC5y/RQBXA7/Xg8xhPnEqUJSUFc/gg+Lh9l9k8TWmyyWJU4BWa+RXX9UVRTY1AVUicCMDiUrGNF6ozOWf06FVhUkq6618QBGGyM1tTsCQRXI6wWJMLUgF+xXV+wdUEHhcQTgV+wdWEg1Thq0zrThePB41uywLdY2aFSU8EqoIg3BPMKSlYUlKQjKa0xyBJkpZJDV5YNAn/TBuv0EwHQ/qimDoY4hWa+Wfa9EXCve7CGxzudASNFxVC1Oyg2tbIYZFxnlJE178gCFPKeLr+gyl+P4rPh9/nC+Qmo5G0iVPjmDwVj9XksJ48HiCXLKJP+urDx1Fu8QHdCY1J1RNd/4IgTCUiUBUEYUpJNlAdoSh+VL8fxa+gKsroZCtJMiGZTJjMJiSzGVOCy1CNx3KyWEEOi7BTTgbZgYXu7uChkQHO4+YzepOa3T9CBKqCIEwlIlAVBGFKmahA9V4lAlVBEKYSMUZVEARBEARBmJREoCoIgiAIgiBMSiJQFQRBEARBECYlEagKgiAIgiAIk5IIVAVBEARBEIRJSQSqgiAIgiAIwqQkAlVBEARBEARhUhKBqiAIwiQjmcxIX8CDBgRBECY7seC/IAhTykQt+J+aW4Itt5QURyGW9BlYMmYA4BvowTfYg8d1DflWM8O3WvS7Tri0vPmkzZiHNWcOKVmzMKVMA0Dx3MXTdwNvbztDPVcY6r6s3zVhYsF/QRCmEhGoCoIwpSQbqKbmlpBRvIqMolUgSfriUKrKQNsnDLR+8rkErGl588koqsY2exkmi/bY1EgUnwf5+ikG2uqTClhFoCoIwlRiXrau5O/0GwVBECarc03jv7fOnP8AOUs2kJY3P3aQCiBJpGTPJi23FAmJYVebvsa4ZZbWkrXoUdLyF8TVzS+ZzKRkO0mdXpzUuSwuEyO+BEGYOiYuo2rPp3bxRlbNLsaRZsMy0hb6vcgDzZxr3s/hc124dLtRs4PdpU791jGKF5/XRVvbIQ583EBHcFnFNl6oLsdGB/Vvvsqe4LIR9lIeWfkwy/KLcKRaRzf7PC5c3Q0cPX2Q+p6QPeLimPsQm5bWUGrP1P5WRcbtauDwsb0cd+trC4IwUcabUc2uWE9WxaMQR3xqSIW+Cwe5c+EDfUnCsivWk7XoUf3mhPSdH9+5TI2MaibVVY+wam45TlsmlpFTVrzIQx20tBzicENj6PUAgI08s3UtefrNQXzefly3Gzj+2X6Oh7T9I/vKtNQ/x+sXgstG2Fi2fCM188pxTgu0/QB+GXf/Zc5e+A37mvt1+yTIvprtGx6jRD7Czn379aWCcM+ZkIyqs3IrP3hgM0tzc0m3WlE8XfS4+xgckjGlZmKz5eKcVcOKQjOdl5oJaRsK7+NhRyYAPq8XRVFCXyYrFmsGjumVLJ2t0H75Cr0j++ZW8XVnLlbc3Dj9Mfp2xbHwMX704CYqchzYLGbku130DvQx6Adbajb2rHksKr2PBdY26m/e0e0dxZyN/ODPHqbIlorJ00W3exAlNRt7RiFl8woZbmugzaPfSRCEiTCejGrm/AfIXrJx/EEqgARpufNRvfK4s5kEZVLjyaJGkzq9GNU7nPC5TPaMqmPuo/zVo9/na7Nmk52SiuJz0dPvYnBIRrHYSE+bTl5+FSsX5OJtP6traxeyZlkx6WhJEp9fdz3BjMWSSnpGMWXFC0l1fcKl0cTCyL4+em98yGe3go8L2Ct5asMPWVdYSHZKKiavi+7AeZlSs0mfls+cwrV8bZaH7ubW0Otc3IrZ8uffY3G6GYZb+X3TJX0FQbjnJJ1RdSzexo9WlGMD3N2HeL8+PEPpLH+M761YjcMM8o23ef73DWOFIxlVTyMH3n2DY8E7gnYHe/9f81iJEwsybSef47UzgaIoGdWY52XPp3blVh4pzMeCl+7mf+LlutagCpEU89R3fsjiDHBff5PXDp/RssT2Up5Yt41lWVbkzrd5/oOgv1EQ7kHDw3CxRaHrFqgqWK1QXChR6JQwm8DnVzl5VqU3yj3i/HkScwtDo8tEM6qpuSXMqH4CS/p0fdG4+AZv01P/zrjGrKblzWfGqr/EbMvSF42LX+6j55P/mdCYVcOMqgquO9r35R7QNmWkQ1mpCUe2FqSP1OvsVrnYojDskZAklfxciYUlJlJTgw84TnM28swDa8kzg899gveP7+dYpxxSxTH3IR5f/ShFqeDrPcK//HY/Y99E7KyoY+5mvl9To71H916ePVgXKImyr30127/5GCWpgNzM8Ya3dZlTGyWLN7JlmXad8/Ud4a19+2kKqhGTvZKnHn6CxfZAz1+fyKgKAskvT1XFliVaMCh3vsdrB8ODVICOxvf4xalGZMA26yGemKWvEY3MqY/e5pwbwIZz9lp9BQNVbFkc47zcXRz7w27eau7Ah5W8eZvZEs95VTxESQbgaeToSJAK4G7mnU8+wQXY8mrYELqXINxThoZV6k8r9LhgXrFEZYXE9By43KLSdFlFVcFkkpgxXcI5U/+CtFQVSVLJSNcfOXEZxasmLEgFsKRPJ6N4lX5zXNILV0xYkApgtmWRXrhCvzlhXT0qn53RbgAWLTSxaKF2afjsjJ+unrFcRvtNONOokpIisWihiXnFJnpc8OkZheHh0WrjlM+WFYEAsu8Ib+19LyxIBXBdPcRrdXW4FLDkrOaRSn2N6FxX9/Kba10AWHIqeURfwUDt1x7RgtThRg4c/LlB975My7n3eOnoEbr9YMmqYUNNvq5OJDaWVW9j119s1YJUv1dfQRDuaUllVB2rfsiu8mLwNvPh/p/zftSxmfk8sflvWGjupqXpVd46G9gcM6OqqV3/IhsKbKF3mREyqsHn9f47P+fD4AOFCc6QvsHfH27UVwix7MEf88QcB75b+3n2fx3Rlebz1Hd2sjjDS9uZXbx2UlccwZZNr7BY1rKwWza9QnWU69hotnb0b49k5DOpYvvjT1ISYUJxd/PTvBxIKER97yjfT/h+4Rnuke8v+P3CBP4tRK1j+H6hfwcR6mjCzy2Y4b+zETU72F3YH/FzEMa0tCq0tqtULzORaQ+k41RoblVpvaZQvdxMljbiJ0y/W+XTUypzi03MnR2UzQtIJKOamltCwQP/Jb6JU4lQVTqP/HeGe+LPqqZOLyav9v8Zc3Z/ohSfh65j/188t+PpEQrPqPp88OkZFZNJpWqxCYtF2+71QsMZBVWSWFkpIUlw8pyC3wdVlSasgcRfj0ul4YxK+UITc2aGHDoxpVv525pK7Lg49+FPeKtdXyHUg4++yENZ/bS1vsfrfxr526NkRYMZXjsi7Gt/lB9teginSdejF0HZ2h/z/SIHyGfY896b1Osr6AW15XLPIX7T5uTbK8qxGbVBcahd/yIbbCe0fWPNARlt16NfJwhqYyO3rUHXJ2LNP4n8/Yy2waMM6gaOHbX3MvC5Eq0OEc4zymcf9vfrr42B93VHvI5pn7X9WqRyQS+JjKqNdbOKAZBvn4gRpAJ08c7eXTy/JyhI/Zysydf+0cm3G2IEqQCt1N3W8qL23FWs0RfrzM9wANDff0JfBHTh8ngBK/b0yCFkiJodVNsaORz8Q/I0cuDNp9lp8NL/4Lqbw+toL10w1nckvE5zB3mlr/BMTVA9w/c+QndKORs2bQyqSKBhf4VqW+g+BzodVG/VHRcAGXuh0Xa0Y+kbizBVbH88/P121jdiL32FF9ZXhVY3+Fu0c3uR7RWhVTVVlDtsdPd1QNbq8Dp1r1Ivl7NO/z5CCL8CA4OQaZeYpi0HqpFgeo42DMDjMb4/9nqh8ZJKhh0t6EkyvrTllkYNUityzbz25xmc3J5N4w9yOLk9m9f+PIOKXIPu8WCShC2vVL81Klv+wqhB6njPxWRJYVr+Qv3muA0Ng2dYYbpDGg1SQRuqkZMt4RlWUPygomXC01JD66VYwWxW8XmNv9N41ZbMxw7Qd4YDMYJUgA8PPsezv9odFKR+TspKcZoATytnYwSpAE2XLms9bbZiqsr1pUa8yHIrpz55gef//SCnFH15Aiq2sa7ARX1IkCXTUq9v0wMv/U230XUi8AoJqgza1p31jVDwpK4dNn7v+j4bJdU72BJUc6R931Dgoj64frOLkmqD9h0ZHPr3G1HF9qXREjma2vUvsrvUoTvHt2mxrWX349uoDa5csY0Xtr5CNaGfUb1czoaI1xQjDbx+uhF7qf7vFyJJIlCtxGED8OJyRblbmRDllGZp/+Tc/dEznlCFM0O71XcPGAWT4Vq6u5ABUqcTK1Qa+cR8aniXFEC/xweALT2eFkoLzrqvfUkZurpXqe+DvFx9AKq3n5eb9cFbFdsfX0te35Gwxu7YB88FgmD9j9eFWzZ+v9r1q7H3dWjfQyQVVcxKkWk5rfu8LrzB4U4ZW8HamD/8Yx88pzWSS3WNEGPHd1+6TDc2Zs0JbwD3XGqEON7nXmY2wdJFJqqXmbCYQ4NE9yCoSJgjxF7Xb6r0D6iUFoUGQ+OV4ijUbxpVkWvm7c12HpxrJc2inWeaReLBuVbe3myPGSBGO7aRlOlz9ZtGJX0uUY4dS0Y61N5npkQ3FtivgHtQxWKRkExgMUk4sqG7R+VGJ6iBG4u26yomk8R07R5+nGzMDtzcu/sbw1eHmWDVM51aECN3EWt0b60j0IUvd8XXTt9optcDkIk9ns/kwpu89N4/8k6jfjhBorTgjM4jEXuMPlcj7bCjKrxt1dmz7wjdOFkcFGRu2fQkJTRyQJ9kqXt1NAjWJznccoT3q1lLidxBt357CC0xIXfu1WV2tUBSTiln1ej7BQJfg0zrnn1v0+KJcE2J5MIbnOsL/fuFyJIIVPOwpwD4GBrUl00UGyUL1vL9zVspswFKB01NzfpKOg7SLAAy7j59WQQXutASwg4cUe+KKnGkkdixo6mZTx4dtH3Z6X9bfuwfWG8/MjbsOYH/X7OWkhSZlkvG3SPUHdF+vAtCg9K2Wx2QNT/sTrrcATduxWioczIj3iEf++C58CxyBHsu6RshzZYF5dg8rTRe2E9bH8YN4IUGbnhEAzMeQ8Mq1zpUMjOlseEAQeQhuHZdJS9XIic7vHw8LOna06aM/KDaNhoU6qVZJH5QHelfmybasfUkkxmrPfKiScmeS7Rjj1fPbRVXr0p+rpZdRYJ5xSbml0icv6jw+yMKf6hTuN0LKyolMjOMzz8+5dgDk7Hk4Vht/Pg5Cip5ZN1Ovj07E/DS3XGIU/pKOpkp2h2TLEcPe8Y04ArccdszvsB2InCjfaP9804cxZCSSezRuR24PWCzBVJDFdtYnEXkpM2FNzjXB3mFocGg+1Yrckox5brr9pZcJ923Yt2COAMxjIELb/B8cBY56vWugcZrRxIeErbnVkdcyRUhqUA1hkCafLfByzBVn1LOhrC6L7L9vo2U2a2ATMfFvey5od9Rz4Z15K9KpgvlC7Al1wl9l+MKrj4fVVpWPJ5MQU4mNmTcgbXBajMc4Gml0WCMkaaBRpccHgTXXaZbf0NQUcUsWmkcXXcsgjot02ncDZSAwI1J6EVkI0VZILsaOBZoRDBoAEf+LsMgVojI49Em4Xi9UF6KYbb01m0Vj1dlzkxtPOREGHksqpE1cwxOIkis8mjHNmJJj5xei/VescqjHXs8XL0qFy6p5GRLFM0ONKgqtLWrXGpRceTAknKJkrkSigJnm1Tu3tUfZSJpw4z015LdW19hd9iQJLQkR3V43V3rt/Lg7HwsgOw6yoE6bVJVNDZpZP3tyT3JqXZOceBGW1/yxcm32cDTT+xPVQsSZTmwEm5OJrYYSRutTdYFwb0N3PAEJVAg0JZHP5YmkJAoeDK8m18n1vXuWN3+2NdQvbrLdOOkyHAonBAsiUDVjewFsGAxWpZElZG9XnzBrxiBY0jdwEse6KDt+kEOfPATfvZJPGORtDs1grN/sZQ7tLFRuHBF+IeoOYNrCO3YEQaTxy8QGI38UIMZBu2BwF0XOOWV6utEa7xD1a7fTEkKdN8yuksMFhg/2nditIsk3xY9wzNK37Cwn7a+0G712jnFEAgQo9vPy28eoZtA4zL69yY61mfk30iQmvnkEZSNGAmKdRlhgGMDLoO/S4jkrqzy6WmFwUFYWiGRlRkehfp8cKML7PagyVfCF0+Frm747IxKejpUlo9Nrhq4C1evqThnSqyoNDEzX6KkSOK+lVqweumKgjLuYaodyIHfpMVq9Mvy4dVfH2LNqfOHX098w110d5/h+Ge7+dn+g3EtH9U1rKVHR7N/MY30vIF74IvKbmrd2MZJB+OgfbdR0ihrbViduNvYmh1UB93sR7Nl01ry6OBcYM5FbWDuR2z6Xk8tcRAynKxmPnlxJoD27Hua+r7wa65+iEHc17uEaNehLzTrPkUlEaieoPsugBWHw2A8ZuPbvPTOLp4Ner3fHWUEoqeR93X1n31nF8//+lVeO3zIcJkSYw10DGh3vvH+A3A4pmtdynHcCcoxlg4Z7SYajDGWtiIfe6SGzGig+ptPs/PN8FmSESdT6WcsGjRAGwqgpV43SN4wSA6MRdUfc5y6QsYVbWRVAQl0V+3n5dFB9iNBvpPqrfEF55FsyXXq7pj380mnbDBMYWQYhL7BFIz09cOJBhWfT2XlUhOOHOMgdPAuDLgV8mcYZ1vHyzegX5duzPF2bTx5JLHKox3biG8w8sjLWO8VqzzaseOlAlevw+kLCnkzoGqxiZSgrlH3gIrPC86C0Iy3LU1ixnRttQaf/gYwbl20DmhtvMNeRXjYcpCf6a8PVw1u8kfJtDSEX0+e/dVuXj74JvuMnpIYwTFX4Kqg7x2KxF4UGMYw1gP1+dNlKEMYT2jaaTA5N/JkKt2wKqPrRGDFltBjGgfJ1VnRV19JxLEBV1A7XcX2QmccyZcxe/aN/I1aEoTRBFAcwXlStCEi8d8A3buSCFRlGgI/YHteTXw/4C/I8S7tx2qbvppHtFRpFMVsKND+obi762LeCV4f1Eaz2jNW64uAUvJs2jCF3jvxBtZfEMMGKDzwDQ2S36bFg7akky5I7ZLj/PsMgv9j7UHjimrmkxelSyWquldH/5b6Poxn6hvSjU0KjI/SN77aEimRumYSyNjfo3puq3x62s+0NFhdZcaeoa8xprdPRTJpqwJMJN9g5GDytXqZIZ9xCnDIp/JaffR/49GOracqfrzuyGMckz2XaMeOh6rCpRaVyy0KRXMkKivGMqlflGM3O/ABZJezLp41rb8oTc10KEBKMUuWx86sla2o1B7hKl+mYTzt2lQQIZkSvtxSaJB8IJBw6m4ODVKPDcR722DQ6xnchV5RxayUeLr9jeiTIGNzEeK+3o1HvDdA97AkAlVoOXZIC2RSylm3frXBXfCXw/XJIZpkwFrKfWuin1dZzWbKMgITtRpjZEGBU53aCgG2rDKq9YWzKsmzAUoXHef0hVNRA6+/q83OrNaN4dG6v43GcI6I0hV1QRtXNGtOFVtynXF1FcWy51Jj6GSvaCrysQd189fOKQ6sp6hveLVA3WiVgi82WzL19PWrnG1SycqUWLE0xlOLVC1bZ0uTsKUZZ1zHy+O6pt806sItP0/udfPhVe9okDjkU/nwqpcn97q5cCt633K0Yxvx3L6q3zQq6XOJcuyYVGi9ro0/nV9iYuE84zHC9gwJi1VbmUENiqnlIZWe25CeLmEeGc45Hmf2crLPCyYny1dtpExf/mVxH+R4hwuwUbTwSWqjJT/mbGTDbEdgotb7sddQvcdoq64QviJMbz9yxKSARuv1Ck98jIw1zcvdqLXlcXb7R1V3hJagyV4xr3c1OwyH5sXF6BophEgqUIUG9pwNPHGq4DF+9K3NrDGaXzDDyYP372BdXuy70YnRyC/PNeD2B85r40aqw84rkzVf38lTpU7tEapX4pmoBVyoo00GbJVsCA7O7aU8sWoVDkDuruNA6F7hDCf0TEaBpalSdOuHRpjVPyrWLEmXjM2xmcVZ8c9S3bLplRiD3uMLHsdm9zMWUBs2boEJYfpMbU4mNqM7ewECyxpdadMmTplNcLFF5fzF0NfIYzoBfIqKPKStz2me4CyefKtZSxdGcOGWnx/8rwGWv36H8td6Wf76HX7wvwZiBoaoqnbsBNztuogSpW98vOei+DzIXRf1m+M2cBdarylYrTAwqHD+Uuh3demKiterkjENCp1wo1Mbc9xxE9quK9SfVPD5oLRYezTu+HWx57O6wJOd1vLUd7axYa7BNcOeT/Wqbeya+8V1mdZ/eJBzd72QWs6GDT9kS2n40yqc5Y+xa+Txr311cU3Umji6WfSTmLY0lW45pwiz+kfFWBVgzy1t+cR1Dlv83f5xBJejQymiXu+04QbRJlsZ0yYzGw/XEIIl1awAuM69wc/+VEe3B2w5NWz65iv89Ls7eeZbO3jmWzv528dfYvc3d/BIiRObCeTeExy9EF9gkpQLb/Na/QlcfrA51rLl0Zd4YUvgvL7zPD/93vNsKszHosh0NP4TL9fFM1GLsCB413d3an/nX/w1y7KsMNzI4ePx/H2BGYdToGEZWW/VVrA56EcdyLZmhS+MrC2i7KS72WBoQYB2h2pLaJbqyLJS4Q8eCASfQZO9Iqld/yLVWUFrsdasjTqh7Fh7K7JuTVVtBqjRnb0AMDQEdwLLt926DR031bDX0NBY8Kj4JIaGVKxWMBlk8pIxfKuFgbZP9JuTNtD2CcO34n8qFYDndit347wpS8Td9gaG43wqlZHefm09VK8XbnaGf1+dXQqqIo0uT1VZIXH3rsr5iwqXWlQy0rU1c40mySWsfT8vH91Py4AXS0Y5tbUvsvvxHweuJzvY9d2X+OmmnWwpL8dhBt9AM8cbD+mP8jlo4K333+Gc2wspxVTXPM9PR89rJy/85Sv8aNVqHGbt6VJv7dsf10StiRNhlZVJyTj5sWff27RQzgb92NCaHewOPGEqfGhBQGD5RFsi3f4jwWfYgwdGrgtjk71G11bNWhs2F2LLpie1pIx+fe+YtCFohvNUhBBJPUI1VCbVVY+wam45TlsmlpH1qRUvPq+LjlsNnD1fFz4pKs5HqBoyfAyejj2f2sUbWVVUisNqxTKyYL/HRVdnHcfPHqE+/qFmoxxzH2LT0hpK7ZnaMRUZt6uBw8f2cjzmU7oCanawu5SQcw97PJveyOcU8xGqI4+8CzwaT449GWrLpsBTnwy/h5HHC4Z/1uHnHF5HeyyeK+xxhfbgx9vFfPQcgQcNhD/qb7yPUNXqhZ/vmMD7EfqowVmuGI/lEz43iTxClcBjVGdUP4Elfbq+aFx8g7fpqX8n4UAVIC1vPjNW/SVmm+E/zoT55T56PvmfDHXHWjNyjP4RqpOTjZLFD/HQvEpmZTqwBV9PfG5crkbOtRzi/Wb92ssRHoMal3j2DZxXaRVFGUHXOb+Mu/cM9RffNzinBI207YlOYK3YxgvVxdwIPnejx4OGGPlbjdvVEIHziX6dCFKzI/DUJ+PPcqSN1rfd8T9CNfjYRtc5g2uMgfD3i/YIVYPPSR+7RL02B11rDK7/grEJDFSFxGk/JKIGZsKkUrGNF6ozOScaly9NooEqQOb8B8hZ+u2kH8mKCr2nf0P/5aP6krhlltaSXbkRKakBnaD6vdw5s5/+5qjhQpipEagKiRM30VPJlk2vsFgW31U8ku76F5KhdYFEHJcjTDpbFnyJjygUxq3/8lH6LhzU1mAaLxX6LhxMKkgF6G8+Rn9T8t3V/U2HEg5Sha8yrXtaPOJ5CqjYxuKs4KEFQjQiUP2y1b1KvaybqCRMTjU7qLY1clg0LlPSnQsf0Hv6N/gGb+uLYvIN3qb39G+4c+EDfdG43LnwAb0n945rWSmvu5vek3sn7FyEr5ALb3C400G1wTh+YbKoYvvScty6JbqEyETXvyAIU8p4uv6DpeaWkFG8ioyiVRiuwxRMVRlo+4SB1sQnT8UjLW8+GUXV2GYvw2SJNkAwMLv/+ikG2uoTGpOqJ7r+BUGYSkSgKgjClJJsoDoiNbcEW24pKY5CLOkzsGRoa9j5BnrwDfbgcV1D7m5muGfiA1S9tLz5pM2YhzVnDilZszClTANA8dzF03cDb287Qz1XkgpQR4hAVRCEqUQEqoIgTCkTFajeq0SgKgjCVCLGqAqCIAiCIAiTkghUBUEQBEEQhElJBKqCIAiCIAjCpCQCVUEQBEEQBGFSEoGqIAiCIAiCMCmJQFUQBEEQBEGYlESgKgiCIAiCIExKIlAVBOGeZzKpmE0KZpOCyTQJlpZWVe0lCIJwjxML/guCMKVM1IL/s/P6mOfsZXZeHzOy7pJtlwG447bR0zeN691ZXOnI4Xp3ln7XCaf4/aiKH8WvoCp+1ECQKkkSksmMyWwK/Hfyi/WLBf8FQZhKRKAqCMKUkmygWjyzlyUlXSwq6SLFEv1YHp+Z8y35nG3Jp/Vmjr44aYrfj+L34vf5Y2dQJQmzxYzJbE0qYBWBqiAIU4no+hcE4Z6xelE73157geULb8QMUgFSLH6WL7zBt9deYPWidn1xUvw+L77hYfxeX+wgFW04gN/r0/bxefWlgiAIX0kTl1G151O7eCOrZhfjSLNhGQmB/V7kgWbONe/n8LkuXLrdqNnB7lKnfusYxYvP66Kt7RAHPm6gI7isYhsvVJdjo4P6N19lT3DZCHspj6x8mGX5RThSraObfR4Xru4Gjp4+SH1PyB5x2MgzW9eSp988Ksr5CIKQlPFmVB9YfpU1S9uwmhV9UVy8fhPHTxdx9ORcfVHC/B4PPq8XGG/zK2GxWjGnpOgLYpoaGdVUZs0sZXZOLnZLCqaR64mq4PO6cfW2cOVmD27dXl8tM1m5ZAk5Zh+9HR/y6S19uSDcGyYko+qs3Mquv9jJhgXl5E2zgbeL7t4Ounu7kLFiyyqnesVOfrTxUcr0Owfxeb3hL6xYUvMpWfAkf/XNhyjR7xSFY+Fj7PqLv+bBwlIcqVbku4HzGugHi4O82Q+x5dHn+cGKYv2u0S3Ox85IEG38EvkOQZg8Vi9q54Gqq+MOUgGsZoUHqq4mnVn1+7Q2YvxBKoCKz+v9SmZWbdml3LfkARblO8lKSQFVZlB2MygP4lHAkpJFXn4VqyoqKUrV7y0IwldN0hlVx+Jt/GhFOTbA3X2I9+vDM5TO8sf43orVOMwg33ib53/fMFY4klH1NHLg3Tc4FrwjADaW3f/XPFbixIJM28nneO1MoChKRjXmednzqV25lUcK87Hgpbv5n3i5rjWoQmQla3/M9iIHcud7PP/BCX2xIAjA8DBcbFHouqX1bFutUFwoUeiUMAfdIt+9C03NKrd7FVRVIitTYsE8yMmSQAo+oibRjGrxzF6+WXOR6Vl39UXjcrtvGv9et3BcY1YVvx/f8DCqOv6AOZgkmbCkpiY0ZjVSRvVOn8rFZpU+N0iSSn6uxMISE6m6YLD3jkrjZZWBQZAkcM6E+fNMWC2h9cYlayFriopIN4Ey3EFz+yXaBkKDcVv2PJbMLiXLAorcxsmLF8N76r4SREZVEEg+o1rFliVaMCh3vsdrB8ODVICOxvf4xalGZMA26yGemKWvEY3MqY/e5pwbwIZz9lp9BQNVbFkc47zcXRz7w27eau7Ah5W8eZvZEud5zZ9mB8DdL4JUQTAyNKxSf1qhxwXziiUqKySm58DlFpWmy+rokEz3AJw4qXC7V2W2U2JJuYTZrPLpKZWunqTuoUctnd85YUEqwPSsuyyd36nfHBfF752wIBVAVRUUf/JZ1b5+lZPnVPwKLFpoYl6xiR4X1J9WGBoe+x5cvSqfnlaQJK3ebCd03ITT5xV8/mS/r3QWzZyjBalDbZxuPB8WpALId67wSXs7QyqYbE5K8/U1BEH4KkkqUHWsqqEkBfA28/HxE1Hval3n9nPR7UW+68MyXV8aSxfXB7WlYywpWpAYjWNVDSWp2nkd/SD6eTXV7aVpADA5KSsv1xcbKGVWhhVw4erWlwmCANBxU2V4WGXlUomSIomCPInKchPziiRudir0u7We7+s3FRRFZXWVRHmpiZn5EisqTcyaKdHcquIJj1MSUjyzl/K5E/9DLZ/bTfHMXv3mqBS/X5vdP8H8Pj+Kf/zHVVRoaQWrRaKq0oRzJpQUSVQtNjEkq3QGPj6/AlfbVTIzJFYu1eqVl5pYUibRe0el57b+yAlylDIjzQTI9Ny8iD63EKKvket3fSi+YZSUoOXDcqv4+rJv8PXSIhaU/hnrln2Dh5d9g6+XL2LOSJ1UBwvm1fD1Sq3s4WXfYN2SP+O+wpnakK4gi8q08jWjOweZc5+2f9nCsW2j7z8T+4xy1ix+aPQ9Hl7yZ9xXmI8t+BgB+rrrKqpY8PmviiYIU0ISgaqNdbO0sZ3y7RO8H3NUexfv7N3F83te5a2z+rKJtSZfm5wl327gQ31hmFbqbmuhrD13FWv0xWHKcdi0SWL2sh/zwl++wu6t2uuFLT/kifJM/Q6CcE/xKzAwCJl2iWnTggokmJ6jDQPweFR8itZ9nJNlIiNjrI9fksBZICHfVel3J5elKyzoizq7P9+xhO+s/Reeefwyu77XzjOPX+Y7a/+FfMcSfdUQKRY/hQV9+s1RqUr0Jaiqyubxm5d3MfDRu/jrf83AR+/ym5d3UVU2T181lKpqxx4nnw+8PsidDmlB3fzWFDCbpdFTHhqC/n7Iy5Wwjs1LZbpDIn2aRI8ruWG3RY7ppAAMdXMpjo/26uUPOXyujk/bwytbps2nKMOG4nEz6PGAt592gKwiVs1fSVFmOhbJw5DsZnBIBpONDMcSVpUtZIb+YOORMo+Vs+eQbhrWxtd6fGC2keFYyqq5oe8wY859rJo9h3SLCcUzyKA8iGKdQVHRQuwGQ18E4V6TRKBaqQVseHG5gsacfi7KKc3S7kPd/Y36Qp0qnBlaK+oeiK9rvqW7CxkgdTpR1h/QVAQmUpnzcc5wgKxNGnN7wDatmGWrnuWZmgQnZwnCV4jZBEsXmaheZsJiDr3SugdBRSJ4SKXZZDgUFVWVcA/otyZm5vTId9D5jiV8b/1e5s/5BhZLGgAWSxrz53yD763fGzNYjXZsI4o/cpd/Vdk8jr3xE771QDW2VG0mvy01hW89UM2xN34SM1iNduxYUqywukpiYWngW1DhrqxyqUXVbi4c2mZ5SMXrg4zgmw/AYoF0m8RdWbv5GB8rmYFBrp7hW1p7nAwTDLlO8IcLH3P8whH+0NyuDS0omK+NbR1q52zTEf548WOON/2Rw60X6fOBKa2IRbpAcjwsKekw0MifzvyR4xc/5viFDznpGgQgJaOQopGK9oUscNgx4WOg+wSHL9Rx/GIdf2j6lE6PZWz1HEG4hyXxM8jDngLgY0j7/X0ObJQsWMv3N2+lzAYoHTQ1Nesr6ThIswDIuMNvtI1d6Aosc+LAUaEv1Mm0YfUDw428/+9P8/yvX+Xl3+7m7999jn1tXdp419LHEhyHKwhffUPDKtc6VDIzJTLtEmaTRGoKuPq0zOooFXpcajLJuVH5jsiR7v2V/3U0QNWzWNK4v/K/6jeHiHZsI9Gynn+77bHRAFXPlprC3257TL85RLRjJ8IzDMf+5OejE9rktiXlEpmBbLeqaDcVKamhtxWSBCYzDA2pKD6jW454zCA1MBnL64s2WCtOqpuua7oLQE4JM2wmUN10djTSORxU1tfGJ7dcKECKvZjSoKLxcdPd3h6yfFbPtR4GAcypZAS2OabnkS4Bd69x6kbQ+Q67ONvRwdDYFkG4ZyURqMZQsY0XAl3i+tcL66v0tSGlnA1hdV9k+30bKbNbAZmOi3vZc0O/o54N68hfNf4kQ2R/+kee/Z9Ps/NXb/BhyCAqmeNH3tPGu5JPSVnyTZ0gfFV4PHCmUcXrhfJSLQsnSVA0Wwts6k8ptLSp3OxS+fSMQuctFbM5uVDVbFKxpUYe5Dp3Zq1+U4hY5dGOHUZVRx+LauThry3VbwoRqzzasROhSrCgxETZfAlbmsTJswpdt7Rj+xVAUpEm5BYiUQtZMzLWU/8KHiM6wifTr9+Wka4NLfDc4YpRMrzrJn1+wJRBdrJJVd9d+oMDYQD68ejuJ2amaj2FQ0Nt4VlkdxcGc8kE4Z6TRKDqRvYCWLAYrWWnysj69UVjBI76tUh9Xi/yQAdt1w9y4IOf8LNP4lk+qgO3B8CGPd7VY8odgUH0LlwX9IWJaOVMb2C8a2Y8E7ME4avvrqzNFB8chKUV2vJTI7IyJaqXmcjIgJarKueaVDLStVUCzLphA8LnLzUFCvK0JcRWLTeRmTE2qc1s0iJZ1XCgRrL68QaCOLM5XV8I+FEVBSXkpa8TxD+Mfl2GAouWsvV5+8ODQgDuBM7BgiloDO64+Ia0MbGxSAAKw16jiNQVFtgKwr0oiUD1BN13Aaw4HAZBWePbvPTOLp4Ner3fbdw8AOBp5H1d/Wff2cXzv36V1w4f4lhnlH1DNNARuA21Zxhkbg04HNO1mZiefrr0hQYcBaWURbjjPjUc73kKwldfXz+caFDx+VRWLjXhyAkPcjLSYdUyE99Ya+LhB0yUlUoofgmvJ3RyT6L8ioQ8HDniuHozfNXmYLHKox07jCQhSeF/+4jf/+m0flOIWOXRjj1eVivMyJUYGlIZGlKRTFpW1RO0XBVashjFD2lpEibLeLOtg9zx+ABIS5lpMDO+mY/PHOJw8KvXKC06ERQmaCSFIAgTIIlAVabBpYV19rwaoneSfbGOd2kPWrVNX80j+vVGwhSzoUCbQuXurjN44EAwG09sfoVd6/+aTYuNF+9bE1hj1ef5vBpRQZgaem6rfHraz7Q0WF1lxj4yMC/IxRaVj+sV9Aml3j4Vk1klXTdxJ1FdLoM3DfjozH/D5zMeBejzDfHRmf+m3xwi2rGNSCbjhfYB/v6N95CHPfrNAMjDHv7+jff0m0NEO3YsA4Nw9LjCtY7wIFP1qUhoQbYtTcJqgQHdkrQ+HwzKKrY0sJjGHzC3ufu10Vq2XObFbLcT1+nTAmGLNdMgECZonKzy+QwbM6ICmEgNXkZhlJUkPk5B+MpIIlCFlmOHaPFo40vXrV9NYHLol871ySGaZMBayn1rop9XWc1myjICE7UaY60oIHPhjta173DUGDzOtZyynEzAS1dPfCsOCMJXUV+/ytkmlaxMiRVLw59uNCIzQ1sJoC9oGaqhYZWOTpXsLIn09OSu1DdvR454ulxn+dcPNnO5/XejAavPN8Tl9t/xrx9spssVfR29aMc2Ygp+HJdOQ9MVarf9mN8erR8NWOVhD789Wk/tth/T0HRFv0uIaMeOJTVFy57e7NTGEI8YGlbp7IFp6RK2NEhLg8xM6L4VWu+2S2XwrkrudOMnicWtq5HOIQUkOwXOCVomKtjAIB6AlGzjQDg/F7tJG7bWH5h/MBAIbq2W8KtIaZrREIXE3AzMRE5LLw2/TqUWkWE8v04Q7injb90AaGDP2cATpwoe40ff2swao9ZlhpMH79/Bujzj+9iJ18gvzzXg9gfOa+NGqsPOK5M1X9/JU6VO7RGqV+KZqAWnmhq1BwjYV/Ht+4Mbl0weXP+YtjrBcCMnPxFDAIR7k1+BK21aMGM2aVnT8xdDXyPLTk13SGSkw5kLKq3tKm3XFT5p0DKspcWhj1odj2udWXh8kbONXa6z/PrIf+Lld+fz0r/O4eV35/PrI/8pZpDq8Zm51pnYiuySyazNIIugoekK337mJTLufxxz9XfIuP9xvv3MSzGDVCQpqYyq1QolxRL9A9pY4o6bhHwPI5PfzCYodGr16k9p9RqbFc42qeRkS8xwRP7b4jPI+ZvtDCraMlFLK6pYkG2QaUxNZ9bsKv4sxyjajKK3hR55JBAupyD45imriFW5DkyAb+AalwKb3V5tRlRKejFFQfXt+VXMSU/yHyfg6rzJgAKkOikrdARlerNYNLeYoOWFBeGeJW396cPh/T0JcizczPerasgL3P35hrtw3fUBFmzpDuwpY42N3HuCoyff48ORkeY1O9hd6gRPIwfefSNG17tOxTZeqC7HRgf1b77KHl2xY+Fj/FX1ahxmQPEiD7lwD/vAascxLVNbo06R6bj4RpwTtTRlNTsCAS747nbhGgZbRj52K+DvoP7oq+yJayS9IHz1DN5FC3K0ZJSh5YslcmdoV+HhYWhqUegKPAEpOxsq5pvIiJCw+tW+xAYQ/kVtI0vn39RvTsrpyzP5t2MGY/Nj8HmG8Ef7YMbBbLVgSTFeZsvIdzcZBLUquO5AU7PCwCBIksr0HBMLSrQbicj1wDkT5s8zEVgGNXlZRax0zicnJRAI+mVtwXzAbE0nxWwa7RJXPC46uk7TdDuQ4s2t4uvOGViG2vh908WRI47JKmLVnIVkWQDVw9DQMH7Jgi3VhkkCZbiDS1fO0z4yYz91HvctLCXDFFTfbCM9xYIy5MaXZicl+L2ivv9MVi5ZQo7ZzY1TH3M+sNWWV8XXZs3AAuAbZNAL1tR0UkwKimLCZPLR2/Ehn94KPZog3CvMy9aV/J1+Y6Lk240cP/cn7phtZKRnkpk6Hfu0TNJtGaRKCj5PD+2df+Sjj9/kzc9OczV43ZDC+3jYkQn+Hi6da6AtqCim3Cq+7szFipsbpz9GP2Ffvn2ej66eZtjsINvuICM1UzuvlFQUr4ubHYf4oO6X7L18R7dndD3tH9PkyWBOTi7Z07IDf6eM+/YnHDz6Sz7QTzcVhHtIihXmFkqUFEd+pU8bSxVZLFCQO1bmLJBIidLlea4psXvrYY+F2Xn9TEszmlmduNt90/jjqWLuDIynh0hC9SsjgxOTJkkmzNYUJFP82b3FZQZ1JbDZYI5z5HvQHmcb9j2E1ZPInZ585jvEcB83brVzRzFhs6RitdhIS0klxZqKRVJRlSHu3u2ko/MUn11r17KkI9JnMjdzGiZfH1eMnuk63EdHXy+W1CwyUmykpKSSYrGiKjKDd5o42XKFW8H3Qf5erg/5yLJlkmZJwWpNJUXyMehu5sJlLzkF2aQEv1fU97czKz8fm8mDu/M6I3Gnb/AmXV6JLJudNGsaKdYUzIrMwJ1Gek0FZFgUhtxXuaEbGywI94oJyagKgiB8URLNqAKsXtTO+q9d1m8elw/+NJ8T540e/h4fv8+Lb9gzAcGqhCU1BbPFoHs8CsOMqiAIwiQ1kffBgiAIk9KJ83M42jAXr3/8TZ7Xb+Jow9ykglQAs8WKxWodWURznCQsVmvCQaogCMJUM/5WWxAEYQo5enIuH9aX4L4bYQmCKNx3U/mwvoSjJ+fqi8bFnJKCJTUFSUq8CZYkk5ZJDeuXFwRB+OpJvJUUBEGYok6cn8NvjlRw8uKsqKsBjPD4zJy8OIvfHKlIOpOqZ7ZYsaSmYrYGnicbiyRpE6dSU0UmVRCEe4YYoyoIwpQynjGqRmbn9THP2cvsvD5mZN0l264tKXfHbaOnbxrXu7O40pHD9e7ElqEaD8XvR1X8KH4FVfGjqlqzLAWWnjKZTYH/jh1cxyLGqAqCMJWIQFUQhCllogLVe5UIVAVBmEpE178gCIIgCIIwKYlAVRAEQRAEQZiURKAqCIIgCIIgTEoiUBUEQRAEQRAmJRGoCoIgCIIgCJOSCFQFQRAEQRCESUkEqoIgCIIgCMKkJAJVQRCEScZsUjGbxBLXgiAIYsF/QRCmlIla8L+w4A7FM+8wa0Y/jsy75GRqT6bq7bfh6p/GjZ5MWm9mc60zW7/rhCue2UthQR8zp7vJdwxgS/UCIA9b6XJlcPO2nWudWbTezNHvmjCx4L8gCFOJCFQFQZhSkg1UCwvusGz+TZbO70SSojd/qipx+nIBpy7P/FwC1uKZvSyd30n53G5SLNH/Lo/PTOPVPE5fLkgqYBWBqiAIU4l52bqSv9NvFARBmKzONUUPLqNZvaidddVXmDurF0nSl4aTJCiYPkDRzDtIQMetLH2VcVu9qJ21VVeZO6s3rm5+s0mlYPoAs/P6MUnquM9lcZkY8SUIwtQxcRlVez61izeyanYxjjQblpG20O9FHmjmXPN+Dp/rwqXbjZod7C516reOUbz4vC7a2g5x4OMGOoLLKrbxQnU5Njqof/NV9gSXjbCX8sjKh1mWX4Qj1Tq62edx4epu4Ojpg9T3hOwRH3spG1ZtpnpmPrZAgsI33EXz5ff45Wet+tqCIEyQ8WZUH1h+ldrlrTGzqJGoqsSxk8UcPTlXX5SwB5Zf5YGqq/rNCTnaMHdc5zI1MqqZVFc9wqq55ThtmVhGTlnxIg910NJyiMMNjaHXAwA28szWteTpNwfxeftx3W7g+Gf7OR7S9o/sK9NS/xyvXwguG2Fj2fKN1MwrxzktM+g6J+Puv8zZC79hX3O/bp8E2VezfcNjlMhH2Llvv740IJM1929l3Rwn9pTAdc0v4+5t4PCJvbq/SxCmtgnJqDort/KDBzazNDeXdKsVxdNFj7uPwSEZU2omNlsuzlk1rCg003mpmZDfUOF9POzIBMDn9aIoSujLZMVizcAxvZKlsxXaL1+hd2Tf3Cq+7szFipsbpz9G3644Fj7Gjx7cREWOA5vFjHy3i96BPgb9YEvNxp41j0Wl97HA2kb9zTu6vaOwr2b7N/8jyx0ZWOnHdacHt2rFbstmRl4VSzOaOd6ewPEEQYjbeDKqqxe18+DKK+MOUglkV4sK+hj2WMadzSRwLrVVV+PKokbjzOvH6zUnfC6TPaPqmPsof/Xo9/narNlkp6Si+Fz09LsYHJJRLDbS06aTl1/FygW5eNvP0uYJ3nsha5YVk46WJPH5ddcTzFgsqaRnFFNWvJBU1ydccuv39dF740M+uxV8XMBeyVMbfsi6wkKyU1IxeV10B87LlJpN+rR85hSu5WuzPHQ3t4Ze5+JWzJY//x6L080w3Mrvmy7pK2h1Nv0N62ZOJ1Xy4O7vpk+WMaVlk55eSFnJYrJ7P+ZCkvGyIEwWSWdUHYu38aMV5dgAd/ch3q8Pz1A6yx/jeytW4zCDfONtnv99w1jhSEbV08iBd9/gWPCOoN3B3v/XPFbixIJM28nneO1MoChKRjXmednzqV25lUcK87Hgpbv5n3i5Lp5MaD5bvvU3VOdY8fXV8d7hvZwKNHRlNTt4qtSJxd/Ksf/5jxzQ7yoI9xCPBy5dUbnZpaCqEhnpUFZqwpENROh277qlcvmqyqqlJlJS9aWaRDOqhQV3+IvaRnLs2mSpZPW6bfzbsfJxjVktntnLt9dewD5tWF80Lu67qfzmSEVCY1YjZVTv9KlcbFbpc4MkqeTnSiwsMZEa9D2oQFe3yqUrKkND2rbsbKiYbyIjfazeuM3ZyDMPrCXPDD73Cd4/vp9jnaHfm2PuQzy++lGKUsHXe4R/+e1+WkZLY2dFHXM38/2aGu09uvfy7MG6QEmUfe2r2f7NxyhJBeRmjje8rcuc2ihZvJEty7TrnK/vCG/t209TUI2Y7JU89fATLLYHMqR9xhnVktqdbJ+bD8ONvH/oDT4cua7ZS3li3TaWZVnxuQ7y8v5D4T2YgjAFJXlrXcWWJVowKHe+x2sHw4NUgI7G9/jFqUZkwDbrIZ6Ypa8Rjcypj97mnBvAhnP2Wn0FA1VsWRzjvNxdHPvDbt5q7sCHlbx5m9kSz3mVPkJZjhX8rRwPClIBmuoO0iwDkgPnkuCdBOHe4vPBmUaFrlsKc4tNLFpoQpLgszN+unoM7o1VuHVb5VyTguI3KE/Csvk3JyxIBcixyyybf1O/OS5LSromLEgFsE8bZklJl35zwvr6VU6eU/ErsGihiXnFJnpcUH9aYWg48H2o0NoOZy6oTLPBknKJhaVw9y7Un1Lo60/2e8tny4pAANl3hLf2vhcWpAK4rh7itbo6XApYclbzSKW+RnSuq3v5zTXtM7PkVPKIvoKB2q89ogWpw40cOPhzg+59mZZz7/HS0SN0+8GSVcOGmnxdnUhsLKvexq6/2KoFqX5txQdj+dTk5gNeOq68PRakAribeeeTBlyAJbucNUFFgjCVJRWoOlbVUJICeJv5+PiJqHdvrnP7uej2It/1YZmuL42li+uDWoNlSbHrC8M4VtVojYq3maMfRD+vprq9NA0AJidl5eX64jDLCmdjB+RbdRwIClI1jfzyvafZ+a8v8PpZfZkg3Dtu3gJXr9bNXFok4ZwJK5eayMyQaL+h4g9Kinq90NiscPKsit8fIdU6ToUFd1g6v1O/OWlL53dSWJDY8J7ZeX0smoCgUm9RSRez8/r0m+OmqNDSClaLRFWlCedMKCmSqFpsYkhW6ezW6snDcK1dYVaBxIpKEzPzJYpmm1i1XEKSoO26ippMrFr6CGVZVsBF02cxspHte/mkR8Y33I9vWrG+NKaWHhcygNVGzCuK/VGWF2QCMm0X3uBYWLsfpH0/B667ACt5zkeo1pcbqXiSb1eUaz2OPYd451Szdm6GyrFbvYCLW40GtW7I+ABMVmz6sog28szWF9leEeil3PoKuw1fO9gS2GPLplfY/fg2anVHomaHVnfTRn0Jtetf1I4RqPPC+ip9lTGB8witU8X2x4POR/f+tetfNHxfYepLIlC1sW6W1kDIt0/wfrQfLwBdvLN3F8/veZW3Pucgbk2+NjlLvt3Ah/rCMK3U3dZCWXvuqph3ofMzHIAXlyto+IIgCCHuDqpk2cGRPRZ4mi1gtUqoKqiMRTRNzSrtHVCQD8WFExuoFs+8E3Vcar5jCd9Z+y888/hldn2vnWcev8x31v4L+Y7oXSKSpFI8M7FAdZ6zN+oSVOM9lxSLn3nO0ZH7CfP5wOuD3OmQFtTNb00Bs1n7vgCGhsDrVcmdro3XHWFLk8jOhGEP+JXIn3UstSXztaCx7wwH2vWl4T48+BzP/mo3r/8pniFbSSgrxWkCPK2cHRl2FkXTpctacsRWTFXs3AfgRZZbOfXJCzz/7wc5pejLgx3htV/tYuebu3nH6Jpb6tACVMUbJdgNtWXTWuyde0OGOnQ3P83ON0Nf9X1OqgPBapcsQ0om+pzxltzAxOis+aNBraaKcocN+i4HhujJ4HgyQrBaxfalWo9oyLbHn9QmmL35NDvffJsWytkQFJge+2AvLba1PFMTsqPwFZBEoFqJw8YXFLSVU5ql/bN19zfqC3WqcGZoY3zcAyf0hYZauru0H3XqdKKsPwCUYk8D8DE0GOiuefyl0Tu8n353B0+UaxPDBOFetrBUYvUKE9bAcDufD1rbVW67VHKnS1jMY5FOagpUVkgsKTdhtYwdYyLMmqHvoh2T71jC99bvZf6cb2CxpAFgsaQxf843+N76vTEDxGjHNhIt65nsuUQ7diwpVlhdJbGwNPCdqHBXVrnUooIE0x3a5pxseOgBM/m5oTcTXh8MymA2SZhM473RsDE7fayNj9YLNhGqZzq1QEju4rK+UKfWEQjH5C6DORQGbjTT6wHIxB747KK68CYvvfePvNOY2L+ncMU8UVmOHfDdaeS4vthIzQ6qszo490Hsa/iefUfoxklRDRxrb0UO/O8xVThs0N08Vm+ME3sKyPLYOg1uWcbmqDLIyq6lRO4gkMgf25Yi03JpZMxuA6+fbkTOWq1lgke2Xesgr9Ag0ytMaUkEqnnYUwgEbfqyiWKjZMFavr95K2U2QOmgqalZX0nHQZoFQMYdb9t9oQvt5tSBY/QfvZFMrIF5CDkLdvJERTkO1UV3bweuYS+WVCfLVj3LMzWJd0UJwlfV2UaVDz9SaL6iUjRHomh2aDCzoESiIE+KNL8qKY7Mu/pNo+6v/K+jQaGexZLG/ZX/Vb85RLRj65lMKjOyItdP9lyiHTsRnmE49ic/H51Qud2rsKRcIjMjyjejQkcnDA7CrAIYd5xKOfZANlcejtXGj5+joJJH1u3k27MzAS/dHYc4pa+kk5mi3T3JckjoFEUDrkA6055hlDH8PNioXb+VZXYr+Ds4eSq+iVRbcp1BWc742DOq4EIDNzy6v6+iilkpMu7eDtz6spr55CFzo30sIHbfakVOKaZcd83dkuuk+1bo7UNthgM8rTQGT3C70MANj41Zc4Lep+4y3SnlrBJZ1a+UJALVGKKMdTFM96eUsyGs7otsv28jZXYrINNxcS97buh31LNhHfmronahJMOGI8tGd8vPeelXu3n5t6/y0q928cuRiVmljyU4YUwQvpoURSI/V2JJuURerpZVvXApybGMCRh5LKqRuTOj511ilUc7tp6ESnaUCV2x3itWebRjJ0KVYEGJibL5ErY0iZNnFbpuRfiyVOjoUmm+4sc5U/uePz8beSbs+hB4GY5LtFFSHV531/qtPDg7Hwsgu45yoC72mGGbNLL+drRJTl8mG7UP7uCRgkygn5ZTP2dPHEMnYCNFWdB9K3xlAUMV+dgB90DDaDAenBGtnVOMzdNK44UGGl2h2VLDQLNXCzTtIQtWbKQoq4O2kYUYAvJttogZbZstuB90P219kJdr9G9CmKqSCFTdyF4ACxajZWRUGdnrxRf8ihE4htQNvOSBDtquH+TABz/hZ5/EMxZJu5sD/Q8ginJHYEC9C5fBciaGXEf55UfNIXetTXU/5xOXF8incIF+9I4g3HtMJpW8GTAzX2JZhYl5RRIdN1Vu90YIfoQvVWoKFORJFDolVi3XJr81t6p4dDGaCly9DuebVAryTZSVahOqxq8DObAeqsVq1Hb68OqvD5GH+2r84dcT33AX3d1nOP7Zbn62/2D0CVsBXcPaTUBoQBRNJY5AclwL6j5PxWz4851smOPAQj8tJ/+B18/FedMSyHK64xrePDJudCyI3HOrI2ScanAweWzAFbFsjBbQhgSVNfPJSzDDq9cly2DLF93/XyFJBKon6L4LYMXhMBgx3vg2L72zi2eDXu93R/kBeRp5X1f/2Xd28fyvX+W1w4cMlykx1kDHgNaqxtvt4nBM18YrefqJfn/diDuwsoyr94hB14qMy+MDwJYab6MmCPcICXJnSJhN4B7QF34+evsjz32+etMoPzMmVnm0Y+upSNxxR64f671ilUc79nhZrTAjV2JoSGVoaOzGwq9A4yWFyy0KRXMkFi+UMBsvzZqALloHtDbeYa8ifGjnQX6mvz5cDX8u1RiZlobw68mzv9rNywffZJ/RUxIjOOYKXBXiDX7sRYFhDPEGgeNkr+Spzf8PanMzwe+i6bPdvH4m/nGutRmOiMmZvFJ9NvpJSmjkQPB65b39yKPD5XTZ2brLQeNUI2dujw24giZeVbG90GlYLxH6IFmY+pIIVGUaAj9ge15NfD/gL8jxLq0Bs01fzSMx1x4pZkOBFlS6u+sMuxbGyLiGtCDYmiICUUEw4vfDqfMKDWcU/LpeFFUBRQmdNf55cvVP028a9dGZ/4bPF1i1XsfnG+KjM/9NvzlEtGPrKYpET1/k+smeS7RjxzIwCEePK1zrCM9yqz4VCQkp8IX5fHCuUaHjpkrZfImF85LNpI45drNDW1opu5x1k2noVFMzHQqQUsyS5bFvCMpWVGqPcJUv02AQBE4I+2q2PxpYd9XTyvGjP+GX8WZS42A063+n/oE8wWNEK/KxB2VbQ7rgK/KxRwragwPaiipmpYR3+49PrPkmwlSSRKAKLccO0eLRxpeuW7/a4C74y+H65BBNMmAt5b410c+rrGYzZRmBiVqNsVYUgPdvaUGwfXoVZfpC8sdmrg7EPpYgfBWZzZCaCq5eFXdQgkdVoaNTRZJUcrImKLqJ4UZP5FU4ulxn+dcPNnO5/XejQaLPN8Tl9t/xrx9spssVfR29aMc2cr078qNOkz2XaMeOJTVFy57e7FTxBnXxDw2rdPbAtHQJW5r2/V1sUenuUamsMFHolCI+YWxczuzlZJ8XTE6Wr9po0L5+SdwHOd7hAmwULXyS2mjJjzkb2TBbW8Kwu+N96vXlE2HkKVk2QG7k/d//I/viGpM60QLjVG3OwPjU0B7JkS74LaNjV4MKR40FtLVzirFF6PaP1p0fvJLAGONMsTA1JRWoQgN7zgaeOFXwGD/61mbWzNDXAWY4efD+HazLi303OjEa+eW5Btz+wHlt3Eh12HllsubrO7VHnuKl+0o8E7WA+jpahoFpVWxZFxwE21h2/5MstmsPGjh3ZuLubgVhqpk7RyLNJtFwTqGlTeVml8pnZ7RMXMk8M1nRLvYTqPVmNqoaOZrqcp3l10f+Ey+/O5+X/nUOL787n18f+U8xA0NVlWi9mdgjVK905ODxRe4jH++5eHxmrnTEOyA/nNUKJcUS/QMqn55W6LgJbdcVPmlQ8HqhvBQsFui9o3KjUyE1BXpcKucvhr6utqsksYwq0MWez+oCT3Zay1Pf2caGuQbXDHs+1au2sWvuF9erVf/hQc7d9UJqORs2/JAtpeE3Kc7yx9g18vjXvrq4Jmolzkbtmo1BT8kKeoRqgo4NuJLOPO651QFZ81llsyG7GkIyrsfaW5FTMikyHJ86RjvGatY5bBG7/bXufN0KAYFVBoJXEmB04lasYXzCVGJetq7k7/QbEyF3N3BmKIMFeYVkZxRStmA9Xy9fxvJ5q1mz8M9YV7WRDeX3U+rIxCqB3HuCo2cPcXUk01J4Hw87MsHfw6VzDbTpjh9VbhVfd+Zixc2N0x8TcgN16yznhrOpmDmbzPRiFpU+yP0Lq1hZupo1i7/BhpXrqcjOwKTIdDT9gn+Ie9Hom1z1ZlMxs5Ds7EXcv6iapXOrqV2+iVW5mZjop+XUa/z/rmtjVQXhXmSxSOTPkJCHVK7fUOm6BSYTlM+XmD0rcnfxnT7od6vMnmnCHGFN1XNN8UdDfQNpZGcMUTB9YgfFnr48k08uzNFvjqp/MI0c+xAzZxit1D5+Zy7P5NPG2frNES0uC89PZEyTyMky0eNS6bip4upVyc40UVlhItOufVmtHSp9/RI+v4R7QBtnHPxSVSjII4m1VIH+Sxzv9TAvdx4zMvIpKnqQhyuqWTqvmjUL76N2+V/w54tqWZKXi80EvoFm/nRhL023R9rbhaxZVkw6PnpvfMhnt3THjyravjc53d7NzNmLyJs2HWfhWr5eUc3yedWsWfhnrK/ezP1zZmMzaU+Xenv/v8c1UcvQyHVtuJXfN10KLZv1LR5fOk+bU2HKZt78h1i3xOhVjv3sJ9HPoX0GS5fNJ1X+HcdHMrKB9/a4grZF0z6DpcsqyUuD3s43Q/e55WRloKz7+j+OlRXex8MO29hnbF/E/c6Z2MwdXNg/ch3XvovUgbMcabkJ7cPMq6iipKCQ4XMNtFHF9oceJG+gjpf+GPoZrVryTZy+87yh/+yEKSu8xRoH18W9vPzuC+w5e4K2gX6w5JOX4yQvJx+7BXzDXYGZ+8/x/G/f48N4fgATwHXxPV76t90cuNRItxesaYHzysgEn4uOa/vZc/C5OFcTGOO6+B4vvf82p3pcyGYHeTlOHFYv8kAzx/+0O/5Zl4LwFZaaCpUVJh5+wMw31pqoWWWKuV7q3EKJ2vvMpBitJDJOpy7PpHcCJxv1um2cujxTvzkuZ1vycd+duD/OfTeVsy0TMG1EAkcOrKk28Y212ndWVSmRkT5WpbxUK4v0ql5mCnmQw7i1H+H1X7/A658doaV3rI3V2lnA56K7s44P617g2V//nH0Xv6D21n2Gt/YGzquvH0bPKx8bMu6eE3xYpz1dKmqAmIyi4rFePJMVizXya2RRrcgmYimnkVV2jMaWasePOakssCZr9PVcG3j93cDTqIInd+3TZ2AjT9wSpi5p608fjj89IQiC8CX71b5Y6xKFW72onW+sbo76ONV4qKrE706UcuJ8YtnUYKsXtfNgdQtWc4z1+mLw+k18WF+S8Ll8d1Pk4QfCPaZmB7tLoT54Nv9UVrOD3YX9HNBP/BKmtAnJqAqCIExmJ87P4djJ4qjjVWNRVYljJ4sTDgz1Tpyfw/HTRfrNCTt+uijpcxHucXWvUt/nZLHRQ3imnMDyVtdEkPpVIwJVQRDuCUdPzuV3J0rHNQyg123jdydKOXpyrr5oXI6enMsHf5rP7XEsK3W7bxof/Gn+hJ2LcG/bs+8I7oLNbE9iUtVkULt+MyXyEV4OG4IgTHWi618QhCllPF3/wQoL7rBs/k2Wzu+MORRAVSVOXy7g1OWZXOtMbJZ/PIpn9rJ0fiflc7tJsUT/uzw+M41X8zh9uYDWm+Of5S+6/gVBmEpEoCoIwpSSbKA6orDgDsUz7zBrRj+OzLvkZGqTcnr7bbj6p3GjJ5PWm9mfS4CqVzyzl8KCPmZOd5PvGMCWqi1oKg9b6XJlcPO2nWudWUkFqCNEoCoIwlQiAlVBEKaUiQpU71UiUBUEYSoRY1QFQRAEQRCESUkEqoIgCIIgCMKkJAJVQRAEQRAEYVISgaogCIIgCIIwKYlAVRAEQRAEQZiURKAqCIIgCIIgTEoiUBUEQRAEQRAmJRGoCoJwzzOZVMwmBbNJwWSaBEtLq6r2EgRBuMeJBf8FQZhSJmrB/9l5fcxz9jI7r48ZWXfJtmtPprrjttHTN43r3Vlc6cjheneWftcJp/j9qIofxa+gKn7UQJAqSRKSyYzJbAr8d/KL9YsF/wVBmEpEoCoIwpSSbKBaPLOXJSVdLCrpIsUS/Vgen5nzLfmcbcmfkMeX6il+P4rfi9/nj51BlSTMFjMmszWpgFUEqoIgTCWi618QhHvG6kXtfHvtBZYvvBEzSAVIsfhZvvAG3157gdWL2vXFSfH7vPiGh/F7fbGDVLThAH6vT9vH59WXCoIgfCVNXEbVnk/t4o2sml2MI82GZSQE9nuRB5o517yfw+e6cOl2o2YHu0ud+q1jFC8+r4u2tkMc+LiBjuCyim28UF2OjQ7q33yVPcFlI+ylPLLyYZblF+FItY5u9nlcuLobOHr6IPU9IXskbs5mdq2twdb9Ns9/0KAv1cyo4onVj7LQ4cBm0v4u+W4bJ8/9D/Zd1LocBUGIbbwZ1QeWX2XN0jasZkVfFBev38Tx00UcPTlXX5Qwv8eDz+sFxtv8SlisVswpKfqCmKZGRjWVWTNLmZ2Ti92SgmnkeqIq+LxuXL0tXLnZg1u311fLTFYuWUKO2Udvx4d8ektfLgj3BvOydSV/p9+YKGflVn7wwGaW5uaSbrWieLrocfcxOCRjSs3EZsvFOauGFYVmOi81ExIXFt7Hw45MAHxeL4qihL5MVizWDBzTK1k6W6H98hV6R/bNreLrzlysuLlx+mMuBB8XcCx8jB89uImKHAc2ixn5bhe9A30M+sGWmo09ax6LSu9jgbWN+pt3dHvHyb6a7esexWkF38BZjrTc1NeAORt55qFvUZJhw+pz0d3vYpBUstPzmTN7JfP8n/BZt0+/lyAIBs41JR7crV7UzrrqFsxJTJQym1SKZ95hyGOh49b4x636fV58nmSCVI2iKEgmCZMpscBzcdnk7kizZZdSPX85s+2ZpJnNqIrM3eEhvD4fmKxYrTbSM2Yyy5GO0t9F3/juW6YAO7Py87GZFIbcV7lxV18uCPeGpDOqjsXb+NGKcmyAu/sQ79eHZyid5Y/xvRWrcZhBvvE2z/8+KOs4klH1NHLg3Tc4FrwjADaW3f/XPFbixIJM28nneO1MoChKRjXmednzqV25lUcK87Hgpbv5n3i5rjWoQhzmrOUH922kyKb9X7nTKKOaz5ZNf0N1lhW5ey+/OFg3mhUuq9nBU6VOLN5m3n/n53yo21MQpjKPBy5dUbnZpaCqEhnpUFZqwpENSInXG5FoRrV4Zi/frLnI9KyJudLf7pvGv9ctHNeYVcXvxzc8jKqOL6urJ0kmLKmpCY1ZjZRRvdOncrFZpc8NkqSSnyuxsMREaqq+5pj2G3C5RWHlMolMu8GXlaishawpKiLdBMpwB83tl2gbCB3mYMuex5LZpWRZQJHbOHnxYnhP3VeCyKgKAsmPUa1iyxItGJQ73+O1g+FBKkBH43v84lQjMmCb9RBPzNLXiEbm1Edvc84NYMM5e62+goEqtiyOcV7uLo79YTdvNXfgw0revM1sifu8Mllz/w5eWKsFqT5/tPFi5eSlgU/p4NxHY0EqQFPdb2mWAWsR5cuDCgRhivP54EyjQtcthbnFJhYtNCFJ8NkZP109Y/fG8dZLxtL5nRMWpAJMz7rL0vmd+s1xUfzeCQtSAVRVQYna/sSnr1/l5DkVvwKLFpqYV2yixwX1pxWGho2/h75+learCmqSmeEx6SyaOUcLUofaON14PixIBZDvXOGT9naGVDDZnJTm62sIgvBVklTXv2PVf+BbBdngbeaPh/dx1qOvMUbu7mBWySqy/G767n7M6e5AwUjXv7+HS+caaNPtpxkkp7CWBRlWTL6b/L7pkrY5Qtd/8Hkd3rcvbEhAsJ72mzhLV5OXmklmajvHruojWgM1P+CHpU6skhfX9X/jjZ4cvubIjND130r9uUMcPvMxF8I+H5nyhQ9SkGrG4/4dx+Odq1GxjRf+fC25pz/mQs0Odj/4H3h42frwV0Uhw+caaKOK7Y8/w/9Wmjr22QXUrn+RH9z/Te4v6Ak79y2bXuE/Li/E6dzME///9u49OIrzTvT+t+cmNdLoMugGg+4SugACZAQGEYyNbew15BDy4rOO34SqLO96U1u72dehXJSTLa9rk5SLsn02u5XaeMvJKZxjJ8dUCCc4L7aDbSAWGMvIXAQSIIFACF0QI6SRaGku3e8fPZJmWqOZkUY4yH4+VbPx9vN0T2uG6f71r3/P02ufYGlyhH0M7Ef4Pvr7P5ga3BZumfBl0dEN7dc1qipN5M2XSLFDTqaEqw/cQ5CdKWEyxd4v2FRu/RfM6+PBFZfjuuUfjiNV4XpPKrcHA7dTYqD6/YG61JmlaRomkxnJ+EFNwnjrX9Wg6SKoqsR9S/VMtiNNIj1F4tp1FZtNIi01NFvq80HjBQ2vRy9gcOZIJCTEmVF1VFI5144ZhZvtDVwZMXYIMtKLOSWfNNMIw74BbgwEOmdW8+DCJRQm+7A5qliWV05JTjH56Yn4e28yAJDgYGF+NVW5FZTOK6Y4p5jCzPnkJHrp7x8k+DC9qPxRli0oJsfaSvtAUANA7moeKaqkOM3C5d5b+rKx97/DLVMuK4qWUT6/hOKcYooz55OdOMKt/iGMhV72jIqQvoWOVKyeQRJSxa1/QYjtyBaWzIb5BQAot07wbtSq9m7e2reLF/a+yhtnjW0za022PjhLudUQw+30Nupu6TeO7JkrWWNsnoTSf4ajR1/kpQ9Cs6RTMv9h5icBuHDFnKCp5pmlFbhbgksdFFrrf8Bze4Jfb9JKBZue2sE6GnApgJzNOsO2Khz6iVZ2VBvaNpOfCoqrgcsAKNjzXmFnbUingM3sjDAgbtuWpymeMOajgddON2EveZZtxiZh1rszpJFq1wOeUWYLWK2SPpd9IAsXa7/pysvpjzi6P9uxhG+u/yU7n7rErm+3s/OpS3xz/S/Jdiwxdg1hs/jJy+k3Lo5IUyNPQVVdXsTvX97F4Me/wV//OwY//g2/f3kX1eVFxq6hNE3f9jT5fOD1QeZcSAy6zW+1gdmsfw/BNA0utOoLy0rjDE6D5DvmYgMY7uFiDB/tlUsf8kFjHZ+1T+xsmVNKfrKM6nEz5PGAd4B2gNR8VpauID8lCYvkYVhxMzSsgEkm2bGEleVlZBg3Nh22IlYsyCXJNMKQ4mbI4wOzTLJjKSsLQ98hI3c1KxfkkmQxoXqGGFKGUK0Z5OeXMRPVFIIw28URqFahxzheXC5jXeZMq6AkVQ+o3ANNxkaDapzJ+uh+9+AJY2NYrT3dKAAJc5k83ApS9yov7N/DO1emO1o/hfIlW9n5wHqyTODrPcH+VmOf8NZt3EoxTXxaZ2wx0gNBxVZARSXsvdkBgf8e58RuU2htGe83pjIbO+AeHP1uXbgVyMrcHNRJt27jKuz9HfpnGGIzO7e/Qs1k407Ov05jv5PFG6uNLcIsV1Yiseo+E9bARBs+H7S1a9xyaWTOlbCY9TNwrP2ma97cya+gsx1L+PbGfZTmPorFkgiAxZJIae6jfHvjvqjBaqRth6P6J7/lX11exNHXf8LXH6hBTtCv6uQEG19/oIajr/8karAaadvR2KywqlqirCTwWWtwR9G42KqBBHMdof17ejVu3tIoK5Kwhi93nQYrKVYLAJ6Rm2GOJVNkgmHXCT46f5xj5w/zUUu7XlqQU6rXtg63c7b5MH++cJxjzX/mg7YL9PvAlJjPIkMgOR0WWxIMNvHJmT9z7MJxjp3/kM9dQwDYkvPIH+1oL2Ohw44JH4M9J/jgfB3HLtTxUfNndHks47PnCMJXWBw/gyzsNgAfw/rv7y6QKV64nu9u3U65DKgdNDe3GDsZOEi0ACi4J15oh3e+OzDNiQNHSCB3F6x+lt3bX+C71bVk2cDXe5Bf/vFQjIMB9Ayo4moIM+hsMjL2dKDuEj2j/z2qtpQsXLjqunEb2tblFiDTwdWggPjqzQ5ILTVkQKupcMCNm8b7YpvZuX09WZ4m3qnX65PD2XuzAzlnvciqfomdbdL48GOVlssa+bkS+QvCB5+x9puKbMegcdGYtVX/NBagGlksiayt+ifj4hCRth1OpKznP+94cixANZITbPzzjieNi0NE2vZUeEbg6Cd+Pj6hcatPZUmFREry+PcwOARNFzWKC0ykpsT//YzLIEGPU/H6YjsaRqS56b5mOAGkF5Mhm0Bz09XRRFdwaUH/VT696UIFbPYCSoKapsdNT3t7yPRZvdd6GQIwJ5AcWOaYm0WSBNy5xqkbQfs74uJsRwfD40sE4SsrjkA1isodvLj9FXaHeb0YLoNmq2DThL4/5pnVmym3WwGFjgv72HvDuKKRjHX0r5p+kuGuyTcpuPo66Ol3oahgyXicZ578HptyjT3DqKxmvk3hRnuMGez0FGQU3H0AHbg9oRnRbZlO6L/EXg5wtT+0LVuWA21B6i7RYwzmK6uZTxtNY3OGjTrAy3t+wHNhZ3IIUneJHpzkhy0pEGY7VZXIzpRYUiGRlalnS89f1CbcTo6131SYTRpywuQ1oYXzQotdjKK1R9r2BJo29ljUcB65f6lxUYho7ZG2PRWaBAuLTZSXSsiJEp+fVem+qW/b54PmFpXMDIkF84xr3m1lrFn2KI+Ee5WXGTuDT9HrUYMlJ+mlBZ7bXA6XDO/u1Ke6MiWTFm9S1XeH0bLZcQN4DNcT8xL0O4XDw1cnXsy7uwkzlkwQvnLiCFTdKF4AC5Zw05doCorXiy/4FSVwDOkbeCmDHVy9fpB33vsJP/s0lumj9IBsLJMYiwoHdtBrRSONvJoBV+v+k5f+8Cov7/8JL+zfQ6PbC3IJ6+7bTLGxs4Ge5Yx1HwN1o542ms4DNNDkUoLqVKtxyKAoeoVttzJ527gDXO2XmZ87fqGxLrcAppThNdK/L3tymIsXYdYzmTSyMmBetsSyShNF+RIdnRq3+kIDq1j7CXdXgg1ysiTynBIrl5tISZZoadPwePSLh+ERKC4AaSaTqQAM4A0EcWZzkrER8KMZ59iOdD7xj2As+8+x6Clbn3dgYlAIwO3APlgwjT8bZnp8w3pNbDQSgMpI2EF2rgmBrSB8FcURqJ6g5w6AFYejwtgITW/y0lu7eD7o9W5P+MMDAJ4m3jX0f/6tXbzwu1f5+QeHONoVYd0QDXQELkNjDX4cjrnIAJ4Buo2Nd5P7DG+cadJvD6WWEm1vs2V5kn2UKa4xZqPXk9V/OCSjeXTQBbYUspmYnT3a3jZepxohc9utKEEDrzazMoew/WKnD/SS5Ziqg4XZTILMDAmzCdyR7prH2i8KvyqhjEwecVzpjHx5Fa090rYnkCSkCNHdnz45bVwUIlp7pG1Pl9UKGZkSw8Ma7kGNG10qd+7A0eMa7x9Wef+wqk9p5Zf45KTG0eN+PBOyiLEa4rZHHwufaJunH49DtHD8zCE+CH71hUuLzgSVGaqkEARhBsQRqCo0uPSQyZ5Vaxgx/pd1rFvPBMpzV/GYniqNoIBNOXqQ5O6piyMzOE0trkmu7qci3Kj/H/Dc/gOh3YJvs6enII9lW4HzDdzwBLKl6SmTZm5DAtraUrKCtxGPCTMSCLOV3w+nzqk0nFExjvHRVFBVPSMXa794dLtGqwEn+vjMv+Hzha8C9PmG+fjMvxkXh4i07XCkCE+Q+tfX30YZmTB/HQDKiId/ff1t4+IQkbYdzeAQHDmmcq1jYvZa82lISFisUFlmYumi0FdBrp4ULC2SqCwzYZ5C7G501T2gV2vJmRRFPW5PXZdPD4Qt1pQwgTBBdbLqF1c2pgGYSBgdTRjCiinOf/+C8GUQR6AKrUcP0erR60s3bFyFYXDoX4zr00M0K4C1hNVrIu9Xee1WypMDA7Waos0oMA0VT7PrWy+x+1vf4yFjG0DVAn3/VO8MBKzRjN9m35bpBKU7KDAfz2yO166GERTQbst0TnFgVwQh+yLMZmYzJCSAq0/DHVQoqGnQ0aUhSRrpqVLM/eLReWvyiKfbdZZfv7eVS+3vjwWsPt8wl9rf59fvbaXbFXkevUjbDsdknvxw29B8mXU7fsgfjtSPBazKiIc/HKln3Y4f0tCsTxI3mUjbjibBpmdPO7s0gu9AD49odPXCnCSJJFkiwyGRnUnIKz1VwmTWmJsOGQ49Cz5t3U10Dasg2clxztA0UcEGh/Q5Um1p4QPh7EzsJr1sbSAwnfZgILi1WiaeRUoSw5UoTE1nYCRyYlLJxPNUQj7J4cfXCcJXSjyHFaCBvWcDT5zKeZLvf30ra8IdXTKcPLT2WTZkhb+OnXlN/KqxAbc/sF+bN1MzYb9SWPPgc/ojTPHSczmWgVrT0NSGGytYS3jAGMznrufvK0uwAEpXHe8Et4XRrSjjt+6nRa9TlR3ryZeh52ZoxnXvzQ6QS8kPW586anQbW1mcGr48YGomq4cVZrPCXIlEWaKhUaX1qkZnt8bJMyodnRrFRWZSA4FCrP2m61pXKh7f5NnGbtdZfnf4b3j5N6W89OtcXv5NKb87/DdRg1SPz8y1rsnmXQtPMpkjpogbmi/zjZ0vkbz2Kcw13yR57VN8Y+dLUYNUJCmujKrVCsUFEgODGp+dVunohKvXVT5tUPF6oaIEAuWdd9kQ5zrbGVL1aaKWVlazMC1MpjEhifkLqvla+hT/cfS10quMBsIV5ASPrUjNZ2WmAxPgG7zG6GNR3F69lsGWVEB+UH97djW5SXGePgFXVyeDKpDgpDzPEZTpTWVRYQFBEy4IwldW3L80V+Pr/OyTOno8IKfXsuWJV/jpXz/Hzq8/y86vP8c/P/USu594lseKncgmUPpOcOR8vMFNDM6/yc/rT+Dyg+xYz7bHX+LFbYH9+uYL/PTbL7AlLxuLqtDR9AterotloNZ01PGbM+PB/K5v/XBsH3Y/tJn8BPD11/H7T6J/Jkfb21CMo+6nSL917yTLNjobQJC+gbG2SAGoXusqh5YOTJsTuy14vlbhyyAxQaJmqYkMB1xuUznbpDEyAlWVEgW5o4NIYu83XW2d6TRdyTIujlvTlSzaOmMdrakzmc2YLdMPKCdjtpgxmePbbnaGxH1VZjQNzl1QudiqkZxkombZTE9DFUX/BY5dvUCfR8VkyyC/4EEeWfI11pStZk3Zar62+GE2lNeyKCODRBOoHhftN6ME8mOGONd1KTBfai5LytfztbLVrCn/GhsKyvT5VUc6aLk+/oS+sUDSksHC0f6VD3H/vAxMw+6Qp1hNy8hlTnX14sNEkmMFaxfXsqaslgeqVjE/US9/EYSvurgDVQDXhX28/JsX2Xv2BFcHB8CSTVa6k6z0bOwW8I10B0bu/4gX/vA2H8Y0HDJ+rgtv89L/2c07F5vo8YI1MbBfySngc9Fx7QB7D/4oxtkEps/V+Do/O3qQ5v4BfGbH2D74PC46Wt/k5/v3cSqWcQHBdaTTNTpnbLgg83wDNzxEn/2g7hI96E+tivt2fW0pWYb5WoUvh4QEqKo08cgDZh5db6J2pYmcLGlC7Blrv+k6fSmHW/1zjIun7Vb/HE5fyjEujonJbEWSZuSwC4AkmTDFUxg6SgJHOqypMfHoev27qK6SSI5ydzszQ2LD18ykzOQjlPqv8tn5I5y8cZU+RcEnySTJdpJkO4lmQFUYGmznyrUjfHD+M5pvhRsxP4n+q3x66TOuDgzh02wkynaSEmVQFQZdZ/m06RztwQPCRi5z/OoFeoc9qAT6W1SGBi5wutnFFN55UkpPA5+0X6bf4wNLEklyEjZN35+euCNhQZj9pO0/fWRiBb1wz1q38cdscrTxTrT5SWeJbVteYbHyJi+8JzKqQmx+u3/qQ7JXLWpn4/2XjIun5b1PSjlxLpaJj8Pz+7z4RjyjI2niIGFJsGG2TC1Q/est8WVfBUEQvkgzd2kvfCGOvrePVipY+WWYIL9yB4tTO2gUQapwl504l8uRhkK8/ukf8rx+E0caCuMKUgHMFisWqzXOugYJi9U65SBVEARhtpn+UVv4C2ngtdNN2EueneWPHa3mmaUVuFteDT+7gCDMsCOfF/JhfTHuO+GeUBKZ+04CH9YXc+TzQmPTtJhtNiwJtmmVAUiSSc+k2sSQcEEQvvzErX9BEGaV6dz6D1Ywr48lxd0sKu7GZom8LY/PzLnWbM62Zk958FQsVL8f1e/F7/Pr83JFIkmBgVPWuAZPiVv/giDMJiJQFQRhVok3UB21IKufImcfC7L6yUi9Q5pdn8n4tlumt38O13tSudyRzvWeqU1DNR2q34+m+lH9KprqRwsErVJg6imT2RT43/iDTBGoCoIwm4hAVRCEWWWmAtWvKhGoCoIwm0y9QEoQBEEQBEEQvgAiUBUEQRAEQRDuSSJQFQRBEARBEO5JIlAVBEEQBEEQ7kkiUBUEQRAEQRDuSSJQFQRBEARBEO5JIlAVBEEQBEEQ7kkiUBUEQbjHmE0aZpOY4loQBEFM+C8IwqwyUxP+J87PZI4zE1vWXKypSVhTkwHw9g/i7R/C03OLOx03Gb5x07jqjCuY10deTj/z5rrJdgwiJ3gBUEasdLuS6bxl51pX6ow8xlVM+C8IwmwiAlVBEGaVeAPVxPmZpJQXYC8vBMnYaqCBu/kKA81tdyVgLZjXx9LSLioKe7BZIv9dHp+ZpitZnL6UE1fAKgJVQRBmE/OyDcX/YlwoCIJwr2psnv61derShcxdXYW8ICt6kAogQUJmOrIzCySJke5bxh7TtmpRO+urr1A4vy+m2/xmk0bO3EEWZA1gkjQ6bqYau8Rkcbmo+BIEYfaYuYyqPZt1izezckEBjkQZy+ix0O9FGWyhseUAHzR24zKsRu2z7C5xGpeOU734vC6uXj3EO8cb6Ahuq9zBizUVyHRQv+dV9ga3jbKX8NiKR1iWnY8jwTq22Odx4epp4Mjpg9T3hqwxdblb2bW+FrnnTV54r8HYqsuo5lurHqcs3YFs1v8uZbiDC417eKtpwNhbEIRJTDej6qipJL1mcWwBajga9NU34qo/b2yZsgeWX+GB6ivGxVNypKGQI58XGhdHNTsyqinUVD/GysIKnHIKltFdDhw3W1sP8UFDU+j5AIDN7Ny+nizj4iA+7wCuWw0cO3mAYyHH/tF1FVrrf8RrYb9mmWXLN1NbVIFzTkrQeU7BPXCJs+d/z/6WOI/n9lU8s+lJipXDPLf/gLF1jKPwYbYsraXEHtgP1YvibqL+5B7eaTf2FoTZa0Yyqs6q7fz9A1tZmplJktWK6umm193P0LCCKSEFWc7EOb+W+/LMdF1sIeTYkLeaRxwpAPi8XlRVDX2ZrFisyTjmVrF0gUr7pcv0ja6bWc2DzkysuLlx+jjG44qj7Em+/9AWKtMdyBYzyp1u+gb7GfKDnJCGPbWIRSWrWWi9Sn3nbcPaMbKv4pkNj+O0gm/wLIdbO409IPdxvv/gFhbaZawouAd66PebSEvKJsdZy9LkFo61T/P9BeErZjoZ1dSlC5l7f9X0g1T07Ko8PwvV440rs7pqUTvrqq/ElEWNxJk1gNdrnnJm9V7PqDoKH+dvH/8u989fQJotAdXnonfAxdCwgmqRSUqcS1Z2NSsWZuJtP8tVT/DaZaxZVkASepLE5zecTzBjsSSQlFxAeUEZCa5Pueg2ruuj78aHnDRWetir+M6mf2BDXh5ptgRMXhc9gf0yJaSRNCeb3Lz13D/fQ09LW+h5LmYFbPurb7M4yQwjbfyp+aKxAwCOxTv4/urVzEtMwOTppsc9hGpNIWlONvl5i0nrO875OONlQbhXxJ1RdSzewffvq0AG3D2HeLd+YobSWfEk375vFQ4zKDfe5IU/BWUdRzOqnibe+c3rHA1eEfQr2LXf48liJxYUrn7+I35+JtAUIaMadb/s2axbsZ3H8rKx4KWn5Re8XNcW1CEGuev5+9WbyZf1/1fpCpdRzWbblv+XmlQrjDTx7qHX+TCwH47CrXy3tpYss4vmup/wqxbDqoIwi3k8cPGyRme3iqZJJCdBeYkJR5oe9I1qa9e42DrxMJSYoHF/tRlbQujyqWZUE+dnkrVhJdaUJGPTtHgHhuj54NNp1awWzOvjG+vPY58zYmyaFvedBH5/uHJKNauTZVRv92tcaNHod4MkaWRnSpQVm0gwfP537kBzi8atvsjf67TkbmbnA+vJMoPPfYJ3jx3gaJcS0sVR+DBPrXqc/ATw9R3ml384QOtYa/Ss6PhxF3w9+3j+YF2gJcK69lU888STFCcASgvHGt40ZE5lihdvZtsy/Tzn6z/MG/sP0BzUIyp7Fd955Fsstgfu/PVPklGdv5mdD60ny+ylp/V1fvVxS+BOZQHbtvwdNalWfL0Hef6Ph4xrCsKsFOeldTXblujBoNL1Nj8/ODFIBehoepv/OtWEAsjzH+Zb8409IlE49fGbNLoBZJwL1hs7hFHNtsVR9svdzdGPdvNGSwc+rGQVbWVbzPuVwpq1z/Liej1I9fn1EbphzX+A4lQr4KKxbjxIBXBd2cevLrYBDkpKa4PXEoRZzeeDM00q3TdVCgtMLCozIUlw8oyf7t7QoNQ9CFYrzM+RcM4bf+Vkm5DizDoCpJQXzFiQCmBNSSKlvMC4OCZLirtnLEgFsM8ZYUlxt3HxlPUPaHzeqOFXYVGZiaICE70uqD+tMjwy/h30D2ic+FxlcEhlYbHEojL9FHLyjB/X7Xi/q2y23RcIIPsP88a+tycEqQCuK4f4eV0dLhUs6at4rMrYIzLXlX38/pr+mVnSq3jM2CGMdfc/pgepI028c/A/w9zeV2htfJuXjhymxw+W1Fo21WYb+kxGZlnNDnb9t+16kBrpfALUVFTrn5HrUFCQCtDG3sYm3IDF7uShkLUEYfaKK1B1rKyl2AZ4Wzh+7MTE+tMgrsYDXHB7Ue74sMw1tkbTzfUh/YBlsdmNjRM4VtbqBxVvC0fei7xfzXX7aB4ETE7KKyqMzeHV7mBLsRPZ5MV1fR8/v9Jj7DEuey4pACPXaQlTN+S6rtftWtIqWGdsnEzlDl7c/izbCGSkt78S/vXUjvDbrNzBi4a+O0Pi5GqeeeoVdo++xyS2bYnSJ9K+Gd8zXN8tm4M66PsUup/CvarzJrj69NvMJfkSznmwYqmJlGSJ9hsa/kBS1OfXUIY1MhywuExiUdBrYZGE1Rpfii5xfqY+un+G2csLSZyfaVwc0YKsfhbNQFBptKi4mwVZ/cbFMVM1aG0Dq0WiusqEcx4U50tULzYxrGh0BQ5vmgZXr2tYrbCy2kT+Ar3vimUm5syRuN6pEVeoWvIY5YGL+uaTUbKR7fv4tFfBNzKAb87ULxpae10oAFaZqGcU++Msz0kBFK6ef52jY6UCYbQf4J3rLsBKlvMxaozt4VQ+zTcqK/Q7jr2HeOtUi75vYZWwZG5gX1oPTTy3tezhX/f8gOd+u4cPjW2CMEvFEajKbJivHyCUWyd4N9KPF4Bu3tq3ixf2vsobZ41tM2tNtj44S7nVEMOPtY26W/rP3Z65kjXG5kko/Wc4evRFXvqgLkxBfxiqjzvGZcFsKcR2/V3NM0srcLcElzootNb/gOf2BL/epJUKNhmC1W1bXmF3TQE3gvvXN2EvMQaGgMfB4skC0dpnqYmpNC7cvumvlwN33NZt/DG7SxyGfm/SKq8PCrYbeO10E/aSSfZHuKfcGdJItYMjbTzQNFvAapXQNBgNafw+CUWB5CQp/tvGYcxxZkbcbmV6Kv9eu4L6rY9xdtsT1G99jH+vXUFlepR/3FJg21NQ5OyLOAVVtmMJ31z/S3Y+dYld325n51OX+Ob6X5LtWGLsGsJm8VPkHKvcnzKfD7w+yJwLiUG3+a02MJv17wvgjgK3XHoQm5gw/qHarFBbY6Kq0hTpo45qXXGpHjT2n4lpMNCHB3/E87/dzWufTLFka6rKS3CaAE8bZ0fLziJovnhJDyDlAqpjyn14UZQ2Tn36Ii/88SCnVGN7sAocMqB20xGmrEEQvoziCFSr9B8MXlwuY13mTKugJFUvBHUPNBkbDapxJus1Pu7BE8bGsFp7uvUr2IS5RJh/YFzdq7ywfw/vXJn8unfMwEBg2w4Kwly6OxZk4wDAgjVMu9G6jVsppolPR8uqJqUHdoqtgIrKwKLaZ6lJDVN/df51XmjpgNT1oRlLxYUbJ/kTspjVPJPnoKc/hr8/qmoqHDJK1z5DPdno/lewcvT9z79OY7+TxRurgzsK96CyEolV95mwBsrtfD69FvWWSyNzroTFrIc0wx7wqRpIcKJB4/3DKh/VqVxp129Dx8uWNfntm8r0VPY8uJoH52eTaNbrNhPNZh6cn82eB1dHDVYjbTucSFnPbMcSvr1xH6W5j2KxJAJgsSRSmvso3964L2qwGmnb0dissKpaoqwkEGZqcEcJ1A1LMFc/QHHnjoaqaSQm6LXHHxxVef+wyqenVAaHQjY5DTILksaP8RMyhTOsZp4TGUDp5pKx0WCdI5BCULrDjKEI40YLfR6AFOyBzy6i83t46e3/iG32l+IUfb99CgP2EjZtfI4X/+/AHahvv8SLX9/KmgzjSoIwu8URqGZhtwH4GI77IDUZmeKF6/nu1u2Uy4DaQXNztBFHDhItAAruWI/d57vRE8IOHKNB3UxpPUSrGzAVsHLDVpYFB6O563mqaPS2VQr23KC2sAJBnashtgMmADL2dALBpRP6T4QdYEDdJepbxrOcuktc7YesTEOmtbKa+bRxdSbiVJyBf0dhnH+dF4IyrwB7b3Yg56wXWdVZ5GyTxocfq7Rc1sjPlchfMJ53u3NHw++TuHJVI2MuLKmQsCfDpVaN5kvaWDZvuqypk9em/l1l6ViAapRoNvN3laXGxSEibdvIZNLISJ38nsraqn8aC1CNLJZE1lb9k3FxiEjbngrPCBz9xM/HJ/TBUksqJFKS9e9rSAG/X+JUo0bvLY3yUhMLiyUGB6H+lMrAYDxfVgX2QDZXGYl2jJ8+R04Vj214jm8sSAG89HQc4pSxk0GKzQKAokQo8QrRgCtwbLQnz/BFdYKMvjcOVj7xPdblZIPSQU9fN4pmRU6vZctjz7It6rlEEGaPOALVKMLUQY6+XgyXEbNVsGlC3x/zzOrNlNutgELHhX3svWFc0UjGOvpXzUBGJn7dvFU/XmD/rS0vsOvrz7Jzyw/56frN5KsduDwACkq0Gaoqq5lvU7jRHmMGOz0FGQV3H2MBYc/NMKNIATjA3jBZ2r03O0DODikfWJdbAK4GZqba7gBX+0HOeXrymtpgdZfoCZvlFe5FqiqRnSmxpEIiK1PPqp6/OB6ADnvAZoP7qiSK8yXmZUvct9REYZ5ER6fGrb54gh/GHosazursyKmnaO2Rtm0koZFmn/zKrnBe5H/50dojbXsqNAkWFpsoL5WQEyU+P6vSfVP/Dka/s6RkWLlcr08tyJWoWaYfcNuuxX9hMbnN7JxwfghXyz5KprhmYt9dG7fz0IJsLIDiOsI7ddGPYrI0Ov925EFOXyhbNlmWDk4d/REv/O5VXv7Dbl74X/9Bfb8XzE5qarZSbFxHEGapOAJVN4oXwILFMH0JAJqC4vXiC35FCRxD+gZeymAHV68f5J33fsLPPo2lFqkDt4egTGIMKhyBgnoXrnDZxni1H+DlI/to7BvARwqOdCdZyRZcNw7y1sG6wLywCkqUIHxdbgFyzPu4mZ0lTvC00XQeqMyOPmggnLpL9ASXD1BNhYPYg+UY7N3/A+r7J16shB84pX+/M56pEO4Kk0kjKwPmZUssqzRRlB8agBbmSqxfYyI1ZTzLKgHZmWA2a9yOeyS5MBUJNsjJkshzSqxcrg9+a2nT8ATFaPOyTVj0tB4A9iTIcEC/W691nZ4OlMB8qBZruGp9H17j+WHycl+df+L5xDfSTU/PGY6d3M3PDhyMPGAroHtEvwiQ5ZgKw/SyuEBy3D04c8fJUF46Lv4nb4WUn7Wx94MjdKiAvYLamGexEYR7WxyB6gl67gBYcTjCVIw3vclLb+3i+aDXuz0Rrvo9Tbxr6P/8W7t44Xev8vMPDoWdpiS8BjoG9aNqrMGMwzFXr/vxDMxQljCM9jre+MOLPP/rwGCh//UiL39wiFM4SbcBXiVQfjC5bFmeZB/DZQ/Wk9V/mOfCzk07FR24PTLzcwOfZe16igkEvzEJt28Ts+p7948OojrM6A22rJJXwswqoN9Wi/2kIdwzJMjMkDCb9CmpRqlhYtEEm17HqozEMzwHvP1Bb2RwvNs4Z12oaO2Rtm2kIXHbHZhwOYwrnZF/pdHaI217uqxWyMiUGB7WGB7Wa1MBEq2GL0zS/4+manHcxeqmbVA/xjvs1YG6/WAH+Znx/HAl0jBWhdaGieeT53+7m5cP7mF/uKckTuKoK3DENdxZmpQ9P1DGMHo3awa1B2YrwMXNpjDnRHc3wz4AGTnN2CgIs1McgapCQ+AHbM+qje0H/AU51q0fwOS5q3gsahqxgE05etDj7qmLM6ibhnKnflAeuRW1qH9yk4ysD54seqwOd6oaaHIpyI5q1gHbMp1TrJENv28TH4ww6gAvj/Zr6QAmGTwV60lD+ML5/XDqnErDGXXCgChNBVUFSdKnpqo/pVLfoOL1hQY/yrD+wAB77HfXw/L2T15A/4vzlxgenSfLYNjv5xfnI/8iI23bSFUlevvnGBeP+fjMv+HzDRsXA+DzDfPxmX8zLg4RadvRDA7BkWMq1zomXjFoPg0JCUnSSwEkYNBQDqtpoPr1iwvJPHEbsTra2YEPIK2CDfdSNrC5Rc9S2gpYsjz6BUH5fVX6I1yVSzTEfEEfI7cLtxfASmKk58QKwpdIHIEqtB49RKtHv2W7YeOqMFfBfxmuTw/RrADWElavibxf5bVbKU8ODNRqijajwHSs4pknA5nBCUFzNtucepDsunkk6Okqd4N+y3zCwKgxgblTw9R7HW1vC8wesJn81CnUyMar7jCtnkmyp7GOwBW+cGYzJCSAq0/DHTSQWdOgo0tDkjTSU/WMqSMNBgY1XEGZJ02D650aFitkOOLLqHp6Jn/U6fm+frZ/dJyPbnSPBazDfj8f3ehm+0fHOd8XeTRmpG2Hc71n8lkEul1n+fV7W7nU/v5YwOrzDXOp/X1+/d5Wul2R5/SLtO1oEmx69rSzS8MbdIt/eESjqxfmJEnIiZCcBPYUiY4uLeQhAO5Bjd4+lZQUsAZmc5iWM/v4vN8LJifLV26m3Nj+l+I+yLEOFyCTX/Y06yYcx4PkbmbTAkdgoNa71Bvb43aYq24v4MCZF2b+2PkF+h06XLhimOJLEGaDuAJVaGDv2cATp3Ke5PuTTY2R4eShtc+yISv61ejMaOJXjQ24/YH92ryZmgn7lcKaB5/jOyVO/RGql2MZqDUdZ+hWvHpmMCRollm29mmWp1rB28Kpzyfe0DfqVpQpzLdq1MBr1zogdRXPhJvZoHY9xZMNtjrfwA2PzPylq8garXmdKbXP6oPmwu1TgKIE3+KrxiEblwn3msJciURZoqFRpfWqRme3xskzKh2dGsVFZlIDJ3vnPAlZljhzXqPlskpnt8Znp1VudGkU5JlInn6iEIA7HTeJNAv9+b5+/rHuM2r2vcuSvX+kZt+7/GPdZ1GDVLTAtqfgckc6Hl/4WQYIBKu/O/w3vPybUl76dS4v/6aU3x3+m6hBqsdn5nJHrAX5E1mtUFwgMTCof/YdnXD1usqnDSpeL1SUgMWivwpzQVE0Pm1QuXpdpa1d47PTGgkJEoV58c6F283ek3WBgafr+c43d7CpMMw5w55Nzcod7CoMcwF7l9R/eJDGO15IqGDTpn9gW0mKsQvOiifZNfr41/66mAZqTcc7rfo5177gab67OOjzsZfwrZUrcQC+mw18ML1baIJwzzEv21D8L8aFU6H0NHBmOJmFWXmkJedRvnAjD1YsY3nRKtaUfY0N1ZvZVLGWEkcKVgmUvhMcOXuIK6OZlrzVPOJIAX8vFxsbuGrYfkSZ1TzozMSKmxunjxMSP908S+NIGpXzFpCSVMCikodYW1bNipJVrFn8KJtWbKQyLRmTqtDR/F/8j3gmjQ78Db7Bsxxu7TQ0+mhWZJbmFZCWsoi1FctYWrSKdcu3sDIzBZM6QOvpn/O/r0cfhXA1oYi1znn4vB9ycvQcmbeaRxwyfTeClk2m/ThphU+wuGgdRcHbqNzBi0uKsPYf5sU/XQTmsWJJFQ5fG39qvgh0UlSykfwkK8rN99kT+BvzSx5iYbIy8bMfFcu+tY9QVFlNcd5i0ozbqX2K/57p5tTv9gUtX8GD9xXg6drDMZExuGdZLBLZGRLKsMb1GxrdN8FkgopSiQXzJaRAQDPab3hE43qn3s9sgsqFEgtywgc+jc0RIk8Dn/sOVvscEjKnH8iF426+Qv+ZyKUBRgNDiaTbh5mXMbMRxJlL8/isaYFx8aQWl0/MTyTPkUhPNdHr0ujo1HD1aaSl6JP4p9jHv4TkJIm56RK3ByQ6OsF1W2NuuomqSr00IG4DFznW56Eos4iM5Gzy8x/ikcoalhbVsKZsNeuW/zf+atE6lmRlIpvAN9jCJ+f30Xxr9PhZxpplBSThi3zcCSvSup2cbu9h3oJFZM2ZizNvPQ9W1rC8qIY1ZV9jY81W1uYuQDbpT5d688AfYxqoFdboeW1k9PhrcPMinvRFlKRnkjX/IR5cuIzlJbVsXLaeXNkMI038f4f20RwYnCYIs13cgSqAcquJY42fcNssk5yUQkrCXOxzUkiSk0mQVHyeXtq7/szHx/ew5+Tp8SCVuxioAsqtc3x85TQjZgdpdgfJCSn6ftkSUL0uOjsO8V7dr9h3Kdq8UFFEDFT1g2+zWyUjLZs0Wf9sZJMXZeAcx+v/i99cDFMUH85NKKusZr6td/x9YgkGg5xvfp8/JS/jvy/5v3hk2Ub95cykr+UHgSCVMIEqnJ+7mEccVq41vTn2PjMSqNLJycb3Gcl5ggfXPjG+T8s28oi5gef+9x5D8LqJLQ435w9M8p7CPcNigexMieICE8UF+kjy5CS9zjGWfhM6BkwlUAXwj3iRnVmYEyabsHdqvANDuOrP4XNPfe5Sj9dMkbOPBGv42tipct9J4MjnhdweDJN5nES4QBUJZBlynRLFBfp3MS9bwhbmI0tMlFgwL7Sf1TLJlzUdA22cbKrjst9EupyCLDtIm5NCkpyCbFJRff303mzgxOn/yWt1dUFBKlGCzWiirOvp5vTofiU5SEtMGzvPWTUFt6uBus9/yesnzhF5GF4U0QJVfLS31dHsSSY3PZO0OWn6PqgKrt4jvPfB23w8s9dCgvAXJW3/6SNTO+oLf1HrNv6YTY423ol7NP/stG3LKyxW3owwGEv4svvt/qkHealLF5JRu2zS4DdmGvTWnaL/dLgAIjarFrXzUE0rVvO0h8gD4PWb+LC+mBPnpja7+19vmbz8QBAE4V4T5tJauJcdfW8frQQ9VvSrpHIHi1M7aBRBqjBF/acv0lffGLFeNSoN+uob4wpSAU6cy+XY6Xzj4ik7djp/ykGqIAjCbCMC1VmngddON2EvMc4v+mVXzTNLK3C3vMpeY5MgxMBVf57eulN4B2KfVmqUd2CI3rpTuOpnpuDkyOeFvPdJKbemMa3Urf45vPdJKUc+LzQ2CYIgfOmIW/+CIMwq07n1HyxxfiYp5QXYywujlwJo+sCpgeY2hm8YixbjVzCvj6WlXVQU9mCzRP67PD4zTVeyOH0ph7bO6Q8OE7f+BUGYTUSgKgjCrBJvoDoqcX4mc5yZ2LLmYk1NwpqqP13A2z+It38IT88t7nTcvCsBqlHBvD7ycvqZN9dNtmMQOUGf0FQZsdLtSqbzlp1rXalxBaijRKAqCMJsIgJVQRBmlZkKVL+qRKAqCMJsImpUBUEQBEEQhHuSCFQFQRAEQRCEe5IIVAVBEARBEIR7kghUBUEQBEEQhHuSCFQFQRAEQRCEe5IIVAVBEARBEIR7kghUBUEQBEEQhHuSCFQFQfjKM5k0zCYVs0nFZPrLTy1tslkw2SzGxYIgCF85YsJ/QRBmlZma8H9BVj9Fzj4WZPWTkXqHNLsCwG23TG//HK73pHK5I53rPanGVWdc8FOyEjPTMMkJAKjKCMM3b8/oU7LEhP+CIMwmIlAVBGFWiTdQLZjXx5LibhYVd2OzRN6Wx2fmXGs2Z1uzZ+TxpUZybjb20jzmFDkxJ9iMzSH8Ix7uXO7AfekaSnu3sTlmIlAVBGE2MS/bUPwvxoWCIAj3qsbm6V9br1rUzqOrWsifdxtzDLf4zSaNeRluipx9aJpEx82Zy66mVi3Ecf8S5AVZmCzRg0eTxUxCZjqJ8zIBiZHuW8YuMVlcLiq+BEGYPWYuo2rPZt3izaxcUIAjUcYyeiz0e1EGW2hsOcAHjd24DKtR+yy7S5zGpeNULz6vi6tXD/HO8QY6gtsqd/BiTQUyHdTveZW9wW2j7CU8tuIRlmXn40iwji32eVy4eho4cvog9b0ha8TEWbGV/2txNdmjf6vqRRnu4ELjHt5qGjB2h6B1nHNkfYFfwd3XwAdH93HMbewtCEI4082oPrD8CmuWXsVqVo1NMfH6TRw7nc+RzwuNTVPmqKkkvWYxSMaWGGnQV9+Iq/68sSWq2ZFRTaGm+jFWFlbglFMYi+MDx9nW1kN80NAUej4AYDM7t68ny7g4iM87gOtWA8dOHuBYyLF/dF2F1vof8VrYj1Zm2fLN1BZV4JyTEnSeU3APXOLs+d+zvyX88T8SR+HDbFlaS4l9fJu+kW5aWvexv75l4nkTmWU1T/JwcQVZo+c1j4uO9gP8+uMzYfoLwuw1IxlVZ9V2/v6BrSzNzCTJakX1dNPr7mdoWMGUkIIsZ+KcX8t9eWa6LrYQcmzIW80jjhQAfF4vqqqGvkxWLNZkHHOrWLpApf3SZfpG182s5kFnJlbc3Dh9HONxxVH2JN9/aAuV6Q5kixnlTjd9g/0M+UFOSMOeWsSiktUstF6lvvO2Ye3Jldc+y/+zZBFpViuq0k3vYD8j5jRS5DRynLUsTW7hWHvo9oLX8d3ppndwCFNiGklJeZQX5TFytYGrnpBVBEEIYzoZ1VWL2tlQ0xpTFnUyZpNGwbzbDHsscWVWU6sWMnd11fSDVAAJ5PlZqCPeKWdW7/WMqqPwcf728e9y//wFpNkSUH0uegdcDA0rqBaZpMS5ZGVXs2JhJt72s4bjZhlrlhWQhJ4k8fkN5xPMWCwJJCUXUF5QRoLrUy6OJQlG1/XRd+NDThrLge1VfGfTP7AhL480WwImr4uewH6ZEtJImpNNbt567p/voaelLfQ8F4Fj8Q6+v3o18xITMHm66XH3M6RZsctpZGTWsDSrn8bLHegV1Lry2n/kW2Wl2C1mlMEO+hRISEojzbGM+3L6OdMa2l8QZrO4M6qOxTv4/n0VyIC75xDv1k/MUDornuTb963CYQblxpu88KeG8cbRjKqniXd+8zpHg1cE/cpx7fd4stiJBYWrn/+In58JNEXIqEbdL3s261Zs57G8bCx46Wn5BS/XtQV1mMT8rex6pBYHA7R+/j947czo1XPQfvrbOPp//oN3Rg+Aldt5saYK2biOfRXPPPEkxQngvvaf/OtHLaPvIgiznscDFy9rdHaraJpEchKUl5hwpOmBls+v8flZjb4I14ilRRKFeaER3VQzqgXz+nii9gJzU+8Ym6blVv8c/lhXNq2aVTk3m8z1K7CmJBmbpsU7MMTNw59NqWZ1sozq7X6NCy0a/W6QJI3sTImyYhMJ+rgunQZdPRoXWlVGPNLk/aYrdzM7H1hPlhl87hO8e+wAR7tCQy5H4cM8tepx8hPA13eYX/7hAK1jrdGzoo7CrXy3tlZ/j559PH+wLtASYd2gYzVKC8ca3jRkTmWKF29m2zL9POfrP8wb+w/QHNQjvFr+/ltbybd66Wl9nV99PJ49dVbt4G+XVyDjornuJ/xq9PSQ+yS7HlqFAxfNn7zKry7on8/43xVm/wVhFovz0rqabUv0YFDpepufH5wYpAJ0NL3Nf51qQgHk+Q/zrfnGHpEonPr4TRrdADLOBeuNHcKoZtviKPvl7uboR7t5o6UDH1ayirayLYb9Kl5YgQPA9Sl7x4JUxvazeRAwOykuH10us6U4EDC3vx0U2ALuE+y9rAfHdnsF+eMtgjCr+Xxwpkml+6ZKYYGJRWUmJAlOnvHT3atfG5tMEhlzJZzzjC9ITNCQJI3kGYjnlpZ2zViQCjA39Q5LS7uMi2NiL82bsSAVwJqShL00z7h4yvoHND5v1PCrsKjMRFGBiV4X1J9WGR4Zz2W0d8KZJg2bTQrp99kZlZGRkE1OQzbb7gsEkP2HeWPf2xOCVADXlUP8vK4OlwqW9FU8VmXsEZnryj5+f00P7C3pVTxm7BDGuvsf04PUkSbeOfifYW7vK7Q2vs1LRw7T4wdLai2barMNfcJYXoXTCihNHAkKUgE6zrzO8ZtewIEzr2Rs+brKKhyA0nVwLEgl5O+SKS5+eGy5IMx2cQWqjpW1FNsAbwvHj52IWBfjajzABbcX5Y4Py1xjazTdXB/Sf5AWm93YOIFjZa1+UPG2cOS9yPvVXLdPDy5NTsorKozNE5TKFnwquPoOh9luN4ofwIp1bABvLflpVqCD5vqmkN4Ark//g+f2/IDn/nCAq8ZGQZilOm+Cq0+/zVySrwefK5aaSEmWaL+h4feDSYLCXIlFZaGv3PkSPp9ESZGZTEc898f1bGpFYY9xcdwqCnsomDdWhBSTxPmZzCmKUI8/TXOKnCTOzzQujpmqQWsbWC0S1VUmnPOgOF+ierGJYUWjK/Dx+f3QfVMl1a5/l6P9qiolhoagZ+IBcWpKHqM81Qq4aD4ZJRvZvo9PexV8IwP45hQYW6Nq7XXpt8atMlHPKPbHWZ6TAihcPf86RyONJ2g/wDvXXYCVLOdj1BjbDRbb7eAHpb+ZemMjcMfvA8Bi1cvjoISSVBnw0tMTdGcyoLWlTT8v2UtjCsB1m9m5/cc8Uxm4S7n9FXaHfT3LNuOqEFg/tO+LG6tDeqzb+GN2b3+FnbUhi0PVPhu5T4R9M77f6D4Fb2vbllfYPfp3GgW2Pdp/3cYfs3vLZmMv4S8kjkBVZsN8/QCh3DrBu5F+vAB089a+Xbyw91XeOGtsm1lrsvWTgXKrgQ+NjRO0UXdLP8LaM1eyxths8O7BF3n+1z/gpY8nXulDBXYbgBfvaN1UhROHCVC6uRT1MxKEL4c7QxqpdnCkjQeaZgtYrRKaBhrhK468Xmi6qJFsh9x5eolAPPJy+iNOQZXtWMI31/+SnU9dYte329n51CW+uf6XZDuWGLuGsFn85OX0GxdHNMeZGXEKqsr0VP69dgX1Wx/j7LYnqN/6GP9eu4LK9Mj1sOYEG3Oc0w9UfT7w+iBzLiQG3b632sBs1r8v0L8zTYPEBAlL0LMIbFYwmzV83vDfaazWFZfqQWP/Gd5pN7ZO9OHBH/H8b3fz2icxlGzFo7wEpwnwtHF2tOwsguaLl/RgUS6gOkruo/Hobp7/Xz/ghfdOGJsAGUfgoQ8+72gGtwKHDOCiL1yl2A0XigpY7TiiRuC6bVvWY+/aF1Iq0NPyAz2BEvSq73dSYwhW9QB0PYT0P4w752l2P7WDdUF9QcGeN1kgupmdkQZVB5m4b4H3iymwlCleatyviY6+t49Wef0k+yp80eIIVKsCPxgvLtfEK7uZVRG4igT3wMSsZKhqnMn6KEj3YLgf/0StPd361XXCXGL7qYRXvnYz5TLg76B1NB2QnIIM4BngVEY13/r6C/z024ErwW//mF0bH2ZZjAcUQZgtykokVt1nwhoYkOzzQVu7xi2XRuZcCYs5fAR6vVNjYFCjJD80GJqueXMnvzrMdizh2xv3UZr7KBZLIgAWSyKluY/y7Y37ogarkbYdji1r8ltJlemp7HlwNQ/OzybRrNeQJprNPDg/mz0Pro4arEbadjQ2K6yqligrCXwnGtxRNC62aiDBXIe+2GKScKRBT6/GjS7QAhcWV69rmEzSWL/pkVmQNH6Mjzc5G03NPKd+XFa6uWRsNFjnCNzCV7rDjKEI40YLfR6AFOxxfCaOxU+z3KFnmDuuGaNSH96w//xcDPvQ3zvX2BZG7bPUpHbQ+F70c/je/YfpwUn+aPBWuYMNOTI9LT/g5dEyXwAO8HJ9E4qtgg0hmU4XbgWyMicGlOs2rsLeP90BYIH3S40xsJywX+E08Nq1DrLyoge1wt0XR6CaFcge+hgeMrbNFJnihev57tbtegCodtDcbPzBGjlItAAouGNNeJzvRv/NO3CEuy0QA8fiHTxVnK3fkrlyYHwglS1wpraWsvOxp1mWakVxd9DT70JBxpHzON96YgfrRLAqfEmdbdL48GOVlssa+bkS+QvCB6nKMFy7rpGVKZEelImNR7Zj0LhozNqqfxoLUI0slkTWVv2TcXGISNsOJzEzzbhozN9Vlo4FqEaJZjN/V1lqXBwi0ranwjMCRz/x8/EJjVt9KksqJFKSA9+FBEUFJkqLJc5dUPnTYZWP6lRu9cF9VUH9pqUCeyCbq4xEO8ZPnyOnisc2PMc3FqTox+qOQ5wydjJICWQ1FSXWEpIGXIGIy54cLSCaRO5mvrtsdJzFIfaPfiQVDj3r7Bkg9uFzk9uW6YT+S+GndpzE6N+0bWEFsqeJT0OC1IDzDTS2vMkLhgD46s0OSC01lBBUU+GAGzeNdb9TcP51GvuJHlh6mmjtBzln/SRlDEHqLtFjq2BlLMGvcFfFEahGMaV6Ev0qZ9OEvj/mmdWbKbdbAYWOC/vYe8O4opGMdfSvmt50iVPmWPw0fz92UPk9vwo3e8AcJ1m+Jt49+CP+df+rvLz/J7yw/21aR4CECh5bK34NwpePqkpkZ0osqZDIytSzqucv6reQjW7e0vB4NXLnSUjxxDwBZpOGnOA1Lh5TOC/iKS1qe6RtG5lslrHHooazOjvDuChEtPZI254KTYKFxSbKSyXkRInPz6p03xy798/Vdj3T6kiHJRUSxYUSqgpnmzXuzNx4tTAm1kGOvcLe8pUprpnYd9fG7Ty0IBsLoLiO8E5d9HBPlkbn3479+45L7uN8f21g5oP+w/wmyjiL6dtMfir03DxgbAivMhs74B5sAKpxyKC4GibJMjewty5MlrbuEj3GhFBlNfNpo2lqJd8TdCsK2FKINoStKZAZrgn77ybYAa72h88AC1+sOAJVN4oXwIIl3DFSU1C8XnzBryiBY0jfwEsZ7ODq9YO8895P+NmnYQLACTpwewBk7LHOHjN6lYoL1xSn9Ci/73t8/75q7GZQuvbxX5MeVAZo/ux1PgyefcB9gtc+O4N7CqNPBWE2MZk0sjJgXrbEskoTRfkSHZ0at/pCI1WfD250g91uIsU+A1GqMC0JNsjJkshzSqxcrg9+a2nT8Hhh8A5cuabhnCdxX5WJedkSxfkSq1fowerFyypqmAuQ2HSgBOr6LdZwoYYPr/H8MHnpsc4/8XziG+mmp+cMx07u5mcHDkYesBXQPaKnR2U51sKwKhyBRL0e1MXOUfYkux54GKcNfP11vP2BYVBZk0u/+xdDQBZVbSlZKLhjChCreWapPhXk1ToAZ+CO6lQd4Gq/zPzc8WTVutwCmDTgjd3RwfBn3okO8GmXAjGUCnQrCsjZkbO0wl0XR6B6gp47AFYcjjAV401v8tJbu3g+6PVuT4QKFE8T7xr6P//WLl743av8/INDYacpCa+BjkH9yjfW2y4Ox9yxOtLo19ejZNasf47vLC5Bxou7/W1+9l7dxCel9A/odTeeDlrC3dFqmcLoU0GYzSTIzJAwm8BtuGs+dAcG3SrZGcxIbSqAX5VQRsafRmd0pTPyqTFae6RtG6keH6oy+fxNx7uN8+eFitYeadvTZbVCRqbE8LDG8LCGe1DD5wVnTmjGW06UyJgLA24N37QfWtJN22BgPlB7tT4FYIiD/Mx4frgy4WgbRKG1YeL55Pnf7ublg3vYH+4piZM46gqcFWINWOz5gTKGWINAXfl93+PvVwbmG3cd4o39+zg1oQ5VwRsx4TNa+jaAO8qAtHXJjkmTM1klxmz00xTTxDuTPQFyCroVBdlRHfgsN7MyB260Ty2gj9fR9/bR6oGskslmMtAdHXTNzEWBEJc4AlWFhsAP2J5VG9sP+AtyrFs/gMlzV/FY1OivgE05+pWyu6cuxqs6mXWPPMeW/GwsKHQ0/YJ//XCSTKorEKhaZEYnGBGELzO/H06dU2k4o+I3nFQ1FVSVCbf2+/o1JBPMjfUuSIy6XcnGRWM+PvNv+HzDxsUA+HzDfHzm34yLQ0TadjjDNyd/ssEvzl9i2B8+RTjs9/OL85GH/ETadjSDQ3DkmMq1jonpUM2nISEhGb+wu+BoZwc+gLQKNsQwp/UXprmFDhWwFbBkuT7gK5Ly+6r0R7gql2gIEwSGU177LN9ZXILdFEh6TJrtbcM9gj6eYrGxDSjOJsWkP071+oQgN3YTR9b/gOdCHsgzeudy6o62t6HYCqioDGR1PW00xfg5RaIH3rFq4LXTTSgxlQBMf+yKMDPiCFSh9eghWj2jo+hWhbkK/stwfXqIZgWwlrB6TeT9Kq/dSnlyYKBWU7QZBdCD1I3PsWl+CqgDtH6+O3JJwo0GehR9ntbi+8Ic5KoW6Ps3pWyuINy7zGZISABXn4Y7aHyEpkFHlz6Rf3pqUOCjgXtQQ07U6yJnUuetya9Uu11n+fV7W7nU/v5YwOrzDXOp/X1+/d5Wul2R59GLtO1wPD2TP+r0fF8/2z86zkc3uscC1mG/n49udLP9o+Oc74s8MjTStqNJsOnZ084uDW9QGebwiEZXL8xJkpATwZ4sYbHqMzME1xgrwxq9tyApScIce5J5ojP7+LzfCyYny1duZuyZKX9p7oMc63ABMvllT0ce+Jq7mU0LHIGBWu+GnRvVqLz2Wb5T4tSfkNj6Oj+fLOkBQAst/Qogk5U98U5msdOp35kbbIsx6TJd+oCx8czoRNu2vBJmiip9oNUNj377f1umM0Kd69Rky/LUBoadf50PuhRIXcUzES+Qw2edhS9OXIEqNLD3bOCJUzlP8v2vb2VNuJr/DCcPrX2WDVlhArW7oolfNTbg9gf2a/NmaibsVwprHnxu/ABxOZaBWvrAqQ05KYAepIY8aSqsFo6060+/cpbtYEvwlCEZtTxTWYIFcHUempEfqyDcCwpzJRJliYZGldarGp3dGifPqHR0ahQXmUkNOtn7VA1lWJ+f0zxDt/1HXetKxeMLP5qeQLD6u8N/w8u/KeWlX+fy8m9K+d3hv4kapHp8Zq51RZ4yyuhOx038I5Onoc739fOPdZ9Rs+9dluz9IzX73uUf6z6LGqT6Rzzc6TA+mD52VisUF0gMDGp8dlqloxOuXlf5tEHF64WKEr0cI3kO5DnhRldov/rPVXw+KCnQyzqmr5u9J+sCT3Zaz3e+uYNNhWHOGfZsalbuYFdhrDWj8av/8CCNd7yQUMGmTf/AtpKJ98ecFU+ya/Txr/11MQ3UIncrW4oC56CWX/Cy4elU4RxtbcIN2Bc8yTOLxz8fR+FWvpGXrZc9tB4KWSccvaZz+tnCvRf1KajCjoqv3MHi1MkGWzXQ5FKQHVtZnKrMzG3/wPvFPDAsQC8BkCku0QdDG61Ldogk0j3AvGxD8b8YF06F0tPAmeFkFmblkZacR/nCjTxYsYzlRatYU/Y1NlRvZlPFWkocKVglUPpOcOTsIa6Mxnd5q3nEkQL+Xi42Nkzt6UyZ1TzozMSKmxunjxNy0XPzLI0jaVTOW0BKUgGLSh5ibVk1K0pWsWbxo2xasZHKtGRMqkJH83/xP2KaNDqbb6zdQm4CQAIpmV9jw5KHw74WJx3ixHV9rb7rncjOCvLt2eQWbmRtyWJWlD3EpkXVZFj1kZ3/+91PiVyFJgizh8UikZ0hoQxrXL+h0X0TTCaoKJVYMD+0xtHnlWhrV0lKksjJjJ5RbWyeeIt6MrcHZeamKuTMndpUUtE0tuZw4lwsE1WO87nvYEuzk5AZMX0zZUOXrtF/JnJpQLDF5ROjyeQ5EumpJnpdGh2dGq4+jbQUE1WVQYPbJEhPk0ieA13dGp09etZ8Qr94DFzkWJ+HoswiMpKzyc9/iEcqa1haVMOastWsW/7f+KtF61iSlYlsAt9gC5+c30fzLf0JTlDGmmUFJOGj78aHnJxS/B5p3U5Ot/cwb8EisubMxZm3ngcra1heVMOasq+xsWYra3MXIJtA6T3Emwf+OMmt+1AP1T7NkmQrYCbBXj3hPDL6qsns4eMrgXDJdRYcNRSlppEx/6HA+eRRNpSVYjcFZp75JIY5SdszWLqslATlfY6N1rMGzqkeV9CyydxsQM1Zx/K8J1iaHNx/Mzv/qoY0TxPv7f8jV4H8kodYmKyMnaev5izjkUwHVk8Lxz4KnPejvfek7YH36z/Mi3+6GFimf5cE9V1UvhGn1RhndHJSzWOtMxMrMGTY9solT+D0neP15tHtCn8JcQeqAMqtJo41fsJts0xyUgopCXOxz0khSU4mQVLxeXpp7/ozHx/fw56Tp8eDVO5ioAoot87x8ZXTjJgdpNkdJCek6PtlS0D1uujsOMR7db9i36VY67seYuPKAkaf1G0ymyd9Dd8O/gd/m4uXPuWmLYPsFAdpc9JISpQxqQP0XP8je989FNNBTRBmE4sFsjMligtMFBfoI8mTk6QJD5syWyA/10R2DEEqUwxUAUY8FhZkDTAncWamF7rVP4c/nyrg9mC4HExkqs9P4rzIT6iaCu/AEH0NTfgGYp/MOlygigSyDLlOieIC/Tubly1hM+ymBCQnSRTk6t/pZP3iMtDGyaY6LvtNpMspyLKDtDkpJMkpyCYV1ddP780GTpz+n7xWVxcUpBIl2Iwmyrqebk6P7leSg7TEtLHznFVTcLsaqPv8l7x+4lyMSYcqHl2xAkfgLoLxHBL8QjnH4dbOsTWvtn3GrZDzSQImj4uOtrf5r48aomZldRdxFm5kYVICfxoNxCYNBsO72vohf/LmsXHJ0/zVso08smwjjywrwNT1Jj8MBKmECVT1ILkA08332TP6d0V770B7mmP0fQzv98cjQZ1jDVT1gDuzcCPORGOgupm/WlXA0PX/CL8/whdG2v7TR6Z21BcEQfgL+u3+8IOOIlm1qJ2N98eedYzkvU9Kp5xNDZZatZCMtcvifjwsGvR+fIr+M1PL9vz1lslLIYSvmNpn2V0C9TMwmv9Lp/ZZducN8E7IIDLhLyHMpbUgCMKXy4lzuRxpKMTrn/4hz+s3caShMK4gFaD/zEX66hv1Z5BOlwZ99Y1TDlIFIUTdq9T3O1kc7iE8X2nVPJPnpOeaCFLvBdM/aguCIMwiRz4v5MP6Ytx3wj2hJDL3nQQ+rC/myOeFxqZpcdWfp/fjU3incMt+lHdgiN6PT+GqNxY7CcLU7d1/GHfOVp6Z5qCqL6N1G7dSrBzm5XCPhxW+cOLWvyAIs8p0bv0HK5jXx5LibhYVd2OzRN6Wx2fmXGs2Z1uzaeuc2UFQAHJuNvbSPOYUOaPWrfpHPNy53IH70jWU9umPQxa3/gVBmE1EoCoIwqwSb6A6akFWP0XOPhZk9ZOReoc0uz5O+rZbprd/Dtd7Urnckc71nqlNQzUdifMzmePMxJY1l8TMNEyynvVVlRGGb97G03OLOx03Gb5hHOEzdSJQFQRhNhGBqiAIs8pMBapfVSJQFQRhNhE1qoIgCIIgCMI9SQSqgiAIgiAIwj1JBKqCIAiCIAjCPUkEqoIgCIIgCMI9SQSqgiAIgiAIwj1JBKqCIAiCIAjCPUkEqoIgCIIgCMI9SQSqgiAI9xjJZEIyicOzIAiCmPBfEIRZZaYm/Ff9fjTVj+pX0VQVTVMBkCQ9SDSZTUgmMybz3Z8gX3ZmIc/PwJbpIGFuKqbEwJOphkcYudWP56YL5UYvSkePcdUpExP+C4Iwm4hAVRCEWSXeQFX1+1H9XvxePxDt8Cdhtpoxma13JWCVF2RhLysgqTgXkzXy9lWvn6HWdtwX2lCuTz9gFYGqIAizibi3JAjCV4bf68U3MoLf64shSAXQ8Ht9gXW8xsa4pFaVkrnuPuzlBVGDVACT1Yy9vIDMdfeRWlVqbBYEQfhSmrmMakIS+VllOO1pyFYLJimwXFXxeVz0uC5wuWcIxbDal0sZa5blk4SbG6eOc87YLAhC3KabUfV7PPi83hgD1HAkLFYrZpvN2DBljppK0lcuNi6ekr5PG3HVnzcujmp2ZFRTqKl+jJWFFTjlFCyju6x6UYY7aG09xAcNTXQY1oLN7Ny+nizj4iA+7wCuWw0cO3mAY73BLaPrKrTW/4jXwn60MsuWb6a2qALnnBQso6kev4J74BJnz/+e/S0DhnWicxQ+zJaltZTYx7fpG+mmpXUf++tbcBlXMChf+xzfLU6JsN+CMHuZl20o/hfjwqmyZy9lVX4F2UlzsJlNaP4h7oyM4PX5MFkSsFjnYLfnMT9FYvCWizvGDXxpZJCbk4YND+6u69w0NguCELfG5qkHmn6vN84gVaeqKpIkxVUGkFpVimPl4rgHSyVmz0X1+hjpjhbGhFpcHt/73m2Owsf528e/y/3zF5BmS0D1uegdcDE0rKBaZJIS55KVXc2KhZl4289y1RO8dhlrlhWQBOD34vOrqGrQCzMWSwJJyQWUF5SR4PqUi27juj76bnzISeMB3F7Fdzb9Axvy8kizJWDyuugJ7JcpIY2kOdnk5q3n/vkeelraCImBI3As3sH3V69mXmICJk83Pe5+hjQrdjmNjMwalmb103i5Y9Ikj2PxDnYsKsA62X4LwiwXd0ZVzqrm/vkZWADP0GUuXW/hhuEXZc9YxLL5ThJN4HOf5aPWztAOXxoioyoIozweuHhZo7NbRdMkkpOgvMSEIw0YveMC3LkDzS0at/r0fqkpEguLID1VCuk3aqoZVdXvxzcyMjZYKl6SZMKSkDCtYFVekEX2w6swJ8nGpmnxDyl0HzoxpZrVWDKqrj6Nk2dUli0ykZkR+iX03dZouqQxOASSBM55UFpkwmoJ6TY9uZvZ+cB6sszgc5/g3WMHONoVekJxFD7MU6seJz8BfH2H+eUfDtA61ho9K+oo3Mp3a2v19+jZx/MH6wItEda1r+KZJ56kOAFQWjjW8KYhcypTvHgz25atwmEGX/9h3th/gOagHuHV8vff2kq+1UtP6+v86uPx7Kmzagd/u7wCGRfNdT/hVy2GVYHy+77HtsoS7CYg3H4LwpdAnJfW81iUrQepvsFzfHppYpAK4O49x2ddvfgAi72IJXZjD0EQvkx8PjjTpNJ9U6WwwMSiMhOSBCfP+OnuHb82dg/Cic9VbvVpLHBKLKmQMJs1PjulhfSLh+r3zliQCqBpKqp/evWq9tL8GQtSAcxJMvbSfOPiuAyPaJy/pKFpE68SXH0an51WkSRYVGZigRM6OuH0ORWfP97vK5tt9wUCyP7DvLHv7QlBKoDryiF+XleHSwVL+ioeqzL2iMx1ZR+/v9YNgCW9iseMHcJYd/9jepA60sQ7B/8zzO19hdbGt3npyGF6/GBJrWVTbbahTxjLq3BaAaWJI0FBKkDHmdc5ftMLOHDmlQS1ABnVfOvrP+a7i0uwm7z4pnbtJgizSlwZVXnBKtZmpILq4sqFz2gZMfYIlsSSitVkSEO4bh3ntH6cIL/kIRYmQ19PK6SVkm4zgeZjuL+JP7fpmVc5rYjynDwcCTa99lVT8Xnd9Pac4mxv8JvOY8WSJaSbffR1fMhnhlsg+ntZ8A2e5aMWfdtj799RR7dcTUmafbxGyNNPb3cDZ28ZT0pWcpxLKHVkkBhITviUdlraVHIrREZVENo7oemCytJFEtmZesDj9ULDGRWzBZYvNmE2QVOLyo0ujZplJlLsej9Ng/MXNW4P6Mtt1tBtTyWjqvr9eIeH477lP5GENTFxSlnVhJy5zP/6+pgGTk2F6vVz4w+HGem6ZWwKK1JGVdPg3AWN7l4Vv09i+WJpLKPqV+FUo4rPC9VVJqyB76WrW+Nss8qSChM5WROD25iVbOefa6uw46Lxw5/wRruxQ6iHHv8xD6cOcLXtbV77pC2wNEJWNFjlDl6sqUCmg/o9r7IXJl/X/jjf3/IwTpPC1c9/xM/PhGxpgvL1P+S7+Q5QzrD37T3UGzsEWbzuOb6Vl4335tu88N4JYzPrNv6YTTkyStebvPBew9jybVteoSYV8LtoPvMfuIteoCY1yt88qc3s3L4Kd/2PeI3RzyWc4M8q2MS6YOP+jv4dPS0/4OXRBLZR7bPsLnFO3mfsO5vI+H7BRt97XLjPqZpnnnqaYuUwz+0/ENygq32W3SUOWut/hGth4LOPQOl6kw/Yyib5RPjtCVMSR0bVSlGy/m357nRECVIBhjjbdIiPzo8HqeNMpGaUkW71May4GfarKIoeSGbMX8H9BSVkJNow+YcYUtwMeVUstlRyFnyNNblR/sXESM6spdxhx+QbYkgZwqOiv0fu/Sx3BPe0kl9Sy5JMPUj1edx6jVJiLuWl89BnPxSEr7Y7QxqpdnCkjQcuZgtYrRKaBhoaPlW/fZyeaiI5ebyfJIEzR0K5ozHgji/A1NTIU1BVlxfx+5d3Mfjxb/DX/47Bj3/D71/eRXV5kbGrgRbYduyScrMjBqmV6an8e+0K6rc+xtltT1C/9TH+vXYFlemRj3Emq5mk3Biyd9Fo0HYdbvfD4oVmzObQz214GAYGICtTGgtSAeY6JJLmSPS6In7UUa0rLsUO0H+Gd6IEqQAfHvwRz/92d1CQepeUl+A0AZ42zkYJUgGaL17SM6NyAdUVxtZQjUd38/z/+kHYIBVkHDa9nsLnNWRwVYWe6wd56//8hF+dMWZ3p2bblvXYu/aFBG49LT/guT2hr/p+JzXbn2Vb0LrrNv6Y3dvXQ0j/w7hznmb3UztYF9QXFOx5r7CzNmRhwGZ2ljiNC8OauG+B99uy2dCzmmeeeoVNOS7qg/u3uCiueYUXN1Yb+sdm7/7g936TVg/Qfzhkn154r4Gj7+2jVV4/yd8rTEUcgWoWshVAZTgQVE6fCZM0RFfbYf584Th/bjzMZ92AvYyFGQ4sqAy5PuPjxjqOXTjOsfMf8nmPCx8mkuZWGQLJ6bCQaFPp6zzCB+frOHahjiNnTtA1ogIyaY55410zl1CUbANNoaf9Iz46f5xjzX/mg4tN9GFjJsq0BGG2KyuRWHXfeNbN54O2do1bLo3MuRIWc1AAawpbioqmSbgHjUunRvVPfsu/uryIo6//hK8/UIOcoI/klxNsfP2BGo6+/pOowWqkbYeTkJ1hXDSmMj2VPQ+u5sH52SQGsrSJZjMPzs9mz4OrowarkbYdq363xtV2ldIikOWJEacyrOH1QfKc0OUWCyTJEncU/eJjemQWBEoi3ANNUUe5x6tmnlPPzCndXDI2GqxzBC4ClG6OGhvDudFCnwcgBXsc5ybH4qdZ7rACLjquhRao7v3Dj3j5g0OcGhsINk21z1KT2kHjJNnIYHv3H6YHJ/mjgVflDjaEzZIe4OX6JhRbBRtCgkEXbgWyMo0BJazbuAp7/+QDxiILvF9qaFC4bcvTFNPEO8YscN2rPFffBDlP3+UgsoHXrnWQlWcM2IWpiiNQTcZmBlDxhoy6nCalk7P9oYtyMrJIMgHD7TRfc4X8I+698RltQz79qnPuDNRoDXdyrjs4LdzP2cEhACyWlLGlJWkOfeCYu4nTwSUBSjuf3XQxtVOXIHz5nW3S+PBjlZbLGvm5EvkL9LDUbJJIsIGrX8+sjtGg16XFk5wbo6mT/yL/eceTYwGqkZxg4593PGlcHCLSto0kkwlb+uTF+X9XWToWoBolms38XWXkeVMjbTsWHq9+yz8nSyLbMHhqlKbqFxW2hNB2SQKTGYaHNVRf+HWjq8AeuB2ljIQZNTRDHDlVPLbhOb6xIAXw0tNxiFPGTgYpgaymosQ6YK0BV+BkZU+eXtaO3M18d5l+m1vpOsT+u/SRbMt0Qv+lMLfzJzf6N21bWIHsaeLTcLfpzzfQ2DLxdvzVmx2QWhqSlYVqKhxw42YcmeHzr9PYz3hQWLmDxanQc+318BcXxv53S90lemwVrLyrAfGXXxyBahSZ1Ty47FEeCfN6sCQoQxng8d42LmKuTb/CHr5zOewV9pX+2/gAU0IaucbGKfJ5b0+8mhsewReyIJu0BBPgY2gwzOQj3S7uzMTZVRC+JFRVr1FdUiGRlalnVc9f1NA0PcAZDVrrT6m0XtXo7Nb47IxK101twq3n6Yg0iOqR+5caF4WI1h5p2xNpWFKSjAvHrI6SEY3WHmnb0WgaXLqsYbNBSUH4mRYI1KgiaUgzcgkxVZvZuf0Vdod7Tbjliz4Kv2Zi310bt/PQgmwsgOI6wjt1E+rQJpCl0ToH41iFuyT3cb6/NjDzQf9hfvPeibDnv/htJj8Vem7GWENZmY0dcA82ANU4ZFBcDeEDQRrYWxcmS1t3iR4cOCqDllVWM582mvqClk1Dt6KALYVsgPQUZDq4Gi6IDth7s2O8/11zgKv94bPIQuziCFSH8anot+3D3e/WfPiC569TVSLdFfL6jD9FB/qFrA9leJIDhBIIJE3WuGtDRzzRD1gweo/Si3dCVAug4J3KuUsQvuRMJo2sDJiXLbGs0kRRvkRHp8atPv1gkJoiUbPMRHIytF7RaGzWSE6SqKqUMAeVBwh3T2e3Rs9NKC2UsIQ7lgeYTYAmoU0WycalAyVwZ85iDRc6+PAG5sIde0UrEfYb+nu9+Ea66ek5w7GTu/nZgYMxTB8F3SP6wV6WY6uhhCocifp/6UFd7BxlT7LrgYdx2sDXX8fbH8QyxdU01ZaShYI7pgCxmmeW6oPP9ODPiT38zYgoDnC1X2Z+7nimeV1uAUwa8Mbu6OB4DLEuOdaaC0PQfBd0KwrI2Xc3c/slF0egeoMhD4AJWQ5ztd97hj+fOcQHQa+WodD85IzR1C/qWlcQhOmSIDNDwmzSp6UalZwEK5eZeHS9iUceMFFeIqH6JbweSIzzClSSJj/E/emT08ZFIaK1R9r2RBK+geD6hlDHu8PcoQkSrT3StiPx+TU6ujS8Po0TDRrvH1Z5/7DKJyc1/H6Jzxs1PviznwG3hmTSs6qekdCMg6aB6ofERAmTJUI2IqJu2gb1gNBhr2ZimHGQn721i+eDX1cmPpdqnEJrg6H/W7t4/re7efngHvY3dsecpTzqCiQxYg027PmBMoZYg0Bd+X3f4+9X6vOwKq5DvLF/X/w1qBHowZwLV5hZArJKjNnoSeo9p6FbUZAd1YHPcjMrc+BG+9QC+tnk6KDrC8jcfrlN5Uhr4KVT0Q+OtqQ8ZqBK1MCFxwdgQU40zE8zKlnGBqD5v6DaUDUwqtWKNdwcGfF8nILwJeH3w6lzKg1nVP12cRBNBVXVb/sDXGjVOF6v4jVcafb1a5jMGkmGgTtTFenpT//6+tsoI+EL7JURD//6+tvGxSEibdtIU1U8fZNHHb84f4lhf/gU4bDfzy/ORx7yE2nbkZhNEiUFJpYuCn2VFklIQEEuVFWakGUJOVHCaoFBw6MFfT4YUjTkRLCMPTt76o52duh3yNIq2DDf2PoX1NxChwrYCliyPOyBP0T5fVX6VE3KJRrCBIHhlNc+y3cCc6K629+OOdt7t0wcWf8DnvtNcL1nB+7wP52ojra3odgKqKgMZHU9bTTF+DlFEpxFDc6uRhY+UA9vKn2N7n7m9sss9iNtGK6rl+nzA+YMikoCoyhn0C2PfoWdOKcozBU2FCan6H+Ax40+m0knihfAhHXCbYkk0gJF8dPXza0RH2AhNTVMVawjg6Tw4yEE4SvDbIaEBH1yeHfQ+AhNg44uDUnS9KdOASnJ4B7SR5yPGh7Rs3xpqRJJSdMPfABM5skPcQ3Nl1m344f84Uj9WMCqjHj4w5F61u34IQ3Nl42rhIi07XBGImRFz/f1s/2j43x0o3ssYB32+/noRjfbPzrO+T7DSFODSNuORJIgPQ2yM0Nfc9PBZNa/p8y5eoCamAgpKdBzUwu5sLjl0hi6o8/mEFdVwJl9fN7vBZOT5Ss3U25s/0txH+RYhwuQyS97mnWRxq3lbmbTAkdgoNa7EedQHVVe+yzfKXFiQX861c8/vFs1qTNJHzA2nhmdaNuWV8JMUaUPtLrh0W//b8t0RqhznZpsWR4fGNY3gBI8Q0EY2zKd4BlAz5ePD4ALJ/ZSgsnEE+QKUzvSTtDJue7AE6eSF3F/WQW54aJV2U5h3mqKkqYWKHb19jCkAom5lOc5QgLhjPkrKEiyAB76+sZPKHf8PsDEHHsZ4wUJVnLyqsiYELxO3ZVbvXgAU1IxK7KD7ksmOFkxP1vP8ArCV1xhrkSiLNHQOD5I6uQZlY5OjeIiM6mBk/1ch/5o1TPnNdraNa5eV/m0Qc+wlhToZQLxkEzm0Oe1GjQ0X+YbO18iee1TmGu+SfLap/jGzpeiBqkgBbYdu6H2blRv+KwpgWD1H+s+o2bfuyzZ+0dq9r3LP9Z9FjVIVb1+htpjqbGPj9kEeU6JgUGN+lMqHZ36AxvONmukp0lkOCb/nGPTzd6TdYEnO63nO9/cwabCMCcUezY1K3ewqzDWmtH41X94kMY7XkioYNOmf2BbyfhMMKOcFU+ya/Txr/11MQ3UIncrW4oCQWrLL3jZ8HSqu0nPOk4/07f3oj4FVdgR7YFR9+GD0AaaXAqyYyuLU5WZue0/Osp/dGBYtFH9YWYFiFRLGhIET9G6ZEdQQCxMR5ynAVB6GvikvZ0hP1jkXMrLHmXD4lrWlK1mTVktDyx5mEfKVlPisGORwKd00HYzxnlX3Re42BuYL9WxgrWj2618iOVZ+vyqw7ebOBf0BKqxQDIxn+VVX2NN2Wq+tvhBljjsqMNDhlH80+A6w7lbblRspM97gA2Vtawpq+XB8kWkWyIPGBOEr4rEBImapSYyHHC5TeVsk8bICFRVShTkjseONivcV2VirgMutmpcaIFEWR9glZoSb+ADJrMZc4RJ9qfLbDVP6alUACNdtxi6dM24OG5Dl67F/FSqeGU6JO6r0v/ucxdUrneAcx4sXWSKOBArZu0HePnIAVoHvViSK1i37sfsfuqH7Pz6s+z8+rPs+uuX+OmW59hWUYHDDL7BFo41HTJu5S5o4I1336LR7QVbATW1L/DTsf16jhf/71f4/mh9ae8h3tgf2yCohxZX4zABWHHk/x0//dZLYV+7Hpric2JjUXeJHmTs6caGGJ1/nQ+6FLJKjJP4b2ZnjT511QeTzM+q123KyDNy2z/wfv2HQ+Zz3bv/TVqpYJPhIQXUPsvumgroejOk/9H3TtBjq2CTYRaJdRt/rD/162KMsyMYZMty7HPwCmGZl20o/hfjwqnyKb2091xnWLKSYEskwSyTYEvAZrVhljRU/x0GBq9xrf00pzq7uB00XWmao5C5NhNepZX2MNOo3XHfoHtYY05iMolWmQRrAjaT/qSOns5Pqb/RHxp8Kt30eG045CRslgRs1gQsmsLg7fN8NiCzIGUOeHpoc+mjOSK+f9I8ClPmYPL1c7l3/ERwZ+A6bi2RFDlZ3x+rDfxD3OptwyNnIJs8uLuuY3iCqyB8pVgskJ0pUVxgorhAIs8pkZyk1z4a++VkShQX6C9njoQtwq2JxuapXg1KaH5Vn6B1BkiSCbPVNqUa1VGqz8ec3GxMxufCTpN/SMH12bkpDaZaXB59vxMSJIryTSTNMXxbEsgy5DrHv6/MufFnvkMMtHGyqY7LfhPpcgqy7CBtTgpJcgqySUX19dN7s4ETp/8nr9XV0Xwr+AxQxpplBSTho+/Gh5yc0kE4yrqebk6P7leSg7TENOxzUkiSk7FqCm5XA3Wf/5LXT5wjtkKMKh5dsQJHIMA3mfWLn3AvlHMcbp08wbOofCPOxEn2e1IXcRZuZGFSAn9qvqgvyqzmQWcmHtf7HIvh6WBXWz/kT948Ni55mr9atpFHlm3kkWUFmLre5If7/8jVQD/9UeUKN04f5zxAewZLlxVguvk+e0b/rmjvHWhPc4y+j+H9/njEsEInJxvfZyTnCR5c+8R4f4eV1vpdvPyJ8fO8yLHTvRQt/zr//b7x7S9M7qF+z094I+znOo8VS6pw+NrGP8MQm/mrVQUMXf+P8H+TEBNp+08fmZmjtyAIwhfgt/snv30+Gb/Xi8/jmYFgVcJis2EOfoboFKVWlTJ3dRWSZWoZWSPN5+fW8TP0n4k80Mror7fE977Cl0jts+wugfoZGM0vhFH7LLvzBngnZCCaMFUzeR0sCIJwTzJbrVis1oj1qtFJWKzWuIJUgP4zl7jd0GRcPGW3G5qmHKQKQoi6V6nvd7J4ms+9FyKp5pk85+RPxxJiJgJVQRC+Esw2GxabbYrzn+okyaRnUiPVJEyBq/48vX/+HO80ppXy9rnp/fPnuOrjLu4TBPbuP4w7ZyvPTHNQlRDeuo1bKVZC62aF6RG3/gVBmFWmc+s/mOr3o/q9+L3+GEoBpMDAKeuUB0/FQl6Qhb2sgKTiXExRBn2pXj9Dre24L7ShXI/1ufMTiVv/giDMJiJQFQRhVok3UB2l+v1oqh/Vr6KpKpqmP51AkkxIJhMmswnJNPXR/dMhO7OQ52dgy3SQMDcVU+CRXOrwCCO3+vHcdKHc6EXpmH6AOkoEqoIgzCYiUBUEYVaZqUD1q0oEqoIgzCZTL9YSBEEQBEEQhC+ACFQFQRAEQRCEe5IIVAVBEARBEIR7kghUBUEQBEEQhHuSCFQFQRAEQRCEe5IIVAVBEARBEIR7kghUBUEQBEEQhHuSCFQFQRAEQRCEe5IIVAVBEARBEIR7kghUBUEQBEEQhHuSCFQFQRAEQRCEe9L/D5R/T0llmVONAAAAAElFTkSuQmCC;" vertex="1" parent="1">
          <mxGeometry x="180" y="410" width="682" height="676" as="geometry" />
        </mxCell>
      </root>
    </mxGraphModel>
  </diagram>
</mxfile>
